<?xml version="1.0" standalone="no"?>
<svg xmlns="http://www.w3.org/2000/svg" xmlns:xlink="http://www.w3.org/1999/xlink" version="1.1" id="Layer_1" x="0px" y="0px" viewBox="0 0 864 457.1" enable-background="new 0 0 864 457.1" xml:space="preserve" class="injected-svg" data-src="https://d9i3cp4r5rckd.cloudfront.net/svg/5ece1f29be8e35326760933b_1.svg">
<title>Work from home</title>
<g>
	<g id="Layer_1_1_">
		<path fill="#7FE57F" d="M347.3,63.4h-31.8c-3.1,0-5.6-2.5-5.6-5.6V47.5c0-3.1,2.5-5.6,5.6-5.6h31.8c3.1,0,5.6,2.5,5.6,5.6v10.3    C352.9,60.8,350.4,63.4,347.3,63.4L347.3,63.4z M315.4,43.7c-2.1,0-3.7,1.7-3.7,3.7l0,0v10.3c0,2.1,1.7,3.7,3.7,3.7h31.8    c2.1,0,3.7-1.7,3.7-3.7V47.5c0-2.1-1.7-3.7-3.7-3.7L315.4,43.7L315.4,43.7z"></path>
		<path fill="#7FE57F" d="M390.3,63.4h-31.8c-3.1,0-5.6-2.5-5.6-5.6V47.5c0-3.1,2.5-5.6,5.6-5.6h31.8c3.1,0,5.6,2.5,5.6,5.6v10.3    C395.9,60.8,393.4,63.4,390.3,63.4L390.3,63.4z M358.5,43.7c-2.1,0-3.7,1.7-3.7,3.7l0,0v10.3c0,2.1,1.7,3.7,3.7,3.7h31.8    c2.1,0,3.7-1.7,3.7-3.7V47.5c0-2.1-1.7-3.7-3.7-3.7L358.5,43.7L358.5,43.7z"></path>
		<path fill="#7FE57F" d="M368.8,84.9H337c-3.1,0-5.6-2.5-5.6-5.6V69c0-3.1,2.5-5.6,5.6-5.6h31.8c3.1,0,5.6,2.5,5.6,5.6v10.3    C374.4,82.4,371.9,84.9,368.8,84.9z M337,65.3c-2.1,0-3.7,1.7-3.7,3.7l0,0v10.3c0,2.1,1.7,3.7,3.7,3.7h31.8c2.1,0,3.7-1.7,3.7-3.7    V69c0-2.1-1.7-3.7-3.7-3.7H337z"></path>
		<rect x="1.8" y="347.8" fill="#A7EAA7" width="863" height="109.6"></rect>
		<path fill="#7FE57F" d="M646.6,42.8h-31.8c-3.1,0-5.6-2.5-5.6-5.6V26.9c0-3.1,2.5-5.6,5.6-5.6h31.8c3.1,0,5.6,2.5,5.6,5.6v10.3    C652.2,40.3,649.7,42.8,646.6,42.8z M614.8,23.1c-2.1,0-3.7,1.7-3.7,3.7v10.3c0,2.1,1.7,3.7,3.7,3.7h31.8c2.1,0,3.7-1.7,3.7-3.7    V26.9c0-2.1-1.7-3.7-3.7-3.7L614.8,23.1z"></path>
		<path fill="#7FE57F" d="M689.7,42.8h-31.9c-3.1,0-5.6-2.5-5.6-5.6V26.9c0-3.1,2.5-5.6,5.6-5.6h31.9c3.1,0,5.6,2.5,5.6,5.6v10.3    C695.3,40.3,692.8,42.8,689.7,42.8z M657.9,23.1c-2.1,0-3.7,1.7-3.7,3.7v10.3c0,2.1,1.7,3.7,3.7,3.7h31.8c2.1,0,3.7-1.7,3.7-3.7    V26.9c0-2.1-1.7-3.7-3.7-3.7L657.9,23.1z"></path>
		<path fill="#7FE57F" d="M668.1,64.3h-31.8c-3.1,0-5.6-2.5-5.6-5.6V48.4c0-3.1,2.5-5.6,5.6-5.6h31.8c3.1,0,5.6,2.5,5.6,5.6v10.3    C673.7,61.8,671.2,64.3,668.1,64.3z M636.3,44.7c-2.1,0-3.7,1.7-3.7,3.7v10.3c0,2.1,1.7,3.7,3.7,3.7h31.8c2.1,0,3.7-1.7,3.7-3.7    V48.4c0-2.1-1.7-3.7-3.7-3.7H636.3z"></path>
		<path fill="#7FE57F" d="M711.2,64.3h-31.8c-3.1,0-5.6-2.5-5.6-5.6V48.4c0-3.1,2.5-5.6,5.6-5.6h31.8c3.1,0,5.6,2.5,5.6,5.6v10.3    C716.8,61.8,714.3,64.3,711.2,64.3z M679.4,44.7c-2.1,0-3.7,1.7-3.7,3.7v10.3c0,2.1,1.7,3.7,3.7,3.7h31.8c2.1,0,3.7-1.7,3.7-3.7    V48.4c0-2.1-1.7-3.7-3.7-3.7H679.4z"></path>
		<path fill="#7FE57F" d="M378.6,164.3h-31.8c-3.1,0-5.6-2.5-5.6-5.6v-10.3c0-3.1,2.5-5.6,5.6-5.6h31.8c3.1,0,5.6,2.5,5.6,5.6v10.3    C384.2,161.7,381.7,164.3,378.6,164.3L378.6,164.3z M346.8,144.6c-2.1,0-3.7,1.7-3.7,3.7v10.3c0,2.1,1.7,3.7,3.7,3.7l0,0h31.8    c2,0,3.7-1.7,3.7-3.7v-10.3c0-2.1-1.7-3.7-3.7-3.7H346.8z"></path>
		<path fill="#7FE57F" d="M400.1,185.8h-31.8c-3.1,0-5.6-2.5-5.6-5.6v-10.3c0-3.1,2.5-5.6,5.6-5.6h31.8c3.1,0,5.6,2.5,5.6,5.6v10.3    C405.8,183.3,403.2,185.8,400.1,185.8z M368.3,166.1c-2.1,0-3.7,1.7-3.7,3.7v10.3c0,2.1,1.7,3.7,3.7,3.7l0,0h31.8    c2.1,0,3.7-1.7,3.7-3.7v-10.3c0-2.1-1.7-3.7-3.7-3.7H368.3z"></path>
		<path fill="#7FE57F" d="M443.2,185.8h-31.9c-3.1,0-5.6-2.5-5.6-5.6v-10.3c0-3.1,2.5-5.6,5.6-5.6h31.9c3.1,0,5.6,2.5,5.6,5.6v10.3    C448.8,183.3,446.3,185.8,443.2,185.8z M411.4,166.1c-2.1,0-3.7,1.7-3.7,3.7v10.3c0,2.1,1.7,3.7,3.7,3.7h31.8    c2.1,0,3.7-1.7,3.7-3.7v-10.3c0-2.1-1.7-3.7-3.7-3.7H411.4z"></path>
		<path fill="#7FE57F" d="M699.5,201.9h-31.8c-3.1,0-5.6-2.5-5.6-5.6V186c0-3.1,2.5-5.6,5.6-5.6h31.8c3.1,0,5.6,2.5,5.6,5.6v10.3    C705.1,199.4,702.6,201.9,699.5,201.9z M667.7,182.2c-2.1,0-3.7,1.7-3.7,3.7v10.3c0,2.1,1.7,3.7,3.7,3.7h31.8    c2.1,0,3.7-1.7,3.7-3.7V186c0-2.1-1.7-3.7-3.7-3.7h-31.8V182.2z"></path>
		<path fill="#7FE57F" d="M742.5,201.9h-31.8c-3.1,0-5.6-2.5-5.6-5.6V186c0-3.1,2.5-5.6,5.6-5.6h31.8c3.1,0,5.6,2.5,5.6,5.6v10.3    C748.1,199.4,745.6,201.9,742.5,201.9z M710.7,182.2c-2.1,0-3.7,1.7-3.7,3.7v10.3c0,2.1,1.7,3.7,3.7,3.7h31.8    c2.1,0,3.7-1.7,3.7-3.7V186c0-2.1-1.7-3.7-3.7-3.7h-31.8V182.2z"></path>
		<path fill="#7FE57F" d="M721,223.4h-31.8c-3.1,0-5.6-2.5-5.6-5.6v-10.3c0-3.1,2.5-5.6,5.6-5.6H721c3.1,0,5.6,2.5,5.6,5.6v10.3    C726.6,220.9,724.1,223.4,721,223.4z M689.2,203.8c-2.1,0-3.7,1.7-3.7,3.7v10.3c0,2.1,1.7,3.7,3.7,3.7H721c2.1,0,3.7-1.7,3.7-3.7    v-10.3c0-2.1-1.7-3.7-3.7-3.7H689.2z"></path>
		<rect x="7.1" y="-0.3" fill="#7FE57F" width="290.2" height="12.2"></rect>
		<rect x="7.1" y="7.2" fill="#78D678" width="290.2" height="4.7"></rect>
		<rect x="18.4" y="11.9" fill="#FFFFFF" width="267.7" height="277.5"></rect>
		<g opacity="0.39">
			<rect x="182.4" y="98.5" fill="#DCDCDC" width="55" height="174.5"></rect>
			<rect x="214.3" y="98.5" fill="#C5C2C0" width="23.1" height="174.5"></rect>
			<rect x="190.2" y="109.2" fill="#FFFFFF" width="6.7" height="16.1"></rect>
			<rect x="203.2" y="109.2" fill="#FFFFFF" width="6.7" height="16.1"></rect>
			<rect x="190.2" y="129.6" fill="#FFFFFF" width="6.7" height="16.1"></rect>
			<rect x="203.2" y="129.6" fill="#FFFFFF" width="6.7" height="16.1"></rect>
			<rect x="190.2" y="150.1" fill="#FFFFFF" width="6.7" height="16.1"></rect>
			<rect x="203.2" y="150.1" fill="#FFFFFF" width="6.7" height="16.1"></rect>
			<rect x="190.2" y="170.6" fill="#FFFFFF" width="6.7" height="16.1"></rect>
			<rect x="203.2" y="170.6" fill="#FFFFFF" width="6.7" height="16.1"></rect>
			<rect x="190.2" y="191.1" fill="#FFFFFF" width="6.7" height="16.1"></rect>
			<rect x="203.2" y="191.1" fill="#FFFFFF" width="6.7" height="16.1"></rect>
			<rect x="190.2" y="211.6" fill="#FFFFFF" width="6.7" height="16.1"></rect>
			<rect x="203.2" y="211.6" fill="#FFFFFF" width="6.7" height="16.1"></rect>
			<rect x="190.2" y="232.1" fill="#FFFFFF" width="6.7" height="16.1"></rect>
			<rect x="203.2" y="232.1" fill="#FFFFFF" width="6.7" height="16.1"></rect>
			<rect x="190.2" y="252.5" fill="#FFFFFF" width="6.7" height="16.1"></rect>
			<rect x="203.2" y="252.5" fill="#FFFFFF" width="6.7" height="16.1"></rect>
			<rect x="216.8" y="138.8" fill="#DCDCDC" width="55" height="142.6"></rect>
			<rect x="248.7" y="138.8" fill="#C5C2C0" width="23.1" height="142.6"></rect>
			<rect x="224.6" y="147.5" fill="#FFFFFF" width="6.7" height="13.1"></rect>
			<rect x="237.6" y="147.5" fill="#FFFFFF" width="6.7" height="13.1"></rect>
			<rect x="224.6" y="164.3" fill="#FFFFFF" width="6.7" height="13.1"></rect>
			<rect x="237.6" y="164.3" fill="#FFFFFF" width="6.7" height="13.1"></rect>
			<rect x="224.6" y="181" fill="#FFFFFF" width="6.7" height="13.1"></rect>
			<rect x="237.6" y="181" fill="#FFFFFF" width="6.7" height="13.1"></rect>
			<rect x="224.6" y="197.7" fill="#FFFFFF" width="6.7" height="13.1"></rect>
			<rect x="237.6" y="197.7" fill="#FFFFFF" width="6.7" height="13.1"></rect>
			<rect x="224.6" y="214.5" fill="#FFFFFF" width="6.7" height="13.1"></rect>
			<rect x="237.6" y="214.5" fill="#FFFFFF" width="6.7" height="13.1"></rect>
			<rect x="224.6" y="231.2" fill="#FFFFFF" width="6.7" height="13.1"></rect>
			<rect x="237.6" y="231.2" fill="#FFFFFF" width="6.7" height="13.1"></rect>
			<rect x="224.6" y="248" fill="#FFFFFF" width="6.7" height="13.1"></rect>
			<rect x="237.6" y="248" fill="#FFFFFF" width="6.7" height="13.1"></rect>
			<rect x="224.6" y="264.7" fill="#FFFFFF" width="6.7" height="13.1"></rect>
			<rect x="237.6" y="264.7" fill="#FFFFFF" width="6.7" height="13.1"></rect>
			<rect x="89.5" y="32" fill="#DCDCDC" width="55" height="227.4"></rect>
			<rect x="121.4" y="32" fill="#C5C2C0" width="23.1" height="227.4"></rect>
			<rect x="97.3" y="45.9" fill="#FFFFFF" width="6.7" height="20.9"></rect>
			<rect x="110.3" y="45.9" fill="#FFFFFF" width="6.7" height="20.9"></rect>
			<rect x="97.3" y="72.6" fill="#FFFFFF" width="6.7" height="20.9"></rect>
			<rect x="110.3" y="72.6" fill="#FFFFFF" width="6.7" height="20.9"></rect>
			<rect x="97.3" y="99.3" fill="#FFFFFF" width="6.7" height="20.9"></rect>
			<rect x="110.3" y="99.3" fill="#FFFFFF" width="6.7" height="20.9"></rect>
			<rect x="97.3" y="126" fill="#FFFFFF" width="6.7" height="20.9"></rect>
			<rect x="110.3" y="126" fill="#FFFFFF" width="6.7" height="20.9"></rect>
			<rect x="97.3" y="152.7" fill="#FFFFFF" width="6.7" height="20.9"></rect>
			<rect x="110.3" y="152.7" fill="#FFFFFF" width="6.7" height="20.9"></rect>
			<rect x="97.3" y="179.4" fill="#FFFFFF" width="6.7" height="20.9"></rect>
			<rect x="110.3" y="179.4" fill="#FFFFFF" width="6.7" height="20.9"></rect>
			<rect x="97.3" y="206.1" fill="#FFFFFF" width="6.7" height="20.9"></rect>
			<rect x="110.3" y="206.1" fill="#FFFFFF" width="6.7" height="20.9"></rect>
			<rect x="97.3" y="232.8" fill="#FFFFFF" width="6.7" height="20.9"></rect>
			<rect x="110.3" y="232.8" fill="#FFFFFF" width="6.7" height="20.9"></rect>
			<rect x="32.7" y="104.1" fill="#DCDCDC" width="55" height="174.5"></rect>
			<rect x="64.5" y="104.1" fill="#C5C2C0" width="23.1" height="174.5"></rect>
			<rect x="40.4" y="114.8" fill="#FFFFFF" width="6.7" height="16.1"></rect>
			<rect x="53.4" y="114.8" fill="#FFFFFF" width="6.7" height="16.1"></rect>
			<rect x="40.4" y="135.2" fill="#FFFFFF" width="6.7" height="16.1"></rect>
			<rect x="53.4" y="135.2" fill="#FFFFFF" width="6.7" height="16.1"></rect>
			<rect x="40.4" y="155.7" fill="#FFFFFF" width="6.7" height="16.1"></rect>
			<rect x="53.4" y="155.7" fill="#FFFFFF" width="6.7" height="16.1"></rect>
			<rect x="40.4" y="176.2" fill="#FFFFFF" width="6.7" height="16.1"></rect>
			<rect x="53.4" y="176.2" fill="#FFFFFF" width="6.7" height="16.1"></rect>
			<rect x="40.4" y="196.7" fill="#FFFFFF" width="6.7" height="16.1"></rect>
			<rect x="53.4" y="196.7" fill="#FFFFFF" width="6.7" height="16.1"></rect>
			<rect x="40.4" y="217.2" fill="#FFFFFF" width="6.7" height="16.1"></rect>
			<rect x="53.4" y="217.2" fill="#FFFFFF" width="6.7" height="16.1"></rect>
			<rect x="40.4" y="237.7" fill="#FFFFFF" width="6.7" height="16.1"></rect>
			<rect x="53.4" y="237.7" fill="#FFFFFF" width="6.7" height="16.1"></rect>
			<rect x="40.4" y="258.2" fill="#FFFFFF" width="6.7" height="16.1"></rect>
			<rect x="53.4" y="258.2" fill="#FFFFFF" width="6.7" height="16.1"></rect>
			<rect x="78.3" y="168.2" fill="#DCDCDC" width="55" height="111.5"></rect>
			<rect x="110.2" y="168.2" fill="#C5C2C0" width="23.1" height="111.5"></rect>
			<rect x="86.1" y="175" fill="#FFFFFF" width="6.7" height="10.3"></rect>
			<rect x="99" y="175" fill="#FFFFFF" width="6.7" height="10.3"></rect>
			<rect x="86.1" y="188.1" fill="#FFFFFF" width="6.7" height="10.3"></rect>
			<rect x="99" y="188.1" fill="#FFFFFF" width="6.7" height="10.3"></rect>
			<rect x="86.1" y="201.2" fill="#FFFFFF" width="6.7" height="10.3"></rect>
			<rect x="99" y="201.2" fill="#FFFFFF" width="6.7" height="10.3"></rect>
			<rect x="86.1" y="214.2" fill="#FFFFFF" width="6.7" height="10.3"></rect>
			<rect x="99" y="214.2" fill="#FFFFFF" width="6.7" height="10.3"></rect>
			<rect x="86.1" y="227.3" fill="#FFFFFF" width="6.7" height="10.3"></rect>
			<rect x="99" y="227.3" fill="#FFFFFF" width="6.7" height="10.3"></rect>
			<rect x="86.1" y="240.4" fill="#FFFFFF" width="6.7" height="10.3"></rect>
			<rect x="99" y="240.4" fill="#FFFFFF" width="6.7" height="10.3"></rect>
			<rect x="86.1" y="253.5" fill="#FFFFFF" width="6.7" height="10.3"></rect>
			<rect x="99" y="253.5" fill="#FFFFFF" width="6.7" height="10.3"></rect>
			<rect x="86.1" y="266.6" fill="#FFFFFF" width="6.7" height="10.3"></rect>
			<rect x="99" y="266.6" fill="#FFFFFF" width="6.7" height="10.3"></rect>
			<rect x="131.2" y="138.4" fill="#DCDCDC" width="55" height="142.6"></rect>
			<rect x="163.1" y="138.4" fill="#C5C2C0" width="23.1" height="142.6"></rect>
			<rect x="139" y="147" fill="#FFFFFF" width="6.7" height="13.1"></rect>
			<rect x="151.9" y="147" fill="#FFFFFF" width="6.7" height="13.1"></rect>
			<rect x="139" y="163.8" fill="#FFFFFF" width="6.7" height="13.1"></rect>
			<rect x="151.9" y="163.8" fill="#FFFFFF" width="6.7" height="13.1"></rect>
			<rect x="139" y="180.5" fill="#FFFFFF" width="6.7" height="13.1"></rect>
			<rect x="151.9" y="180.5" fill="#FFFFFF" width="6.7" height="13.1"></rect>
			<rect x="139" y="197.3" fill="#FFFFFF" width="6.7" height="13.1"></rect>
			<rect x="151.9" y="197.3" fill="#FFFFFF" width="6.7" height="13.1"></rect>
			<rect x="139" y="214" fill="#FFFFFF" width="6.7" height="13.1"></rect>
			<rect x="151.9" y="214" fill="#FFFFFF" width="6.7" height="13.1"></rect>
			<rect x="139" y="230.8" fill="#FFFFFF" width="6.7" height="13.1"></rect>
			<rect x="151.9" y="230.8" fill="#FFFFFF" width="6.7" height="13.1"></rect>
			<rect x="139" y="247.5" fill="#FFFFFF" width="6.7" height="13.1"></rect>
			<rect x="151.9" y="247.5" fill="#FFFFFF" width="6.7" height="13.1"></rect>
			<rect x="139" y="264.2" fill="#FFFFFF" width="6.7" height="13.1"></rect>
			<rect x="151.9" y="264.2" fill="#FFFFFF" width="6.7" height="13.1"></rect>
			<rect x="163.9" y="168.6" fill="#DCDCDC" width="55" height="111.5"></rect>
			<rect x="195.8" y="168.6" fill="#C5C2C0" width="23.1" height="111.5"></rect>
			<rect x="171.7" y="175.4" fill="#FFFFFF" width="6.7" height="10.3"></rect>
			<rect x="184.7" y="175.4" fill="#FFFFFF" width="6.7" height="10.3"></rect>
			<rect x="171.7" y="188.5" fill="#FFFFFF" width="6.7" height="10.3"></rect>
			<rect x="184.7" y="188.5" fill="#FFFFFF" width="6.7" height="10.3"></rect>
			<rect x="171.7" y="201.6" fill="#FFFFFF" width="6.7" height="10.3"></rect>
			<rect x="184.7" y="201.6" fill="#FFFFFF" width="6.7" height="10.3"></rect>
			<rect x="171.7" y="214.7" fill="#FFFFFF" width="6.7" height="10.3"></rect>
			<rect x="184.7" y="214.7" fill="#FFFFFF" width="6.7" height="10.3"></rect>
			<rect x="171.7" y="227.8" fill="#FFFFFF" width="6.7" height="10.3"></rect>
			<rect x="184.7" y="227.8" fill="#FFFFFF" width="6.7" height="10.3"></rect>
			<rect x="171.7" y="240.9" fill="#FFFFFF" width="6.7" height="10.3"></rect>
			<rect x="184.7" y="240.9" fill="#FFFFFF" width="6.7" height="10.3"></rect>
			<rect x="171.7" y="254" fill="#FFFFFF" width="6.7" height="10.3"></rect>
			<rect x="184.7" y="254" fill="#FFFFFF" width="6.7" height="10.3"></rect>
			<rect x="171.7" y="267.1" fill="#FFFFFF" width="6.7" height="10.3"></rect>
			<rect x="184.7" y="267.1" fill="#FFFFFF" width="6.7" height="10.3"></rect>
		</g>
		<rect x="25.9" y="19.8" fill="#92E892" width="123.6" height="261.6"></rect>
		<rect x="156.9" y="19.8" fill="#92E892" width="123.6" height="261.6"></rect>
		<g opacity="0.3">
			<polygon fill="#FFFFFF" points="150.6,18.9 149.4,21.6 37.9,281.4 25.9,281.4 25.9,234.2 117.9,19.8 149.4,19.8 149.4,18.9         "></polygon>
			<polygon fill="#FFFFFF" points="234.4,19.8 158.8,196.1 156.9,200.4 149.4,217.9 122.1,281.4 61.8,281.4 149.4,77.2 156.9,59.8      158.8,55.4 174,19.8    "></polygon>
		</g>
		<rect x="149.4" y="18.9" fill="#FFFFFF" width="9.4" height="270.5"></rect>
		<rect x="7.1" y="289.4" fill="#7FE57F" width="290.2" height="12.2"></rect>
		<rect x="7.1" y="298.3" fill="#78D678" width="290.2" height="3.3"></rect>
		<path fill="#78D678" d="M814,351.1c0,20.6-12.3,23-27.5,23c-5.9,0-11.3-0.4-15.8-2c-7.1-2.6-11.8-8.4-11.8-21    c0.1-10,3.5-19.8,9.7-27.7h36.1C810.1,330.2,814,340.3,814,351.1z"></path>
		<path fill="#7FE57F" d="M802.2,349.1c0,20.6-12.3,23-27.5,23c-1.4,0-2.7,0-4-0.1c-4.1-1.4-7.5-4.3-9.4-8.3    c-1.5-3.2-2.4-7.3-2.4-12.7c0.1-10,3.5-19.8,9.7-27.7h25.7C799.5,331,802.2,340,802.2,349.1z"></path>
		<path fill="#A7EAA7" d="M785.6,340.8c0,19.1-10.6,22.6-24.4,22.9c-1.5-3.2-2.4-7.3-2.4-12.7c0.1-10,3.5-19.8,9.7-27.7h13.6    C784.4,328.9,785.6,334.9,785.6,340.8z"></path>
		<path fill="#78D678" d="M803.9,322.4c0.6,0.3,1,1,0.7,1.6c-0.1,0.3-0.4,0.6-0.7,0.7c-11,4.6-23.5,4.6-34.5,0c-0.6-0.3-1-1-0.7-1.6    c0.1-0.3,0.4-0.6,0.7-0.7C780.4,317.8,792.8,317.8,803.9,322.4z"></path>
		<polygon fill="#71C671" points="782.3,323.8 783.5,262.6 786.9,263.9 786.9,292.4 792,247.7 795.9,247.7 787.8,325.1   "></polygon>
		<path fill="#78D678" d="M764.1,281.9c-5-2-8.5,0.6-12.7,2.7s-8.7,3-10.9,7.7c-1.4,2.9-1.2,6.4-0.2,9.4c1,3.1,2.8,5.8,4.5,8.5    c-0.4-3.7,2.6-7,6-8.5c3.4-1.6,7.1-2,10.7-3.1c3.5-1.2,7.1-3.4,8-7C770.5,287.7,767.8,283.4,764.1,281.9z"></path>
		<path fill="#71C671" d="M778,323.8c0,0-0.2-20.8-8.6-28.6c-8.4-7.8-10.3-10.7-10.3-10.7h3.1c0,0,14.2,12,15.8,17.2    s2.5,23.5,2.5,23.5L778,323.8z"></path>
		<path fill="#71C671" d="M791.6,323.8c0-0.7,6.8-37.7,13.3-43s15.7-13.2,15.7-13.2s-10.4,11.2-14.3,18.3    c-4.8,8.7-11.5,37.9-11.5,37.9L791.6,323.8L791.6,323.8z"></path>
		<path fill="#A7EAA7" d="M776.7,285.6c-0.6,2.3-2,4.3-3.9,5.7c-1.2,0.9-2.7,1.5-4.2,1.7c-4.1,0.6-6-3.8-8.5-6.5    c-6.2-6.5-13.5-11.9-21.5-15.8c-3.5-1.7-7.1-3.2-10.8-4.3c-1.1-0.3-2.2-0.7-3.4-1c5.4-3.1,11.7-4.3,17.9-4.1    c6.2,0.3,12.3,1.7,18.1,4c4.4,1.7,8.8,3.8,12.1,7.2C775.8,276.2,777.8,281,776.7,285.6z"></path>
		<path fill="#7FE57F" d="M773.5,289.4c-0.2,0.7-0.4,1.4-0.7,2c-1.2,0.9-2.7,1.5-4.2,1.7c-4.1,0.6-6-3.8-8.5-6.5    c-6.2-6.5-13.5-11.9-21.5-15.8c-3.5-1.7-7.1-3.2-10.8-4.3c3.7-1,7.5-1.5,11.4-1.3c6.2,0.3,12.3,1.7,18.1,4    c4.4,1.7,8.8,3.8,12.1,7.2S774.6,284.8,773.5,289.4z"></path>
		<path fill="#7FE57F" d="M835.7,207.5c-4.9-1.6-10.3-0.7-15.1,0.9c-8.8,3-16.6,8.6-22.2,16.1c-4.9,6.5-7.7,14.3-9.4,22.2    c-1.4,6.4,4.4,14.1,10.6,15.9c2.8,0.8,5.9,0.2,8.6-1c6.2-2.8,10.6-8.6,13.5-14.8s4.5-12.9,6.6-19.4c0.9-2.6,1.9-5.4,4.1-7.1    c3.4-2.8,8.3-2.4,12.6-1.8C844.8,213.5,840.6,209.1,835.7,207.5z"></path>
		<path fill="#78D678" d="M798.5,261.3c-0.9,3.5-4,6-7.1,7.8c-1.2,0.7-2.4,1.6-3.6,2.4c-1,0.7-2,1.3-3.1,1.8    c-2.4,1.1-3.6-0.2-5.5-1.7c-4.2-3.2-8-6.8-11.4-10.8c-4.6-5.6-8.2-12.3-9-19.5c-1.1-10,3-19.7,4.5-29.7c0.4-2.7,0.6-5.4,1.4-8    c0.8-2.6,2.2-5.1,4.5-6.5c0.9-0.6,1.9-0.9,3-1c1.7-0.2,3.3,0.3,4.6,1.4c-1.8,0.3-2,2.7-1.8,4.5c0.9,8.4,1.8,16.9,5.3,24.5    c4.3,9.4,12,16.8,16.6,26.1C798.2,255.3,799.2,258.4,798.5,261.3z"></path>
		<path fill="#A7EAA7" d="M798.5,261.3c-0.9,3.5-4,6-7.1,7.8c-1.2,0.7-2.4,1.6-3.6,2.4c-1.5,0.1-2.5-0.9-4-2.1    c-4.2-3.2-8-6.8-11.4-10.8c-4.6-5.6-8.2-12.3-9-19.6c-1.1-10,3-19.7,4.5-29.7c0.4-2.7,0.6-5.4,1.4-8c0.5-2,1.6-3.8,3-5.3    c1.7-0.2,3.3,0.3,4.6,1.4c-1.8,0.3-2,2.7-1.8,4.5c0.9,8.4,1.8,16.9,5.3,24.5c4.3,9.4,12,16.8,16.6,26.1    C798.2,255.3,799.2,258.4,798.5,261.3z"></path>
		<path fill="#7FE57F" d="M864.6,247.7c-0.6,1-1.2,2.1-1.7,3.2c-3.4,6.9-8.8,12.5-15.4,16.2l-0.8,0.4c-4.7,2.4-10,3.9-14,7.3    c-3.4,2.8-5.6,6.8-7.7,10.7c-2.1,3.9-4,8-7.1,11.1c-3.1,3.2-7.5,5.4-11.8,4.8c-3.5-0.6-6.3-3.2-7.2-6.6c0-0.1-0.1-0.2-0.1-0.4    c-1.7-2.8-2.7-5.9-3.1-9.2c-0.6-5,1-10,4.3-13.9c3.3-3.7,8.2-5.5,12.9-6.9c9.4-2.7,19.3-4,28.8-6.4    C849.9,256,858.1,252.9,864.6,247.7z"></path>
		<path fill="#78D678" d="M847.5,267.1l-0.8,0.4c-4.7,2.4-10,3.9-14,7.3c-3.4,2.8-5.6,6.8-7.7,10.7c-2.1,3.9-4,8-7.1,11.1    c-3.1,3.2-7.5,5.4-11.8,4.8c-3.5-0.6-6.3-3.2-7.2-6.6c-0.5-5,1.1-9.9,4.3-13.7c3.3-3.6,8.2-5.5,12.9-6.9c9.4-2.7,19.3-4,28.8-6.4    C845.8,267.6,846.6,267.3,847.5,267.1z"></path>
		<rect x="512.9" y="65.8" fill="#7FE57F" width="42.9" height="76.6"></rect>
		<rect x="518.5" y="72.6" fill="#FFFFFF" width="31.7" height="63.1"></rect>
		<polygon opacity="0.44" fill="#E3F5F9" enable-background="new    " points="550.2,104 518.8,72.6 529.7,72.6 550.2,93.1   "></polygon>
		<polygon opacity="0.44" fill="#E3F5F9" enable-background="new    " points="550.2,112.7 518.5,81 518.5,77.7 550.2,109.4   "></polygon>
		<polygon opacity="0.44" fill="#E3F5F9" enable-background="new    " points="550.2,135.7 547.3,135.7 518.5,106.9 518.5,103.6     550.2,135.3   "></polygon>
		<rect x="751.6" y="70" fill="#7FE57F" width="42.9" height="76.6"></rect>
		<rect x="757.3" y="76.7" fill="#FFFFFF" width="31.7" height="63.1"></rect>
		<polygon opacity="0.44" fill="#E3F5F9" enable-background="new    " points="788.9,108.1 757.6,76.7 768.5,76.7 788.9,97.2   "></polygon>
		<polygon opacity="0.44" fill="#E3F5F9" enable-background="new    " points="788.9,116.9 757.3,85.2 757.3,81.9 788.9,113.6   "></polygon>
		<polygon opacity="0.44" fill="#E3F5F9" enable-background="new    " points="788.9,139.8 786,139.8 757.3,111 757.3,107.8     788.9,139.4   "></polygon>
		<rect x="504" y="216.7" fill="#7FE57F" width="96.8" height="3.7"></rect>
		<rect x="504" y="243.2" fill="#7FE57F" width="96.8" height="3.8"></rect>
		<rect x="504" y="285.8" fill="#7FE57F" width="96.8" height="3.8"></rect>
		<rect x="504" y="324.7" fill="#7FE57F" width="96.8" height="7.6"></rect>
		<rect x="505.6" y="257" fill="#7FE57F" width="5.5" height="28.8"></rect>
		
			<rect x="513.4" y="257" transform="matrix(0.9725 -0.2329 0.2329 0.9725 -49.0189 127.6731)" fill="#7FE57F" width="5.5" height="28.8"></rect>
		<path fill="#7FE57F" d="M589.5,199.3c-0.6-0.5-2.7,10.4-2.7,10.4s4-24.3,1.1-23.9c-2.1,0.3-4,12.4-4.9,19.3    c0.9-7.5,2.3-21.3,0.4-20.8c-2.6,0.7-3.2,25.4-3.2,25.4s0.3-16.2-1.3-15.1c-0.6,0.4-0.7,2.5-0.7,5.1c-0.6-6.8-1.4-14.5-2.3-13.9    c-1.6,1,1,23.9,1,23.9l-4.2-16.6c-2.5-0.7,2.3,16.6,2.3,16.6l13.1,0.2C588.1,209.8,590.1,199.8,589.5,199.3z"></path>
		<path fill="#7FE57F" d="M592.1,212.8c0,1.7-1.4,3.2-3.2,3.2l0,0h-16.2c-1.8,0.1-3.2-1.3-3.3-3c-0.1-1.8,1.3-3.2,3-3.3    c0.1,0,0.2,0,0.3,0h16.2C590.7,209.6,592.1,211.1,592.1,212.8L592.1,212.8z"></path>
		<path fill="#7FE57F" d="M592.1,212.8c0,1.7-1.4,3.2-3.2,3.2l0,0h-14.4c-1.8,0-3.2-1.4-3.2-3.2c0-1.3,0.8-2.5,2-2.9    c0.4-0.1,0.8-0.2,1.2-0.2h14.3C590.7,209.6,592.1,211.1,592.1,212.8L592.1,212.8z"></path>
		<path fill="#7FE57F" d="M590.6,213c0,0.8-0.3,1.6-0.9,2.2c-0.3,0.3-0.7,0.6-1.1,0.7h-14c-1.8,0-3.2-1.4-3.2-3.2    c0-1.3,0.8-2.5,2-2.9h14C589.1,209.9,590.5,211.3,590.6,213z"></path>
		<rect x="524.6" y="280.8" fill="#7FE57F" width="33.2" height="5.7"></rect>
		<rect x="501" y="208" fill="#7FE57F" width="3" height="139.1"></rect>
		<rect x="597.8" y="208" fill="#7FE57F" width="3" height="139.1"></rect>
		<path fill="#7FE57F" d="M527.3,317.5c0.1,0,0.1,0.1,0.1,0.2s-0.1,0.1-0.1,0.1c-6.5,0.8-13,0.8-19.5,0c-0.1,0-0.1-0.1-0.1-0.2    s0.1-0.1,0.1-0.1C514.2,316.7,520.8,316.7,527.3,317.5z"></path>
		<path fill="#7FE57F" d="M528,318.5c-1.9,3.6-5.5,5.9-9.6,6h-1.3c-4.2,0-8.1-2.3-10-6c-0.1-0.1-0.1-0.2-0.1-0.3    c0-0.4,0.3-0.7,0.7-0.7l0,0l1.4,0.1c3.2,0.3,6,0.4,8.7,0.3c3.2,0,6.2-0.1,9.8-0.4C528,317.8,528.1,318.1,528,318.5z"></path>
		<path fill="#7FE57F" d="M528,318.5c-2.4,5.2-8.7,7.5-13.9,5.1c-2.2-1-4-2.8-5.1-5.1c-0.1-0.1-0.1-0.2-0.1-0.3    c0-0.2,0.1-0.4,0.3-0.6c3.2,0.3,6,0.4,8.7,0.3c3.2,0,6.2-0.1,9.8-0.4C528,317.8,528.1,318.2,528,318.5z"></path>
		<path fill="#7FE57F" d="M518.9,317.4c-0.2-2.6-1.1-6.8,0.5-9.2s-0.7-3.6,1.6-7.8c1.4-2.4,2.2-5.1,2.4-7.9c0.2-1.6,2.4,5.5,0.9,7    c-1.5,1.6-2.9,3-2.9,5.3s-1.4,12.6-1.4,12.6H518.9z"></path>
		<path fill="#7FE57F" d="M520.4,316.9c0.5-0.9,1.5-1.7,1.5-3.7c0.1-1.7,0.1-3.3,0-5c-0.2-2-0.9-2.6-0.7-5.7s1.5-6,0.4-7.6    c0,0-0.4,4.2-1.3,6c-0.8,1.7,0,3.3,0,4.7c0,1.4,1.4,2.4,0.6,4.9c-0.7,2.3-1.2,4.6-1.6,7h1L520.4,316.9z"></path>
		<path fill="#7FE57F" d="M515,313.2c-1.7-1.8-1.3-6.3-1.4-8.2c-0.2-2.2-0.7-3-0.4-5.1s-1.3-6.2-1.3-6.2c-0.3,1.6-0.4,3.2-0.3,4.8    c0.1,2.9,0.8,5.5,0.9,9.4c0.1,3.9,2.4,9.3,2.4,9.3l1.3,0.3C516.4,315.9,516,314.4,515,313.2z"></path>
		<path fill="#7FE57F" d="M515.8,317.4c-0.1-2-0.8-5.5,0.4-7.4s-0.5-2.9,1.2-6.2c1-1.9,1.6-4.1,1.7-6.3c0.1-1.2,1.8,4.3,0.7,5.6    c-1.1,1.3-2.2,2.4-2.1,4.2c0.1,1.8-1.1,10-1.1,10L515.8,317.4L515.8,317.4z"></path>
		<path fill="#7FE57F" d="M516.4,317c-0.8-0.8-2.7-1.4-2.7-3.2s-0.4-2.5,0-4.3s1.6-2.2,1.3-4.8c-0.3-2.7-2.6-5.1-0.8-6.5    c0,0,0.7,3.6,2.2,5.1c1.4,1.4,0,2.8,0,4s-2.6,2-1.1,4.2c1.1,1.9,2.1,3.9,2.8,5.9h-1.8L516.4,317z"></path>
		<path fill="#7FE57F" d="M514,315.1c-1.9-0.7-1.5-3.5-1.8-4.5c-0.3-1.3-0.9-1.6-0.6-2.9s-1.6-3.4-1.6-3.4c-0.2,0.9-0.3,1.9-0.2,2.9    c0.2,1.7,1,3.1,1.2,5.4s2.9,5,2.9,5l1.4-0.1C515.4,317.3,515.9,315.8,514,315.1z"></path>
		<path fill="#7FE57F" d="M521.3,315.1c1.8-1,1-3.6,1.1-4.8c0.1-1.3,0.6-1.7,0.1-3c-0.6-1.2,1-3.6,1-3.6c0.4,0.9,0.6,1.8,0.6,2.8    c0.1,1.7-0.5,3.2-0.4,5.5c0.2,2.3-2.1,5.3-2.1,5.3l-1.4,0.1C520.2,317.5,519.5,316,521.3,315.1z"></path>
	</g>
	<g id="Layer_3">
		<ellipse opacity="0.44" fill="#B7D0D2" enable-background="new    " cx="41.7" cy="389.2" rx="34.3" ry="3.7"></ellipse>
		<path fill="#7FE57F" d="M7.7,332.1c0,1.6,0.1,3.2,0.2,4.9c3.9,46.3,6.6,54.2,34.5,54.2c26.7,0,33.4-9.8,34.5-54.2    c0-1.7,0-3.3,0-4.9H7.7z"></path>
		<g>
			<g>
				<defs>
					<path id="SVGID_1_-9" d="M7.7,332.1c0,1.6,0.1,3.2,0.2,4.9c3.9,46.3,6.6,54.2,34.5,54.2c26.7,0,33.4-9.8,34.5-54.2       c0-1.7,0-3.3,0-4.9H7.7z"></path>
				</defs>
				<clipPath id="SVGID_2_-7">
					<use xlink:href="#SVGID_1_-9" overflow="visible"></use>
				</clipPath>
				<g clip-path="url(#SVGID_2_-7)">
					<rect x="-0.3" y="312" fill="#78D678" width="89.3" height="88.9"></rect>
					<path fill="#7FE57F" d="M44,366.2L44,366.2c-1.9,0-3.5-1.6-3.5-3.5c0,0,1.6-20,3.5-20l0,0c1.9,0,3.5,20,3.5,20       C47.5,364.7,45.9,366.2,44,366.2z"></path>
					<path fill="#7FE57F" d="M28.8,365.1L28.8,365.1c-1.4,0.1-2.6-1-2.6-2.4c0,0,0.2-19.9,1.6-20l0,0c1.4-0.1,3.4,19.7,3.4,19.7       C31.2,363.8,30.2,365,28.8,365.1z"></path>
					<path fill="#7FE57F" d="M18.2,363.4L18.2,363.4c-1,0-1.8-0.8-1.9-1.8c0,0,0-21.3,1-21.4l0,0c1,0,2.6,21.2,2.6,21.2       C20,362.5,19.2,363.3,18.2,363.4L18.2,363.4z"></path>
					<path fill="#7FE57F" d="M56.5,365.1L56.5,365.1c1.4,0.1,2.6-1,2.6-2.4c0,0-0.2-19.9-1.6-20l0,0c-1.4-0.1-3.4,19.7-3.4,19.7       C54,363.8,55.1,365,56.5,365.1z"></path>
					<path fill="#7FE57F" d="M67.1,363.4L67.1,363.4c1,0,1.9-0.7,1.9-1.8c0,0,0-21.3-1-21.4l0,0c-1,0-2.7,21.2-2.7,21.2       C65.3,362.5,66.1,363.3,67.1,363.4L67.1,363.4z"></path>
				</g>
			</g>
		</g>
		<path fill="#A9C9BC" d="M7.6,332.2c0-4.5,17.9-6.9,34.8-6.9s34.8,2.4,34.8,6.9s-17.9,6.9-34.8,6.9S7.6,336.7,7.6,332.2z     M8.6,332.2c0,2.8,13.9,5.9,33.8,5.9s33.8-3.1,33.8-5.9s-13.9-5.9-33.8-5.9S8.6,329.4,8.6,332.2z"></path>
		<path fill="#92E892" d="M7,332.2c0-6,23.2-7.6,35.4-7.6s35.4,1.6,35.4,7.6s-23.1,7.6-35.4,7.6S7,338.2,7,332.2z M9.3,332.2    c0,1.8,11.7,5.3,33.2,5.3s33.2-3.5,33.2-5.3s-11.7-5.3-33.2-5.3S9.3,330.4,9.3,332.2z"></path>
		<path fill="#63B763" d="M76.7,332.2c0,3.6-15.4,6.4-34.3,6.4s-34.3-2.9-34.3-6.4s15.4-6.4,34.3-6.4S76.7,328.7,76.7,332.2z"></path>
		<g>
			<g>
				<defs>
					<ellipse id="SVGID_3_" cx="42.4" cy="332.2" rx="34.3" ry="6.4"></ellipse>
				</defs>
				<clipPath id="SVGID_4_-8">
					<use xlink:href="#SVGID_3_" overflow="visible"></use>
				</clipPath>
				<g clip-path="url(#SVGID_4_-8)">
					<path fill="#548E54" d="M72.3,336.4c0,3.1-13.4,5.6-29.9,5.6s-29.9-2.5-29.9-5.6s13.4-5.6,29.9-5.6S72.3,333.3,72.3,336.4z"></path>
				</g>
			</g>
		</g>
		<path fill="#63B763" d="M45.4,333.5c-1.9-4-4.6-7.7-5.6-12.1c-3.2-13.8,0.9-37.5-12.2-46.5l-0.2,0.2c12.9,11.2,8.4,31.4,11.9,46.4    c1,4.4,3.7,8.2,5.8,12.1"></path>
		<path fill="#63B763" d="M44.8,333.9l0.7-0.4l0,0l0.3-0.1c-0.6-1.4-1.4-2.7-2.1-4c-1.4-2.5-2.9-5.2-3.5-8.1    c-1-4.2-1.3-9.2-1.6-14.6c-0.7-12.1-1.4-25.8-10.8-32.2c-0.2-0.1-0.4-0.1-0.5,0.1l-0.2,0.2c-0.1,0.2-0.1,0.4,0,0.6    c8.7,7.6,9.4,19.4,10.1,30.8c0.3,5.5,0.6,10.6,1.7,15.4c0.8,3.4,2.5,6.4,4.2,9.3C43.7,331.9,44.2,332.9,44.8,333.9z"></path>
		<path fill="#63B763" d="M72.6,298.8c-11,7.5-29.9,20.9-27.1,36.2h0.2c-2.3-15.2,16.3-28.3,27-36"></path>
		<path fill="#63B763" d="M45.5,335.4L45.5,335.4h0.3c0.1,0,0.2-0.1,0.3-0.2s0.1-0.2,0.1-0.3c-2.3-14.7,15.6-27.5,26.3-35.2l0.5-0.4    l-0.6-0.8c-9.8,6.7-30.2,20.5-27.3,36.6C45.2,335.3,45.3,335.4,45.5,335.4z"></path>
		<path fill="#368736" d="M47.8,268c-6.8,13.5-10,26.5-7.6,41.6c0.8,4.9,3.2,9.2,4.5,13.9c0.8,3.4,1.3,6.9,1.3,10.3h0.1    c0.2-3.5-0.1-7.1-0.9-10.5c-1.3-4.7-3.7-8.9-4.5-13.8c-2.6-14.6,1-28.3,7.2-41.4"></path>
		<path fill="#368736" d="M46,334.2L46,334.2c0.3,0,0.5-0.2,0.5-0.4c0.2-3.6-0.1-7.2-0.9-10.6c-0.6-2-1.2-3.9-2-5.9    c-1.1-2.5-1.9-5.2-2.5-7.9c-2.3-13,0-26.1,7.2-41.2l-0.2-0.1l0,0l-0.7-0.4c-7.5,15-9.8,27.9-7.6,41.9c0.6,2.8,1.4,5.6,2.6,8.3    c0.8,1.8,1.4,3.7,2,5.6c0.8,3.4,1.3,6.8,1.3,10.2c0,0.1,0,0.2,0.1,0.3C45.8,334.2,45.9,334.2,46,334.2z"></path>
		<path fill="#368736" d="M31.1,317.6c5.9,4.7,10.1,11.8,14.4,17.9l0,0c-2.6-5.1-6.5-10-10.3-14.1c-1.3-1.4-2.3-2.9-3.9-3.9"></path>
		<path fill="#368736" d="M45.4,335.9c0.2,0,0.4-0.2,0.4-0.4c0-0.1,0-0.1,0-0.2c-2.6-4.9-5.9-9.5-9.8-13.5c-0.4-0.5-0.9-1-1.3-1.4    l-0.4-0.4c-0.8-1.1-1.8-2-2.9-2.8l-0.2,0.3l-0.4,0.5c1.2,0.9,2.3,1.9,3.3,3l0.7,0.7l0.6,0.7c2.6,3.1,5.1,6.4,7.3,9.9    c0.8,1.2,1.6,2.4,2.4,3.5C45.2,335.8,45.3,335.9,45.4,335.9z"></path>
		<path fill="#368736" d="M15.5,308.5c10.3,3.9,15.1,10.3,21.3,18.8c2.1,2.9,4.3,5.3,6,8.4l0,0c-1.3-3.4-3.7-5.6-5.8-8.6    c-1.2-1.7-2.2-3.5-3.4-5.2c-4.5-6.3-10.8-11.1-18.1-13.7"></path>
		<path fill="#368736" d="M42.8,336.2c0.1,0,0.1,0,0.2,0c0.2-0.1,0.3-0.3,0.2-0.5c-1-2.3-2.3-4.4-4-6.3c-0.6-0.7-1.2-1.5-1.8-2.4    s-1.2-1.7-1.7-2.6s-1.1-1.8-1.7-2.6c-4.5-6.4-11-11.2-18.4-13.8l-0.3,0.8l0,0l-0.1,0.1c10.3,3.9,15.1,10.4,21.1,18.7    c0.7,0.9,1.3,1.8,2,2.6c1.5,1.8,2.8,3.7,4,5.7C42.5,336.1,42.7,336.2,42.8,336.2z"></path>
		<path fill="#368736" d="M47.1,306.1c-2.1,9.1-4.9,18.4-2.6,27.6h0.1c-1.7-9.3,0.9-18.5,2.9-27.6"></path>
		<path fill="#368736" d="M44.5,334.2L44.5,334.2c0.3,0,0.5-0.3,0.4-0.5c-1.5-8,0.3-16,2.1-23.8c0.3-1.2,0.5-2.4,0.8-3.6l-0.8-0.2    l0,0l-0.3-0.1c-0.2,1-0.5,2.1-0.7,3.1c-1.9,8.1-3.9,16.4-1.9,24.8C44.2,334.1,44.3,334.2,44.5,334.2z"></path>
		<path fill="#FF4C07" d="M39.1,260.5c-0.7-0.9-0.9-1.7-0.7-2.1c0.1-0.2,0.3-0.2,0.6-0.2h0.1c1.3,0.4,2.6,1.1,3.6,2    c1,0.8,2.2,2.1,2.2,2.7c0,0.2-0.1,0.4-0.4,0.4l0,0l0,0c-0.4,0.1-0.9,0.1-1.3,0C41.6,263,40.1,261.9,39.1,260.5z M44.6,263.3    c0.2-0.1,0.3-0.2,0.3-0.3c0-1.1-3.8-4.3-5.7-4.7H39c-0.3,0-0.4,0-0.5,0.2c-0.2,0.3,0.1,1.1,0.7,2    C40.5,262.1,42.7,263.8,44.6,263.3L44.6,263.3z"></path>
		<path fill="#63B763" d="M33.9,314c0,0,2.1-3.2,3.8,0.6c1.7,3.9-4.5,6-4.9,8.6c0,0-3-2.1-5.4-3.5s-1.3-5.9,1.9-7.2    C30.9,311.7,32.9,312.3,33.9,314z"></path>
		<path fill="#63B763" d="M47.6,299.9c0,0,2.1-5,7.5-1.9s5.5,9,1.7,12.2s-6.8,3.3-7.2,6.1c-0.9-2.5-3-4.4-5.5-5    c-4.3-0.9-4.2-3.6-4.6-4.6c0,0,2.9-1.3,4.5-0.4c-0.8-1.6-2.5-2.6-4.3-2.4C39.6,303.9,41.3,296.3,47.6,299.9z"></path>
		<path fill="#368736" d="M76.1,308.8c5.3,3.1,4.5,0.9,6.2,2.1c3.5,2.4,1.1,1.6,5.6,3.7s7,5.6,7.4,7.4c0,0,6-6,7.8-9.6    s2.6-4.9,1.5-6.4c-1.1-1.6-6.1-5.1-10.3-6.3c-4.2-1.2-7.4-2.8-6-3.3s6.8,1.1,9.5,2.8c2.6,1.6,6.9,4.5,7.9,6.3    c0.8-5.5-0.3-11-3.2-15.8c-4.8-7.8-10.1-10-17.3-4.9c-5,3.5-0.2,7.6-2.6,7.7c-2.4,0-0.2-1.7-2.3-4.8s-7.6-3.1-9.8,3    C68.3,296.8,70.8,305.7,76.1,308.8z M92,290.9c2.2-0.8,4.5-0.7,6.6,0.3c2,0.9,0.2,3.6-2.1,2.2C95.1,292.5,93.6,291.7,92,290.9    L92,290.9z M82.3,305.4c0.8-3.3,1.2-7.3,2.3-4.9c1.1,2.4,2.8,10.9,0.7,11S81.8,307.9,82.3,305.4L82.3,305.4z"></path>
		<path fill="#63B763" d="M17.5,304.7c0,0,3.8-3,6.2,0.7s-0.8,8.6-4.5,10.8c0,0-1.7-2.8-4.2-2.5c0,0,2.1,2,2.4,4    c0,0-2.8-0.9-3.4,1.1l-2.3-2.2l0.4,3.2c0,0-6.8,3.1-8,7.6c0,0-5.4-5.7-1.5-16.8C6.7,299.7,16.2,298.1,17.5,304.7z"></path>
		<path fill="#7FE57F" d="M47.9,300.6c1.6,4,2.6,7.2,2,11.5l0,0c0.9-4.3-0.2-7.6-1.9-11.6"></path>
		<path fill="#7FE57F" d="M49.9,312.2L49.9,312.2c-0.1,0-0.2-0.1-0.1-0.1c0.5-4.2-0.3-7.2-2-11.4l0.1-0.1l0,0l0.2-0.1    c1.7,3.9,2.9,7.2,1.9,11.6C50.1,312.2,50,312.3,49.9,312.2L49.9,312.2z M50.2,308.9c0-1.7-0.4-3.4-0.9-5    C49.8,305.5,50.1,307.2,50.2,308.9z"></path>
		<path fill="#7FE57F" d="M16.3,305.3c-7.4,3.8-11,8.9-10.9,17.4l0,0c0.4-8.4,3.5-13.2,10.9-17.2"></path>
		<path fill="#7FE57F" d="M5.5,322.8l-0.1-0.1c-0.2-8.2,3.1-13.5,10.9-17.5l0.1,0.2l0,0l0.1,0.2C9,309.6,6,314.4,5.5,322.8    L5.5,322.8L5.5,322.8z M5.8,318.7c1-5.4,3.6-9.1,8.6-12.2C9.3,309.6,6.6,313.4,5.8,318.7z"></path>
		<path fill="#63B763" d="M47.5,252.4c0,0-3.6-7.6,3.1-8.5c4.2-0.4,8.5,0.5,12.1,2.8c0,0-4.8-0.3-8.1,2.9c0,0,9.6-5.2,15.1,4.4    c0,0,5.1,2.8,6.2,8.2c-1.2-1-2.8-1.6-4.3-1.5c0,0,4.2,3.1,5,4.8l-0.2,3.3c0,0-7.8-7.2-12.6-7.4c0,0,9.8,4.2,11.3,10.2    c0,0-2.7,4.6-2.7,7.6c0,0-5.9-11.7-10.2-12.4c0,0,4.5,5.6,5.7,7.6l-4.3,2.1c0,0-1.1-5.9-4-9.7c-1.4-1.9-3-3.7-4.8-5.2    c0,0,4.3,9.4,6,11.5c0,0-8.5-0.3-16.5-7.9S34.8,247.5,47.5,252.4z"></path>
		<path fill="#7FE57F" d="M47.3,253.3c0.9,0.3,2.1,0.2,3,0.6c7.7,3.5,16.2,10.9,19.7,18.4l0,0c-2.6-6.7-8.1-10.8-13.7-14.9    c-1.8-1.3-4.3-3.6-6.6-4c-0.8-0.2-1.6-0.1-2.5-0.3"></path>
		<path fill="#7FE57F" d="M70.1,272.5L70.1,272.5c0.2-0.1,0.2-0.2,0.2-0.3c-1.9-4.9-5.2-8.4-9.4-11.7c-1.7-1.5-3.5-2.9-5.4-4.1l0,0    c-1.7-1.3-3.7-2.8-5.6-3.2c-0.4-0.1-0.9-0.1-1.3-0.2c-0.4,0-0.8-0.1-1.1-0.1l-0.1,0.4l0,0v0.1c0.4,0.1,0.9,0.2,1.3,0.2    c0.6,0,1.1,0.2,1.7,0.4c1.7,0.8,3.3,1.7,4.9,2.7l1.1,0.8c1.5,1.1,3,2.2,4.3,3.3c4,3.5,7.4,7.6,9.2,11.5c0,0.1,0.1,0.1,0.1,0.1    C70,272.5,70,272.5,70.1,272.5z"></path>
		<path opacity="0.62" fill="#108484" enable-background="new    " d="M84.6,294.9c-2.9,2.2-5.6,5-6.7,8.5l0,0    C79.2,300,81.8,297.2,84.6,294.9"></path>
		<path opacity="0.62" fill="#108484" enable-background="new    " d="M83,293.1c-3.8,0.1-9,1.8-9.8,6.1l0,0    C74.1,295,79.1,293.3,83,293.1"></path>
		<path opacity="0.62" fill="#108484" enable-background="new    " d="M83.3,294.2c-2.2,0.3-4,2-5.5,3.6l0,0    C79.4,296.3,81.1,294.5,83.3,294.2"></path>
		<g opacity="0.62">
			<path fill="#108484" d="M81.7,292.8c-1.9-1.5-4-2.6-6.7-2.5c-2.2,0.1-4.4,1.1-2.6,2.9l0,0c-1.8-1.9,0.4-2.7,2.6-2.8     C77.7,290.4,79.7,291.4,81.7,292.8"></path>
			<path fill="#108484" d="M72.4,293.3L72.4,293.3L72.4,293.3C72.4,293.2,72.4,293.2,72.4,293.3C72.4,293.2,72.4,293.2,72.4,293.3     c-0.6-0.7-0.8-1.2-0.6-1.6v-0.1c0.1-0.1,0.1-0.2,0.2-0.3c0.8-0.5,1.8-0.8,2.8-0.8h0.3c2.4,0.1,4.6,0.9,6.4,2.4l0,0l0,0l0.1-0.1     c-1.8-1.6-4.1-2.5-6.5-2.5H75c-1,0-2,0.3-2.9,0.9c-0.1,0.1-0.2,0.2-0.3,0.3l-0.1,0.1C71.6,292.1,71.8,292.7,72.4,293.3     L72.4,293.3z"></path>
		</g>
		<path fill="#368736" d="M1.1,282.9c0,0,1.2-2.7,5.1-5.3s11-8.3,14.5-4.3c-1.4,2.9-3.7,5.4-6.4,7.1c-3.1,1.7-5.2,4.9-5.5,8.4    c0,0,3.7,0.1,5.9,3s4.8,6.1,5,8c0,0,3.8-4,6.6-5.1s7.4-1.6,7.9-1.8s1-10.4-3.3-15.9c0,0,4.5,1.5,5.5,6c1.1,4.5-0.8,10-0.8,10    c1.3-1.2,2.6-2.4,4-3.4c1.4-1.1,2.7-2.3,4-3.6c0,0-2.9-9.8-8.5-14.1c0,0,8,0.5,9.4,11.6c0,0,8.4-12.5,3.5-21.3s-12.5-6.4-16.7,2.1    c0,0-4.7-10.2-14.6-9C6.7,256.5-0.8,265.6,1.1,282.9z M22,278.9c-0.3,1.5-4.9,9.8-6.5,7.5C13.9,284,22.2,277.8,22,278.9L22,278.9z     M11.9,265.9c3.5-0.9,6.3-3,6.5-1.1c0.4,3.4-3.9,4.3-7.6,5.1s-6.7,4.6-8,1.6S8.5,266.9,11.9,265.9z"></path>
		<path fill="#7FE57F" d="M31.2,265.2c-2.1,4.3-3.7,8.9-5.5,13.5c-2,5.3-4.3,10.4-5.1,15.9l0,0c2.5-10,6.5-20,10.8-29.3"></path>
		<path fill="#7FE57F" d="M20.6,294.8h0.1l0.1-0.1c2.7-10.8,7.1-21.3,10.7-29.3l-0.2-0.1l0,0l-0.4-0.2c-1.8,3.8-3.3,7.9-4.8,11.8    l-0.7,1.7c-0.3,0.9-0.7,1.8-1,2.7c-1.7,4.3-3.4,8.7-4.1,13.3C20.4,294.7,20.5,294.8,20.6,294.8L20.6,294.8z"></path>
		<path fill="#7FE57F" d="M25.7,280.6c0.6,4.2,0.6,8.6-0.2,12.8l0,0C26.4,289.2,26.5,284.8,25.7,280.6"></path>
		<path fill="#7FE57F" d="M25.6,293.4C25.5,293.4,25.5,293.4,25.6,293.4c0.7-4.3,0.8-8.6,0.1-12.8h0.1l0,0h0.1    C26.6,284.9,26.5,289.2,25.6,293.4C25.6,293.5,25.6,293.5,25.6,293.4L25.6,293.4z M26.2,287.8c0.1-2.3,0-4.6-0.4-6.8    C26.1,283.2,26.3,285.5,26.2,287.8L26.2,287.8z"></path>
		<path fill="#7FE57F" d="M26.9,276.4c1.7,4.9,3.3,10,2.7,15.3l0,0c0.6-4-0.2-8.4-1.4-12.1C27.9,278.6,27.6,277.2,26.9,276.4"></path>
		<path fill="#7FE57F" d="M29.6,291.8C29.6,291.8,29.5,291.7,29.6,291.8C29.6,291.7,29.6,291.7,29.6,291.8    c0.6-5.5-1.2-10.7-2.7-15.3l0,0l0,0l0,0l0,0H27l0,0l0,0l0,0c0.6,0.8,1,1.7,1.2,2.7l0.1,0.5C29.7,284.3,30.1,288.4,29.6,291.8    L29.6,291.8L29.6,291.8L29.6,291.8z M29.6,286.4c-0.3-2.3-0.8-4.6-1.4-6.8c-0.1-0.2-0.1-0.3-0.1-0.5c-0.2-0.8-0.5-1.6-0.9-2.3    C28.3,279.9,29.1,283.1,29.6,286.4L29.6,286.4z"></path>
		<g opacity="0.5">
			<path fill="#368736" d="M28,274c2.4,5.5,5.1,11.2,4.3,17.3l0,0C33.2,285.2,30.5,279.4,28,274"></path>
			<path fill="#368736" d="M32.3,291.4C32.4,291.4,32.4,291.3,32.3,291.4c0.9-5.9-1.6-11.5-4-16.8L28,274l0,0h-0.1l0.4,0.9     C30.7,280.1,33,285.5,32.3,291.4C32.3,291.3,32.3,291.3,32.3,291.4C32.3,291.3,32.3,291.3,32.3,291.4L32.3,291.4z"></path>
		</g>
		<path fill="#7FE57F" d="M28.7,271.9c0.6,1.2,1.1,2.4,1.5,3.6l0,0C29.9,274.2,29.3,273,28.7,271.9"></path>
		<path fill="#7FE57F" d="M30.2,275.6L30.2,275.6L30.2,275.6C30.2,275.6,30.2,275.5,30.2,275.6c-0.3-1.3-0.8-2.6-1.5-3.7l-0.1,0.1    l0,0l0,0c0.6,1.2,1.1,2.4,1.5,3.6C30.1,275.6,30.1,275.6,30.2,275.6L30.2,275.6z"></path>
		<path fill="#7FE57F" d="M29.7,269.9c4.6,4.9,9.2,10.9,9.2,17.9l0,0C38.9,280.9,34.4,274.6,29.7,269.9"></path>
		<path fill="#7FE57F" d="M38.9,287.9L38.9,287.9C39,287.9,39,287.9,38.9,287.9c0.1-5.9-3.1-11.9-9.2-18.1l-0.1,0.1l0,0l0,0    C33.9,274.5,38.8,280.6,38.9,287.9C38.8,287.9,38.8,287.9,38.9,287.9L38.9,287.9z"></path>
		<path fill="#7FE57F" d="M30.3,268.4c3,3,6,6.9,7.2,11.1l0,0C36.3,275.4,33.5,271.3,30.3,268.4"></path>
		<path fill="#7FE57F" d="M37.5,279.6L37.5,279.6C37.5,279.5,37.5,279.5,37.5,279.6L37.5,279.6L37.5,279.6    c-1.4-4.3-3.8-8.2-7.1-11.2l-0.1,0.2C32.3,270.5,36,274.7,37.5,279.6L37.5,279.6L37.5,279.6C37.4,279.5,37.5,279.6,37.5,279.6    L37.5,279.6z"></path>
		<path fill="#7FE57F" d="M30.8,266.9c3.1,1.5,5.9,3.6,8.2,6.2l0,0C36.6,270.5,34.1,268.3,30.8,266.9"></path>
		<path fill="#7FE57F" d="M39,273.2c-2.3-2.6-5.1-4.7-8.2-6.2v-0.1l0,0l0.1-0.1c2.8,1.2,5.3,3.2,8.2,6.3    C39.1,273.1,39.1,273.1,39,273.2L39,273.2L39,273.2C39,273.2,39,273.2,39,273.2L39,273.2z M34.6,269.1c-0.9-0.7-1.9-1.3-2.9-1.8    C32.7,267.9,33.7,268.5,34.6,269.1L34.6,269.1z"></path>
		<path fill="#7FE57F" d="M31,266.6c5.8-1.1,11.8,2.8,14,8.1l0,0C42.9,269.4,36.8,265.2,31,266.6"></path>
		<path fill="#7FE57F" d="M44.9,274.7L44.9,274.7c-1.1-2.7-3.1-4.9-5.6-6.4s-5.4-2.1-8.3-1.6v-0.2c2.9-0.6,6,0,8.5,1.6    c2.5,1.5,4.5,3.8,5.6,6.5v0.1l0,0l0,0H44.9L44.9,274.7z M32.9,266.4h0.6c2.1,0.1,4.1,0.7,5.8,1.8c0.3,0.2,0.7,0.4,1,0.7    c-0.3-0.2-0.7-0.5-1-0.7c-1.7-1.1-3.6-1.7-5.6-1.8C33.4,266.3,33.2,266.3,32.9,266.4z"></path>
		<path fill="#7FE57F" d="M31.3,265.8c3.8-2,7.6-1,10.7,1.7l0,0C38.9,264.7,34.9,263.5,31.3,265.8"></path>
		<path fill="#7FE57F" d="M42,267.5c-3.5-2.9-7.2-3.5-10.7-1.7v-0.1l0,0l-0.1-0.1c3.4-2,7.4-1.4,10.9,1.7l0,0l0,0l0,0 M42,267.5    L42,267.5L42,267.5L42,267.5z M38.6,265.3c-2-0.9-4.3-0.9-6.3,0c1.1-0.5,2.3-0.7,3.5-0.6C36.7,264.7,37.7,264.9,38.6,265.3z"></path>
		<path fill="#7FE57F" d="M31.4,265.2c4.1-3.3,9.2-3.1,12.5,1.3l0,0C40.7,261.9,35.3,261.7,31.4,265.2"></path>
		<path fill="#7FE57F" d="M43.9,266.5L43.9,266.5c-1.4-1.9-3.4-3.2-5.7-3.5c-2.5-0.2-4.9,0.6-6.8,2.2l-0.1-0.1l0,0l-0.1-0.1    c1.7-1.6,4-2.4,6.4-2.4c0.2,0,0.4,0,0.5,0c2.4,0.3,4.5,1.7,5.8,3.7C44,266.4,44,266.4,43.9,266.5L43.9,266.5L43.9,266.5    L43.9,266.5z M38.2,262.9c0.7,0.1,1.5,0.3,2.1,0.6C39.7,263.2,38.9,262.9,38.2,262.9c-2-0.2-3.9,0.2-5.5,1.3    c1.5-0.9,3.2-1.4,5-1.3C37.9,262.9,38,262.9,38.2,262.9z"></path>
		<path fill="#7FE57F" d="M22.7,286.3c-2.4,1.7-3.5,4.6-4.2,7.3l0,0C19.2,290.8,20.4,288.1,22.7,286.3"></path>
		<path fill="#7FE57F" d="M18.6,293.6L18.6,293.6L18.6,293.6c0.9-3.4,2.2-5.8,4.2-7.2l-0.1-0.2C20,288.1,19,291.3,18.6,293.6    C18.5,293.6,18.5,293.7,18.6,293.6C18.5,293.7,18.5,293.7,18.6,293.6L18.6,293.6z"></path>
		<path fill="#7FE57F" d="M23.6,283.4c-3,2-5.3,5-6.5,8.4l0,0C18.3,288.4,20.6,285.5,23.6,283.4"></path>
		<path fill="#7FE57F" d="M17.1,291.9L17.1,291.9C17.2,291.9,17.2,291.9,17.1,291.9c1.2-3.4,3.5-6.3,6.5-8.4l0,0l0,0l-0.1-0.1    C20.5,285.4,18.2,288.4,17.1,291.9L17.1,291.9L17.1,291.9L17.1,291.9z"></path>
		<path fill="#7FE57F" d="M25.4,280c-2.6,2.4-5.2,4.3-6.9,7.5l0,0C20.4,284.4,22.9,282.5,25.4,280"></path>
		<path fill="#7FE57F" d="M18.5,287.6L18.5,287.6C18.4,287.6,18.4,287.6,18.5,287.6c1.5-2.8,3.5-4.5,5.6-6.4    c0.4-0.4,0.9-0.8,1.3-1.2l0.1,0.1l0,0l0.1,0.1c-0.5,0.4-0.9,0.9-1.4,1.3C22.1,283.3,20.1,285,18.5,287.6L18.5,287.6L18.5,287.6    L18.5,287.6z M20.3,284.9c0.7-0.8,1.4-1.5,2.2-2.3C21.8,283.4,21,284.1,20.3,284.9L20.3,284.9z"></path>
		<path fill="#7FE57F" d="M26.2,277.6c-1.2,0.7-2.3,1.5-3.3,2.4l0,0C24,279.1,25.1,278.3,26.2,277.6"></path>
		<path fill="#7FE57F" d="M23,280.1L23,280.1c0.8-0.7,1.7-1.3,2.6-1.9l0.7-0.5l-0.1-0.1l0,0v-0.1l-0.4,0.3c-1,0.6-2,1.4-2.9,2.2    C22.9,280,22.9,280,23,280.1L23,280.1L23,280.1L23,280.1z"></path>
		<path fill="#7FE57F" d="M26.6,275.6c-5.2,0.8-8.6,3.4-11,8.2l0,0C18.1,279.1,21.4,276.5,26.6,275.6"></path>
		<path fill="#7FE57F" d="M15.6,283.8C15.6,283.8,15.6,283.7,15.6,283.8c2.4-4.9,5.8-7.5,11-8.3v0.1l0,0v0.1    c-5.1,0.8-8.4,3.3-10.9,8.1C15.7,283.8,15.7,283.8,15.6,283.8L15.6,283.8L15.6,283.8z M18.8,279.3c1.1-1.1,2.4-1.9,3.8-2.6    C21.2,277.3,19.9,278.2,18.8,279.3z"></path>
		<path fill="#7FE57F" d="M28.2,273.4c-1.7-2-7.5,1.7-8.9,2.5l0,0C21.5,274.7,25.4,271.8,28.2,273.4"></path>
		<path fill="#7FE57F" d="M19.2,276L19.2,276C19.2,276,19.2,275.9,19.2,276l0.4-0.3c0.6-0.4,1.6-1,2.7-1.5c0.7-0.4,1.4-0.7,2.1-0.9    c1.5-0.5,3-0.7,3.7,0.1l0,0l0,0l0,0H28l0,0l0,0l0,0c-1.2-0.5-2.6-0.5-3.7,0c-0.6,0.2-1.2,0.5-1.8,0.8c-0.7,0.4-1.4,0.7-2,1.1    C20.1,275.6,19.7,275.8,19.2,276L19.2,276C19.3,276.1,19.2,276,19.2,276L19.2,276z M26.4,272.9c0.4,0,0.9,0.1,1.3,0.2    c-0.3-0.2-0.6-0.2-0.9-0.2H26.4z"></path>
		<path fill="#7FE57F" d="M28.5,271.4c-2.9-4-12.7-2.3-15,1.2l0,0C15.9,269.2,25.5,267.5,28.5,271.4"></path>
		<path fill="#7FE57F" d="M13.6,272.7L13.6,272.7L13.6,272.7c1.4-1.9,5-3.3,8.6-3.4c2.8-0.1,5.1,0.7,6.2,2.2l0,0l0,0l0.1-0.1    c-1.1-1.6-3.5-2.4-6.4-2.3c-3.7,0.1-7.4,1.6-8.7,3.6v0.1l0,0L13.6,272.7z"></path>
		<path fill="#7FE57F" d="M29,269.3c-1.9-1.3-4.2-1.9-6.5-1.7l0,0C25,267.6,26.7,267.9,29,269.3"></path>
		<path fill="#7FE57F" d="M28.9,269.4L28.9,269.4L28.9,269.4l0.1-0.1c-2.3-1.5-4.1-1.8-6.6-1.7c0,0-0.1,0-0.1,0.1l0,0l0,0l0,0l0,0    C25,267.7,26.7,268,28.9,269.4z"></path>
		<path fill="#7FE57F" d="M30.4,265.8c-5.9-5.1-18.2-6.4-24.2-1.2l0,0C12.4,259.4,24.3,260.8,30.4,265.8"></path>
		<path fill="#7FE57F" d="M6.2,264.7L6.2,264.7c2.8-2.3,7-3.5,11.6-3.2h0.5c4.6,0.3,9.1,2,12,4.4l0,0l0,0l0.1-0.1    c-5.8-5-18.2-6.5-24.3-1.2C6.1,264.6,6.1,264.6,6.2,264.7C6.1,264.7,6.2,264.7,6.2,264.7z"></path>
		<g opacity="0.5">
			<path fill="#368736" d="M30.8,265.4c-0.8-1.3-1.8-2.4-3-3.4c-4.5-3.5-13.6-5.9-18.4-1.9l0,0c4.9-3.9,13.8-1.6,18.3,1.9     C28.9,263.1,29.9,264.2,30.8,265.4"></path>
			<path fill="#368736" d="M30.8,265.5L30.8,265.5L30.8,265.5L30.8,265.5l-0.3-0.6c-0.7-1.1-1.6-2.1-2.6-2.9c-2.7-2-5.8-3.3-9.1-3.8     c-3.8-0.6-7.2,0.1-9.4,1.9l0,0c0,0,0,0,0,0.1c0,0,0,0,0.1,0c5.1-4,14-1.4,18.3,1.9c1,0.8,1.8,1.8,2.5,2.8L30.8,265.5z"></path>
		</g>
		<path fill="#7FE57F" d="M31.4,265.2c2.4-4.8,7.7-6.3,12.5-4.1c1.7,0.7,2.9,2.1,3.3,3.9l0,0c-0.5-2.2-1.9-3.4-3.9-4.3    C38.8,258.7,33.5,260.7,31.4,265.2"></path>
		<path fill="#7FE57F" d="M31.3,265.1c2.1-4.5,7.5-6.5,12-4.5c2.3,1,3.5,2.3,3.9,4.3v0.1l0,0h-0.1l0,0c-0.4-1.7-1.6-3.2-3.3-3.8    c-2.2-1.1-4.7-1.3-7.1-0.6c-2.3,0.7-4.3,2.4-5.3,4.6L31.3,265.1z M36.3,260.6l0.4-0.2c2.4-0.7,4.9-0.5,7.2,0.6    c0.1,0,0.2,0.1,0.3,0.2c-0.3-0.2-0.6-0.3-1-0.5c-1-0.4-2.1-0.7-3.2-0.7C38.8,259.9,37.5,260.1,36.3,260.6z"></path>
	</g>
	<g id="Layer_2_1_">
		<path opacity="0.44" fill="#B7D0D2" enable-background="new    " d="M251.5,404.3l25.5,10.3l-1.5-5.8c0,0-9.8-5.1-14.3-7.1    l4.9-1.3l-28.8-22.8l-117.9,28.1l30.5,25.7l51.5-13.7l11.8,6.7l22.8-15.9l0,0L251.5,404.3z"></path>
		<line fill="none" stroke="#040607" stroke-width="0.3914" stroke-miterlimit="10" x1="168.6" y1="193.3" x2="164.3" y2="192.8"></line>
		<path fill="#FFCFDC" d="M224.9,398.6l-1.1,14.8l-0.6,3.6l-3.6,0.5c-2.1,0.3-7.5-0.8-7.5-0.8l-1.4-21.2L224.9,398.6z"></path>
		<path fill="#FFCFDC" d="M263.2,390.2l11.8,9l2.7,2.5l-1.5,3.3c-0.9,1.9-4.7,5.8-4.7,5.8l-18.6-10.3L263.2,390.2z"></path>
		<path fill="#6B5947" d="M251.4,357c0,0,10.6,32.8,12.4,38.2c1.7,5.4,2,6.2,3.8,6s2-2.5,0.8-7.5s-9.4-39.1-9.4-39.1"></path>
		<path fill="#FDBD4B" d="M260.2,354c0,0,9.8-2.4,14.3-18.3c4.6-15.9,6.4-29.6,2.2-37.3c-4.2-7.6-6.3-9.6-8.5-8.4    c1.4-3.4-0.2-6.9-2.7-10.1c-2.6-3.2-8-9.8-11.1-6.1c1.1-3.5,0.2-10.2-9.3-14.3c-8.4-4.1-12.2-6-14.7-7c-2.4-1.1-6.1-0.9-7.9,1.4    c0-4.1-5-9.2-16.5-11c-7.3-1.4-27.6-4-27.6-4s-57.5-4.2-79.9,8.7c-2.6,1.6-4.3,2.4-4.5,3.5c-3.9,1-10.1,8.1-11,18.3    c-0.8,10.2,56.4,89.6,56.4,89.6s-6.7,1.4,5.7,5.7s22.4,6.7,22.4,6.7l13,1.6l17.3-6.3c0,0,42.9-15.9,45.2-16.3    C245.1,349.9,260.2,354,260.2,354z"></path>
		<path fill="#EC9125" d="M260.2,354c-3.5,2.4-81.2,24-81.2,24s-8.7,1.2-10.1,0.8c-0.4-0.1-0.8-0.3-1.2-0.5    c-1.2-0.7-2.4-1.5-3.5-2.4c-1.6-1.2-3.1-5.1-3.1-5.1l-4.3-3.5l-6.1-22l1-12l5.9-2.9l15.1-3.1l29.1-9.5l8.6-4.7l16.9-6.4l27.7,10.9    c4.2,1.6,7.2,5.2,8.1,9.7c0.9,5,2,11,2.1,12.8C265.3,343.6,263.6,351.5,260.2,354z"></path>
		<path fill="#FDBD4B" d="M260.2,354c-3.5,2.4-81.2,24-81.2,24s-8.7,1.2-10.1,0.8c-0.4-0.1-0.8-0.3-1.2-0.5c-1.1-3-5-13.6-9.4-27.4    c40-3.9,82.3-21.2,97.5-27.9c2.6-1.1,5.6,0,6.8,2.6c0.2,0.4,0.3,0.7,0.3,1.1c0.9,5.1,2.1,11.6,2.2,13.5    C265.3,343.6,263.6,351.5,260.2,354z"></path>
		<path fill="#443737" d="M274.2,395.1c-0.7,3.3-3.3,6.6-5.5,8.9l-0.6,0.6c-1,1-2,1.9-3,2.7c-5.5-2.4-53.6-32.6-69.8-58.8    c-4.3-1.8-37.9-3.9-64.7-21c-7.3-20.8,7.8-22.8,7.8-22.8s10.1-17.7,39.1,0.6c0,0,28.9,14.1,37.1,22.4    C222.8,336,267.2,391.4,274.2,395.1z"></path>
		<path fill="#EC9125" d="M268.1,290c-1.7,2-3.2,4.1-4.5,6.3c-1.3,2.2-2.4,4.5-3.4,6.9s-1.8,4.8-2.4,7.2c-0.7,2.5-1.2,5-1.9,7.5    c0-3.9,0.5-7.9,1.6-11.7c0.2-0.6,0.4-1.3,0.6-1.9s0.4-1.2,0.7-1.9c1-2.5,2.3-4.8,3.8-6.9C264.1,293.4,266,291.5,268.1,290z"></path>
		<path fill="#EC9125" d="M254.2,273.8c-2.7,6.4-5.2,12.7-7.4,19.2c-1.1,3.2-2.1,6.5-2.9,9.8c-0.9,3.3-1.5,6.7-2,10.1    c-0.1-3.5,0.1-6.9,0.8-10.3s1.6-6.8,2.7-10c1.1-3.3,2.4-6.5,3.9-9.6C250.7,279.7,252.3,276.7,254.2,273.8z"></path>
		<path fill="#EC9125" d="M222.3,253.8c-0.6,2.1-1.3,4.2-1.9,6.2s-1.2,4.2-1.8,6.3c-1.1,4.2-2.2,8.4-3.1,12.6l-0.7,3.2l-0.6,3.2    c-0.2,1.1-0.4,2.1-0.6,3.2c-0.2,1.1-0.4,2.1-0.5,3.2c-0.3,2.2-0.6,4.3-0.7,6.5c-0.3,2.2-0.3,4.3-0.5,6.5c-0.4-4.4-0.4-8.8,0-13.1    c0.4-4.4,1.1-8.7,2-13s2.1-8.5,3.5-12.6C218.8,261.8,220.4,257.8,222.3,253.8z"></path>
		<path fill="#EC9125" d="M93.8,251c3.7,0.3,7.2,1.5,10.3,3.5c3.1,2,5.9,4.6,8.1,7.6l1.6,2.3l1.4,2.4l0.7,1.2l0.6,1.3    c0.4,0.8,0.7,1.7,1.1,2.5c0.7,1.7,1.1,3.5,1.7,5.2c0.4,1.8,0.7,3.6,1.1,5.4c-0.6-1.7-1.2-3.4-1.8-5.1l-1-2.5    c-0.4-0.8-0.6-1.7-1-2.5s-0.8-1.6-1.2-2.4l-0.6-1.2l-0.7-1.1l-1.4-2.3L111,263c-2.1-2.9-4.6-5.4-7.5-7.5S97.3,251.8,93.8,251z"></path>
		<path fill="#443737" d="M195,288.8c0,0,39.5,17.3,44.4,39.1c3.3,9.2-13,81.8-13,81.8s-8.7,4.2-15.8,0.9    c-0.1-18.5-5.9-59.5,2.4-73.6c-13-10.8-37.9-20.8-37.9-20.8l-9.6-4.3l-8.1-13.6l4.7-6.3l19.6-4.5L195,288.8z"></path>
		<path fill="#352C2C" d="M235.1,328.2c0.8,3.4,1.2,6.8,1.1,10.3c0,1.4-0.2,2.7-0.7,4.1c0,0.1,0,0.2,0,0.3c0,0.7,0,1.4-0.1,2.1    c0.1,0.7,0.1,1.5,0.1,2.2c0,1.4-0.2,2.7-0.6,4.1l0,0c0.8,0.2,1.7,0.4,2.4,0.8c0.9-8.6,1.5-16.7,1.8-24.3c-1-4.5-3.5-8.9-6.9-12.9    c-0.1,1.4-0.3,2.8-0.6,4.2c-0.2,0.8-0.4,1.6-0.7,2.4C232.9,323.4,234.4,325.7,235.1,328.2z"></path>
		<path fill="#352C2C" d="M226.2,409.7c-1.6,0.7-3.3,1.3-5,1.6C223,411.6,224.8,411,226.2,409.7z"></path>
		<path fill="#352C2C" d="M226.2,409.7c1.6-1.6,1.5-4.1,1.5-5.4l0,0C227.2,406.2,226.7,408,226.2,409.7z"></path>
		<path fill="#352C2C" d="M230.8,384.7c-0.1,1.4-0.2,3.1-0.5,5.2c-1.3,10.7-2.7,9-2.7,14.3c1.6-6,3.1-12.2,4.5-18.8    C231.7,385.3,231.2,385,230.8,384.7z"></path>
		<path fill="#352C2C" d="M212.6,369.6c0-0.3,0-0.5,0-0.8c-1.8-1-3.2-2.5-4.2-4.3c-0.1-0.1-0.1-0.1-0.2-0.2    c-0.1,16.5,2,35.3,2.1,46.3c3.7,1.7,7.8,1.4,10.9,0.7C212.6,409.6,212.6,373.5,212.6,369.6z"></path>
		<path fill="#FFCCC5" d="M199.9,249.5c0,0,4.5,14.4,6.1,20.4c1.6,5.9,2.2,25.4-2,37.5c-8.6-4.3-12.2-14.3-12.2-14.3    s-7.7-14.5-7.7-17.3s-1-16.5-1-16.5l5.3-8L199.9,249.5z"></path>
		<path fill="#6B5947" d="M148.2,377.8c0,0,1.2,41.9,1.3,47.5s0.1,6.5,1.9,6.9s2.7-1.8,2.9-7s2.6-46.2,2.6-46.2"></path>
		<path fill="#226E7D" d="M181.2,237.5c0,0,12.2,35.2,13.8,51.3c-5.7,3.3-18.9,6.9-39.7,14.9c-5.9,5.1-20.8,17.9-21.2,26.5    c-14-8.1-17.9-26.1-17.5-63.3c3.6-23.2,23.8-47.8,23.8-47.8l12.4,0.6l12.9-0.5l3.4,3.8L181.2,237.5z"></path>
		<path fill="#6B5947" d="M122.2,369.8c0,0-1.8,24-2.3,29.6s-0.6,6.5,1.1,7s2.8-1.5,3.7-6.6c0.8-5.1,4.6-28,4.6-28"></path>
		<g>
			<path fill="#0D2F4B" d="M231.8,385c-1.2-0.8-2.4-1.7-3.6-2.5s-2.3-1.8-3.5-2.7c-2.3-1.8-4.5-3.7-6.7-5.6s-4.3-3.9-6.4-6     c-1-1-2-2.1-3-3.1c-1-1.1-2-2.2-2.9-3.3c1.1,1,2.1,2,3.2,3s2.1,2,3.2,3c2.1,2,4.3,3.9,6.5,5.8s4.4,3.8,6.6,5.7L231.8,385z"></path>
		</g>
		<g>
			<path fill="#0D2F4B" d="M177.4,305.3c6,2.8,11.8,5.8,17.6,8.9c2.9,1.6,5.7,3.2,8.5,5c2.8,1.7,5.6,3.6,8.2,5.6     c0.6,0.5,1.3,1,1.9,1.6c0.6,0.6,1.2,1.1,1.8,1.7c1.1,1.2,2.2,2.4,3.3,3.7c2.2,2.5,4.3,5,6.4,7.5l6.3,7.6l6.2,7.7l-6.5-7.4     l-6.4-7.5l-6.5-7.4c-1.1-1.2-2.2-2.5-3.3-3.6c-0.6-0.6-1.2-1.1-1.8-1.7c-0.6-0.5-1.2-1-1.9-1.5c-2.6-2-5.3-3.9-8.1-5.6     s-5.6-3.4-8.5-5.1c-2.8-1.7-5.7-3.2-8.6-4.8S180.3,306.9,177.4,305.3z"></path>
		</g>
		<polygon fill="#60BABA" points="207.5,298.8 157.2,313 154.7,312.6 154.7,313.7 176,325.6 229.1,310.7   "></polygon>
		<polygon fill="#FFFFFF" points="176,324.5 154.7,312.6 207.5,297.7 229.1,309.5   "></polygon>
		<polygon opacity="0.73" fill="#60BABA" enable-background="new    " points="161.1,313.3 207.2,300.4 222.6,308.8 176.3,321.9       "></polygon>
		<path fill="#FFCCC5" d="M111.3,266.2c0,0,0.2,37.6,15.8,39.1c9.8,3.1,35.7,7,41.8,7.6c4.5,6.3,8.5,8.6,11.9,7.6    c2.4-0.7,4.3-8.9,4.3-8.9s-5.8-6.1-10.7-6.4c-7.3-3.6-26.6-11.6-35.1-14.8c-2.1-5.2-2.7-27.3-2.7-27.3L111.3,266.2z"></path>
		<polygon fill="#60BABA" points="238.2,276.3 237.5,275.6 184.3,290.5 175.2,324.9 228.4,309.9 237,277.4 237,277.4   "></polygon>
		<polygon fill="#FFFFFF" points="176,325.6 229.1,310.7 238.2,276.3 185,291.3   "></polygon>
		<ellipse fill="#60BABA" cx="208.7" cy="300.4" rx="4" ry="4"></ellipse>
		<path fill="#226E7D" d="M142.7,272.2c-10.7,2.2-21.7,2.4-32.5,0.7c0,0-0.1-4.6-0.2-11.6c-0.3-7.3,0.3-14.3,1.8-19.2    c3.7-11.5,11.3-15.8,15-17.3c3.2-1.3,7.8-3.3,10.8-4.5l3-1.3l0.1,6.5l0.4,22.9C140.9,248.5,142.5,263.7,142.7,272.2z"></path>
		<path fill="#226E7D" d="M199.9,249.5c-1.4,1.7-7,6.3-12.2,7.6c-0.9,0.2-1.8,0.4-2.7,0.4c-6.3-4.5-17.3-23.2-17.3-23.2l-2.2-9.2    l1.5-2l-1.8-7c0,0-0.4-0.3,1.9,0c3.4,0.6,6.8,1.6,10,2.8c2.5,1,12.4,4.7,21,26.3C198.8,246.5,199.4,248,199.9,249.5z"></path>
		<g opacity="0.5">
			<path fill="#F8B2A6" d="M139.3,290.5c-1.1,0.2-2.1,0.4-3.2,0.8c-0.5,0.2-1,0.4-1.4,0.6c-0.5,0.3-0.9,0.6-1.3,1     c0.2-0.6,0.5-1.1,1-1.4c0.4-0.4,1-0.7,1.5-0.9c0.6-0.2,1.1-0.3,1.7-0.3C138.1,290.2,138.7,290.3,139.3,290.5z"></path>
		</g>
		<g opacity="0.5">
			<path fill="#F8B2A6" d="M194.4,271.7c0.6-0.5,1.2-0.9,1.9-1.2c0.7-0.3,1.4-0.6,2.1-0.8c0.7-0.2,1.5-0.4,2.2-0.5     c0.8-0.1,1.5,0,2.3,0.2c-0.7,0.1-1.5,0.2-2.2,0.4c-0.7,0.2-1.4,0.4-2.1,0.6C197.2,270.9,195.9,271.4,194.4,271.7z"></path>
		</g>
		<path fill="#352C2C" d="M265.1,407.3L265.1,407.3l3-2.7c-21.7-13.7-34.2-24.5-40.9-30.9c-10.1-9.8-15.3-14.7-16.6-16.6    c-3.7-5.3-6.5-11.1-13.3-13.9c-2.4-0.9-5-1.5-7.5-1.7c-5.2-0.6-10.3-1.5-15.4-2.6c-26.6-6.2-39.7-16.7-39.9-16.8l0.5-0.6    c20.3,16.9,30.6,21,35.7,22.1c13.4,2.8,14.5,2.9,14.5,2.9c4.9,0.4,7.4,0,10,2c2.2,1.7,2.2,3.2,5.6,7.8c1.5,2,3.1,3.8,4.8,5.6    c4.8,5.1,7.8,6.7,13.7,11.6c4.7,3.9,4,3.8,9.7,8.8c5.8,5,11.9,9.8,18.3,14.1C252.1,399.6,258,403.4,265.1,407.3z"></path>
		<path fill="#123A53" d="M110,267.9c0,0,19.9,2.5,28.6-0.9c0.3,2.7,0.5,6,0.5,6s-19.3,4.2-29,0C110.2,269.7,110,267.9,110,267.9z"></path>
		<g opacity="0.6">
			<path fill="#F4870F" d="M139.1,272.9c-0.3-2-0.5-4-0.7-6s-0.2-4-0.3-6s-0.1-4,0-6s0.1-4,0.3-6c0.1,1,0.1,2,0.2,3l0.1,3l0.2,6     L139.1,272.9z"></path>
		</g>
		<path fill="#123A53" d="M199.9,249.5c-1.4,1.7-7,6.3-12.2,7.6l-1.4-4.6c0,0,8.2-1.4,11.8-7.5l0.2,0.1    C198.8,246.5,199.4,248,199.9,249.5z"></path>
		<g opacity="0.6">
			<path fill="#F4870F" d="M187.7,256.9c-1-2.2-1.8-4.5-2.5-6.8s-1.3-4.7-1.8-7c1,2.2,1.8,4.5,2.5,6.8     C186.6,252.1,187.2,254.5,187.7,256.9z"></path>
		</g>
		<path fill="#EC9125" d="M179,378c-8.5,1.4-19.7,2.9-34-1.2c-13.7-3.9-20.8-5.1-26.8-7.7c-5.3-2.3-29.2-13.6-35.9-37.3    c-1.4-4.8-1.9-9.8-1.7-14.9c1,6.4-2.5-12.7-2.7-19.2c-0.3-8.4,1.3-14.9,3.2-22.2c1.9-7.5,5.1-17,5.1-17    c17.8,15,24.4,25.2,27.1,31.9c1,2.6,2.5,7.2,6.9,10c3.9,2.5,11.4,4.4,14.1,5.1l0.7,0.2c2.7,0.7,11.9,3.4,19.5,10.3    c1.8,1.7,2.9,2.8,3.4,3.7c1.8,3.3,1.1,7.6,3.2,19.5C163.7,355.6,163.9,378.2,179,378z"></path>
		<path fill="#D6770F" d="M125.8,301.8c5.3,2.1,10.5,4.2,15.8,6.5c2.6,1.1,5.2,2.3,7.7,3.7c1.3,0.7,2.5,1.4,3.7,2.3    c0.6,0.4,1.2,0.9,1.7,1.3c0.6,0.5,1.1,1,1.6,1.6c1.9,2.4,2.7,5.3,3.3,8.1c0.5,2.8,0.9,5.6,1.2,8.5c0.6,5.7,1,11.3,1.7,16.9    c-1.2-5.6-2-11.2-2.8-16.8c-0.4-2.8-0.8-5.6-1.4-8.3c-0.6-2.7-1.5-5.4-3.1-7.5c-0.4-0.5-0.9-1-1.4-1.4c-0.6-0.4-1.1-0.8-1.7-1.2    c-1.1-0.8-2.3-1.5-3.6-2.2c-2.5-1.4-5-2.6-7.5-3.8c-2.6-1.2-5.1-2.4-7.7-3.7C130.8,304.5,128.3,303.2,125.8,301.8z"></path>
		<path fill="#FFCCC5" d="M118.3,299c3.9,6.1,10.7,10.7,32.5,11.3c-0.2-4.7-22.5-11.4-22.5-11.4S116.9,296.9,118.3,299z"></path>
		<path fill="#226E7D" d="M134.5,215.6c0,0-20.9,10.4-23.5,30.6c22.1,5,26.6-16,26.6-16l5.3-4l-0.8-5.5L134.5,215.6z"></path>
		<path fill="#226E7D" d="M169,212c3.2,1,16.9,4.9,26,26c-15.5-0.1-17.4-6.8-17.4-6.8l-5.8-9.3L168,221l-2.2-3.5L169,212z"></path>
		<path fill="#FFCCC5" d="M139.6,202.1c0,0,3.6,7.5,1.3,10.1c3.9,3.5,10.8,8,14.8,8.6c2.8-3.3,5-6.9,6.8-10.8c0,0-4.8,0.9-4.6-4.9    C157.9,201.3,139.6,202.1,139.6,202.1z"></path>
		<path fill="#040607" d="M133.5,198.3c0,0-9.3-8.9-5.1-23.4c1-3.7,4.8-5.4,6.1-4.6c0.6-2.7,4.8-4.7,7.1-2.4c2-2.9,8.3-7.4,13.1-0.9    c5.2-4,5.7,0.9,5.7,1.4c1.5-0.4,3.1,0.3,2.9,1.1c2.4-3.1,7.1-0.3,7.8,5c0.6,5.3-0.9,8.7-5.1,9.8c-3,0.9-5.8,2.2-8.4,4l-4.3,5.3    l-4,5.7l-4,1.2l-4.6-0.1l-2.8-2.1l-3.3,0.3L133.5,198.3z"></path>
		<path fill="#FFCCC5" d="M162.4,210L162.4,210c0,0-2.4,1.6-3.6,2.1c-3.9,1.8-8.6-0.1-9.4-0.5c-1.4-0.6-2.8-1.9-5.8-4.4    c-1.7-1.6-3.1-3.4-4.2-5.5l0,0c-3.1,1.1-7.6-2.9-5.9-6.5c2.1-4.5,5.9-1.9,7.1,0.7c0.7,1.3,2,3.3,2,3.3s0.5-5.7-0.9-9.4    c2.5-1.5,5.6-4.3,6.1-6.9c1.4,1.3,3.4,3.5,4.7,2.9s-0.4-3.2-0.5-3.4c0.2,0.1,3.9,3.4,5-0.4c2.7,1.7,5.8,2.5,8.9,2.3    c1.1,8.8,0.1,14.5-1,18.1C164.6,203.4,162.4,210,162.4,210z"></path>
		<path fill="#123A53" d="M140.9,211.9c0,0-5.9,2.6-6.4,3.8s11.5,11.8,14.4,13.1c2.7-2.3,5-5,6.8-8    C155.7,220.7,145.5,216.3,140.9,211.9z"></path>
		<path fill="#123A53" d="M162.4,210c0,0-5.5,8.7-6.8,10.8c3.8,2.1,7.8,3.9,11.9,5.3c0,0,2.3-9.6,1.5-14    C165.9,211.2,162.4,210,162.4,210z"></path>
		<path fill="#123A53" d="M156.4,225.8c0,0.5-0.4,0.9-0.9,0.9s-0.9-0.4-0.9-0.9s0.4-0.9,0.9-0.9l0,0    C156,224.9,156.4,225.3,156.4,225.8z"></path>
		<path fill="#123A53" d="M158,231.1c0,0.5-0.4,0.9-0.9,0.8c-0.5,0-0.9-0.4-0.8-0.9c0-0.5,0.4-0.8,0.9-0.8    C157.6,230.3,158,230.6,158,231.1L158,231.1z"></path>
		<path fill="#123A53" d="M155.5,239c-0.2,0-0.4-0.2-0.4-0.4s0.2-0.4,0.4-0.4c1.6-0.1,3.1-0.4,4.7-0.8c-0.1-4.7-4.5-16.1-4.6-16.2    c0-0.2,0.1-0.4,0.3-0.5c0.2,0,0.3,0,0.4,0.2c0.2,0.5,4.7,12.1,4.6,16.8c0,0.2-0.1,0.3-0.3,0.4C158.9,238.5,157.2,238.8,155.5,239z     M160.5,237.7L160.5,237.7z"></path>
		<path fill="#F79B90" d="M139.5,199c-0.3-1-0.7-1.9-1.2-2.8c-0.2-0.4-0.5-0.7-0.9-0.9c-0.2-0.1-0.4-0.1-0.5-0.1    c-0.2,0-0.4,0.1-0.6,0.2c-0.4,0.2-0.6,0.5-0.6,0.9c-0.1,0.4,0,0.9,0.2,1.3c0.1,0.2,0.2,0.3,0.4,0.3s0.4,0,0.6-0.2    c0.2-0.1,0.4-0.3,0.4-0.5c0.1-0.2,0.1-0.5,0-0.7c0.2,0.2,0.3,0.5,0.2,0.8c0,0.3-0.2,0.6-0.4,0.8s-0.5,0.3-0.8,0.4    c-0.2,0-0.4,0-0.5-0.1s-0.2-0.2-0.3-0.4c-0.3-0.5-0.5-1.1-0.4-1.7c0.1-0.6,0.4-1.2,1-1.5c0.3-0.1,0.6-0.2,0.9-0.3    c0.3-0.1,0.7,0,1,0.1c0.5,0.3,1,0.7,1.2,1.3C139.3,196.9,139.5,197.9,139.5,199z"></path>
		<path fill="#040607" d="M163.4,188.8c-2.9,0-5.3,2.3-5.5,5.2c-0.9-0.4-1.9-0.4-2.8-0.1c-0.4-3-3.1-5.2-6.1-4.8    c-2.4,0.3-4.3,2.1-4.7,4.4c-2.6-0.5-5.1-0.9-7.7-1.1c-0.1,0-0.2,0.1-0.2,0.2l0,0c0,0.1,0.1,0,0.2,0c2.6,0.3,5.2,0.7,7.7,1.3    c0,0.2,0,0.4,0,0.7c-0.1,3,2.3,5.6,5.3,5.7s5.6-2.3,5.7-5.3c0-0.1,0-0.3,0-0.4c0-0.1,0-0.2,0-0.2c0.9-0.4,1.9-0.3,2.8,0.1    c0.1,3,2.6,5.4,5.6,5.4c3-0.1,5.4-2.6,5.4-5.6C168.8,191.2,166.4,188.8,163.4,188.8L163.4,188.8z M149.6,199.7    c-2.8,0-5.1-2.3-5.1-5.1s2.3-5.1,5.1-5.1s5.1,2.3,5.1,5.1l0,0C154.7,197.4,152.4,199.7,149.6,199.7L149.6,199.7z M163.4,199.4    c-2.8,0-5.1-2.3-5.1-5.1s2.3-5.1,5.1-5.1s5.1,2.3,5.1,5.1C168.5,197.1,166.2,199.4,163.4,199.4L163.4,199.4L163.4,199.4z"></path>
		<path fill="#FFCCC5" d="M224.3,413.7c-0.5-0.5-0.9-1-1.2-1.6c-1.4,1.1-3,1.9-4.7,2.5c-2.1,0.7-4.3,1-6.4,0.8c0.6,1.6,1,3.3,0.9,5    c0,1.4-0.3,2.5-0.7,6.1c-0.2,1.9-0.2,2.1-0.1,2.2c1.6,3.1,12.5,0.5,18.3-3.8c6.9-5.1,11.8-12.5,11.8-12.5S230.9,420.9,224.3,413.7    z"></path>
		<path fill="#EFBAB4" d="M216.7,421.9c0,0-6.5,2.2-4.5,6.7s8,5.1,17.9,0.9c10-4.2,15.9-0.6,18.5-6.9s-2-12.1-6.3-10.3    C238,414.2,216.7,421.9,216.7,421.9z"></path>
		<path fill-rule="evenodd" clip-rule="evenodd" fill="#FFCFDC" d="M276.4,400.4c4.3-1.4,5.6-1.3,8.8-2.6c1.1-0.5,4.2-4,5.2-3.4    c2,1.1,1.3,7.5-1.2,10.1c-3.3,3.5-9.2,3.1-11.5,5.2c-3.6,3.3-7,4.1-8.9,3.1c-1.8-1.1-2.5-3.8-2.3-5.2c1.8,1.5,5,2.2,6.7,0.7    C275.6,406.4,277.9,402.8,276.4,400.4z"></path>
		<path fill="#F79B90" d="M160.4,212.4c-1.5,1.2-3.3,1.9-5.1,2.2c-1.9,0.3-3.9,0-5.6-0.8c-1.7-0.8-3.2-2-4.4-3.5s-2.1-3.1-2.8-4.8    c1,1.6,2.1,3,3.3,4.4c1.2,1.3,2.6,2.4,4.3,3.2c1.6,0.7,3.4,1.1,5.2,0.9C157.1,213.8,158.8,213.2,160.4,212.4z"></path>
		<path opacity="0.44" fill="#B7D0D2" enable-background="new    " d="M320.1,405.3l32.6-6.7l27.7,16.6c0,0-5.7,3.2-11.6,4    s-25.2,4.7-25.2,4.7L320.1,405.3z"></path>
		<path fill="#FFFFFF" d="M319.4,404.1l32.6-6.7l26.8,14.1c0,0-4.5,4.1-10.4,4.8c-5.9,0.7-25.5,6.3-25.5,6.3L319.4,404.1z"></path>
		<path fill="#C4DAFE" d="M339.4,409.3c0.4,0,0.7-0.1,1-0.3c0.3-0.2,0.7-0.4,1-0.6c0.7-0.4,1.3-0.8,2-1.1c1.4-0.6,2.8-1.2,4.2-1.8    c2.8-1.2,5.7-2.2,8.6-3l0.2-0.1l-0.1,0.2c-0.6,2-1,4.1-1.4,6.2c-0.1,1.1-0.4,2.1-0.8,3.1c-0.2,0.5-0.6,1-1.1,1.3s-1.1,0.5-1.7,0.6    c-1.1,0-2.2-0.3-3.2-0.8c-0.5-0.2-1-0.4-1.4-0.6l-1.4-0.6C343.2,411,341.3,410.2,339.4,409.3L339.4,409.3z M339.4,409.3    c2,0.6,4,1.2,6,1.9l1.5,0.5c0.5,0.2,1,0.4,1.5,0.6c0.9,0.4,1.9,0.7,2.9,0.7c0.9,0,1.8-0.6,2.2-1.4c0.4-0.9,0.7-1.9,0.9-2.9    c0.5-2.1,1.2-4.1,1.7-6.1l0.1,0.1c-3,0.7-5.6,2.2-8.4,3.4c-1.4,0.6-2.8,1.1-4.2,1.7c-0.7,0.3-1.3,0.7-2,1    c-0.3,0.2-0.7,0.3-1.1,0.4C340.1,409.3,339.7,409.4,339.4,409.3L339.4,409.3z"></path>
		<path fill="#C4DAFE" d="M338.2,404.5c1.2-0.3,2.5-0.3,3.6,0.1c1.2,0.4,2.2,1.3,2.7,2.5c0.4,1.2,0.4,2.5-0.1,3.6    c-0.4,1.2-1.3,2.1-2.4,2.7c-0.6,0.3-1.2,0.4-1.9,0.3c-0.6-0.1-1.2-0.3-1.8-0.6c-1.1-0.6-2-1.6-2.5-2.7c-0.6-1.1-0.7-2.5-0.3-3.7    c0.2-0.6,0.6-1.1,1.1-1.4C337.1,404.9,337.7,404.7,338.2,404.5z M338.2,404.6c-0.6,0.2-1.1,0.4-1.5,0.9c-0.4,0.4-0.7,0.9-0.8,1.4    c-0.2,1.1,0,2.2,0.5,3.2s1.2,1.9,2.2,2.5c0.9,0.6,2.1,0.8,3.2,0.5c1.1-0.4,2-1.3,2.3-2.4c0.4-1.1,0.3-2.3-0.2-3.3    s-1.3-1.8-2.3-2.4C340.6,404.5,339.4,404.3,338.2,404.6L338.2,404.6z"></path>
		<polygon opacity="0.44" fill="#B7D0D2" enable-background="new    " points="282.5,433.7 315.5,430.2 321.9,441.8 284.8,448.7       "></polygon>
		<polygon fill="#FFFFFF" points="282.5,433.7 315.5,430.2 321.9,441.8 286.7,445.3   "></polygon>
		<path fill="#C4DAFE" d="M290.8,440.3c-0.1-0.7-0.1-1.3,0.2-1.9c0.2-0.3,0.4-0.6,0.8-0.7c0.3-0.2,0.7-0.2,1.1-0.2    c0.7,0.1,1.3,0.4,1.8,0.8s1,0.7,1.5,1.1c1.1,0.6,2.3,0.9,3.5,0.9c1.2-0.1,2.4-0.6,3.3-1.4c0.4-0.4,0.7-0.9,0.8-1.4    c0.1-0.5-0.2-1-0.6-1.2s-0.9,0-1,0.4c-0.1,0.3,0.2,0.8,0.7,1c0.6,0.2,1.1,0.3,1.7,0.4s1.2,0.2,1.8,0.2c1.2,0.1,2.5-0.2,3.5-0.8    l0.1,0.1c-1,0.9-2.3,1.4-3.6,1.3c-0.6,0-1.3,0-1.9-0.1c-0.7,0-1.3-0.2-2-0.4c-0.4-0.1-0.7-0.4-0.9-0.7c-0.5-0.6-0.3-1.4,0.2-1.9    c0.1-0.1,0.3-0.2,0.5-0.2c0.4-0.1,0.8-0.1,1.2,0.1c0.7,0.4,1,1.2,0.9,2c-0.1,0.7-0.5,1.3-1.1,1.7c-1,0.8-2.3,1.2-3.6,1.4    c-1.3,0.2-2.6,0-3.8-0.5c-1.2-0.6-2-1.7-3.1-1.8c-0.5-0.1-1.1,0.1-1.4,0.5C291,439.1,290.9,439.7,290.8,440.3L290.8,440.3z"></path>
		<ellipse opacity="0.44" fill="#B7D0D2" enable-background="new    " cx="147.5" cy="438.5" rx="8" ry="1.4"></ellipse>
		<path fill="#479DA2" d="M144.3,435.9h0.4c0.4,0,0.7-0.3,0.7-0.7c0-0.4-0.3-0.7-0.7-0.7c-1.6,0.1-4.3-0.3-5.2-1.3    c-1.4-1.8-3.3-7.2-2-8.7c0.5-0.5,2.3-0.9,3.4-1c0.4,0,0.7-0.4,0.7-0.8s-0.4-0.7-0.8-0.7c-0.5,0-3.3,0.3-4.3,1.4    c-2.2,2.4,0.5,8.7,1.9,10.5C139.7,435.8,143.1,435.9,144.3,435.9z"></path>
		<path fill="none" d="M141.3,432.1L141.3,432.1c-0.3-1.6-0.5-3-0.7-4.7c-0.1-0.5-0.1-1-0.2-1.5l0,0    C140.6,427.9,141,430.1,141.3,432.1z"></path>
		<path fill="none" d="M141.3,432.1c-0.1,0-0.2,0-0.4,0c-1.7,0-3.2-1.4-3.1-3.2c0-1.5,1.1-2.8,2.6-3.1c0.1,0.5,0.1,1,0.2,1.5    C140.7,429.1,141,430.5,141.3,432.1z"></path>
		<path fill="#217276" d="M145.2,433.9c0.5-2.3-0.9-3.8-1.6-5.8c-0.7-2.3-0.1-4.8,0.4-7c0-0.1,0.1-0.2,0.1-0.3h4    c0,0.1-0.1,0.2-0.1,0.4c-0.5,2.2-1.1,4.7-0.4,7c0.7,2.1,2.1,3.5,1.7,5.8c-0.5,1.4-0.8,2.9-1.1,4.3l-0.1,0.7c-0.5,0-1,0-1.6,0h-1    c-0.5,0-1-0.1-1.4-0.2c0-0.2,0-0.3,0-0.4C144.3,436.8,144.9,435.5,145.2,433.9z"></path>
		<path fill="#479DA2" d="M139.7,420.9c0-0.4,3.6-0.9,8.1-0.9c4.2,0,7.6,0.2,8,0.6l0,0v0.1v0.1c0,0,0,0.1-0.1,0.1    c-0.2,1.7-2,15.8-2.6,16.8c-0.1,0.4-0.9,1.3-5.1,1.3l0.1-0.7c0.3-1.5,0.7-2.9,1.1-4.3c0.5-2.3-0.9-3.7-1.7-5.8    c-0.7-2.1-0.2-4.7,0.3-6.5h-0.2c-1.4,0-2.7-0.1-3.8-0.2c-0.5,2.2-1,4.4-0.3,6.6c0.7,2.1,2.1,3.5,1.6,5.8c-0.4,1.5-0.9,2.8-1.1,4.3    c0,0.2,0,0.3,0,0.4l0,0c-0.6-0.1-1.1-0.4-1.4-0.9l0,0l-0.1-0.1l-0.1-0.1c0-0.1-0.1-0.2-0.1-0.3c-0.2-0.8-0.4-1.5-0.5-2.3    c-0.2-1.1-0.3-2.1-0.5-3l0,0c-0.3-2-0.6-4.3-0.9-6.2l0,0c-0.1-0.7-0.2-1.4-0.3-2.2c-0.2-1.7-0.4-2.7-0.4-2.7l0,0V420.9z"></path>
		<path fill="#FFFFFF" d="M147.8,421.6c2.5,0.1,5.1-0.1,7.6-0.6c-2.5-0.5-5-0.7-7.6-0.6c-2.5-0.1-5.1,0.1-7.6,0.6    C142.7,421.4,145.2,421.6,147.8,421.6z"></path>
		<path fill="#FFFFFF" d="M147.7,428.3L147.7,428.3c-0.4,0-0.8-0.3-0.8-0.8c0,0,0.3-4.4,0.8-4.4l0,0c0.4,0,0.8,4.4,0.8,4.4    C148.5,427.9,148.1,428.3,147.7,428.3z"></path>
		<path fill="#FFFFFF" d="M144.5,428L144.5,428c-0.3,0-0.6-0.2-0.6-0.5c0,0,0.1-4.4,0.4-4.4l0,0c0.3,0,0.8,4.3,0.8,4.3    C145,427.7,144.8,428,144.5,428L144.5,428z"></path>
		<path fill="#FFFFFF" d="M142.1,427.6L142.1,427.6c-0.2,0-0.4-0.1-0.4-0.4l0,0c0,0-0.3-4.7-0.1-4.7l0,0c0.2,0,0.9,4.7,0.9,4.7    C142.5,427.4,142.3,427.6,142.1,427.6L142.1,427.6z"></path>
		<path fill="#FFFFFF" d="M150.7,428L150.7,428c0.3,0,0.6-0.2,0.6-0.5c0,0-0.1-4.4-0.4-4.4l0,0c-0.3,0-0.8,4.3-0.8,4.3    C150.2,427.7,150.4,428,150.7,428L150.7,428z"></path>
		<path fill="#FFFFFF" d="M153.1,427.6L153.1,427.6c0.2,0,0.4-0.1,0.5-0.3l0,0c0,0,0.5-4.7,0.3-4.7l0,0c-0.2,0-1.1,4.6-1.1,4.6    C152.7,427.4,152.9,427.6,153.1,427.6L153.1,427.6z"></path>
	</g>
</g>
</svg>