<?xml version="1.0" encoding="UTF-8"?>
<!DOCTYPE svg PUBLIC "-//W3C//DTD SVG 1.1//EN" "http://www.w3.org/Graphics/SVG/1.1/DTD/svg11.dtd">
<svg version="1.1" xmlns="http://www.w3.org/2000/svg" xmlns:xlink="http://www.w3.org/1999/xlink" x="0" y="0" width="1096" height="1118" viewBox="0, 0, 1096, 1118">
  <g id="Layer_1">
    <g>
      <path d="M1069.808,337.802 C1077.03,323.499 1080.179,298.256 1076.298,277.828 C1075.059,271.265 1073.708,264.713 1070.549,260.254 C1068.07,259.827 1066.222,261.838 1064.454,262.915 C1062.169,264.317 1060.786,265.435 1059.101,266.745 C1055.759,269.345 1051.939,271.804 1048.404,273.998 C1040.988,278.65 1034.69,283.902 1028.555,290.047 C992.34,326.242 956.746,362.395 920.063,397.756 C901.027,380.761 879.289,366.55 849.769,360.333 C834.653,357.153 817.628,355.741 800.491,355.741 C783.242,355.741 765.506,355.051 747.801,354.218 C713.079,352.562 677.628,353.385 645.404,348.488 C637.664,347.31 629.944,346.193 622.498,344.669 C615.144,343.145 608.195,340.657 601.104,338.95 C593.557,337.081 585.908,336.359 579.335,333.596 C576.359,332.347 573.464,330.569 570.549,329.005 C567.521,327.39 564.088,326.079 561.376,324.413 C554.763,320.35 549.064,313.28 543.04,307.612 C536.741,301.659 529.58,296.417 523.942,291.195 C511.519,279.646 500.711,266.979 491.487,252.615 C498.354,250.278 505.018,246.977 509.822,243.056 C517.583,236.757 523.983,228.255 528.523,217.091 C530.982,211.098 536.671,196.582 533.491,186.9 C532.638,184.3 527.701,180.826 525.101,178.114 C516.049,168.697 509.874,158.234 502.56,147.954 C492.777,134.139 481.45,121.847 471.607,108.601 C461.845,95.466 452.103,80.564 436.083,73.849 C421.13,67.571 397.838,68.953 382.6,73.463 C377.318,75.018 374.535,75.759 369.242,73.849 C363.543,71.767 358.871,66.993 352.816,64.291 C346.762,61.598 339.681,60.054 332.947,57.799 C319.396,53.238 306.434,47.367 292.466,45.955 C290.364,43.628 287.052,42.704 284.827,40.601 C282.308,38.224 280.683,34.598 277.95,31.825 C275.755,29.59 272.901,27.518 269.955,25.425 C269.539,25.059 269.173,24.633 268.645,24.409 C268.858,24.5 269.061,24.612 269.244,24.754 L267.304,23.282 C265.283,21.738 263.21,20.183 261.047,18.68 C259.177,17.217 257.278,15.967 255.328,15.094 C255.246,15.053 255.185,14.992 255.104,14.952 C255.043,14.921 254.962,14.952 254.891,14.931 C254.302,14.698 253.723,14.373 253.113,14.24 C250.959,13.773 249.75,14.22 247.942,14.21 C247.201,13.987 246.418,13.804 245.789,13.499 C245.139,12.991 244.275,12.585 242.823,12.656 L242.406,12.656 C241.827,12.392 241.116,12.219 240.151,12.26 C240.171,12.27 239.277,12.311 238.313,12.351 C228.51,11.722 220.779,14.098 214.146,17.308 C197.222,25.496 184.91,41.942 173.665,56.276 C169.328,61.771 164.269,67.348 160.296,72.691 C158.743,74.794 157.727,77.222 156.102,78.796 C153.034,81.854 148.94,83.866 145.791,86.842 C144.094,88.427 142.794,90.458 141.199,92.175 C139.513,93.993 137.654,95.486 135.846,97.132 C132.25,100.454 129.142,104.101 126.297,107.839 C120.416,115.6 114.331,123.208 109.496,131.528 C101.876,144.642 100.2,161.921 98.047,180.795 C96.797,191.655 94.278,204.515 96.502,215.933 C82.281,231.221 67.359,245.158 51.43,259.857 C44.045,266.684 36.366,273.521 29.285,282.409 C24.786,288.006 20.011,295.686 15.907,302.268 C14.373,304.727 11.803,307.195 11.326,309.146 C10.909,310.893 10.878,313.188 11.326,315.25 C11.803,317.424 13.561,318.816 14.373,320.604 C15.47,322.93 15.754,325.378 16.669,327.481 C21.25,337.72 28.696,347.117 35.777,354.99 C37.138,356.514 38.418,358.128 39.982,359.947 C41.404,361.572 43.792,362.812 44.939,364.528 C46.118,366.275 46.311,368.358 47.225,369.881 C54.011,381.178 64.9,387.679 76.633,394.322 C83.084,397.949 89.829,402.155 97.65,404.257 C101.531,405.273 105.99,405.974 110.257,406.929 C131.813,411.673 158.743,409.194 180.542,404.643 C188.618,402.947 196.268,399.635 203.845,397.004 C211.068,394.455 219.834,392.128 226,388.217 C227.179,387.476 229.251,386.653 228.672,384.773 C234.696,384.591 239.551,381.878 244.712,379.806 C249.75,377.775 254.555,374.463 261.523,374.849 C263.88,387.425 264.592,399.524 264.592,411.51 C264.592,436.185 259.045,459.64 254.261,480.658 C251.751,491.74 248.603,502.549 246.632,513.113 C242.101,537.402 243.025,563.641 246.246,586.852 C249.07,607.219 255.348,624.559 261.9,640.701 C262.885,643.129 264.388,645.658 264.957,647.965 C265.729,651.012 265.729,654.902 266.105,658.275 C268.787,682.422 272.129,706.213 276.051,729.322 C277.188,735.975 278.397,742.508 279.098,749.191 C279.849,756.201 280.307,763.262 281.394,770.199 C282.41,776.559 284.146,782.734 285.589,788.91 C287.113,795.574 287.945,802.219 289.032,808.779 C291.186,821.67 293.705,834.369 297.047,846.986 C300.39,859.48 303.386,871.812 305.448,884.795 C309.714,911.398 314.276,938.338 315.383,967.301 C310.548,977.783 305.936,989.332 301.253,1000.914 C296.946,1011.58 290.933,1024.816 290.17,1037.584 C289.53,1048.891 296.662,1054.65 303.153,1059.74 C307.623,1063.234 313.342,1067.705 319.193,1068.914 C321.468,1069.381 324.262,1068.75 326.455,1069.289 C327.573,1069.574 328.781,1070.631 329.899,1071.199 C339.194,1076.064 356.605,1075.566 368.481,1074.256 C372.147,1073.83 375.865,1072.691 379.563,1072.348 C386.277,1071.707 391.966,1071.869 397.889,1070.426 C403.435,1069.105 408.931,1067.826 413.553,1065.469 C416.671,1063.885 418.835,1061.172 421.578,1059.354 C423.355,1059.262 425.295,1059.1 426.911,1058.604 C430.548,1057.455 438.48,1053.086 439.914,1050.566 C448.283,1036 442.361,1016.201 438.379,1001.676 C436.876,996.23 434.428,990.674 434.174,986.021 C434.083,983.797 434.875,981.623 434.946,979.52 C435.504,963.002 430.456,949.695 428.841,934.834 C426.951,917.291 426.159,899.086 426.159,879.441 C426.159,840.961 424.818,802.248 423.487,765.607 C425.783,767.02 424.503,771.977 428.445,771.723 C431.828,768.076 430.385,763.84 429.207,759.879 C427.622,754.504 426.413,748.328 425.783,742.314 C426.708,742.568 430.202,745.047 431.888,742.701 C433.118,736.584 428.77,730.846 429.207,725.512 C435.606,730.205 442.493,733.588 450.214,736.199 C457.599,738.678 465.797,739.826 474.665,741.553 C491.913,744.895 510.767,746.094 529.296,745.373 C529.367,771.783 526.868,798.072 526.238,824.059 C525.924,838.076 526.838,851.465 526.238,864.549 C525.689,876.709 522.805,888.645 520.896,900.459 C519.015,912.201 516.903,923.539 514.018,934.834 C511.153,945.947 508.411,957.141 505.993,968.072 C502.356,984.619 496.668,1000.498 491.853,1015.814 C490.146,1021.322 487.81,1027.143 487.281,1032.232 C486.997,1035.045 487.018,1035.676 488.043,1036.426 C483.269,1042.236 478.657,1048.18 475.051,1055.158 C470.825,1056.408 468.295,1060.381 465.492,1063.559 C462.546,1066.963 459.519,1069.857 458.614,1075.018 C456.776,1085.816 466.813,1096.096 477.347,1095.264 C479.875,1095.07 481.318,1094.877 482.7,1092.592 C483.776,1101.979 493.508,1101.754 505.242,1101.754 C517.654,1101.754 528.372,1100.738 534.264,1096.035 C541.303,1101.033 553.96,1098.066 560.228,1095.264 C561.975,1094.502 563.732,1093.1 565.582,1092.592 C567.775,1091.982 570.071,1092.471 572.072,1091.83 C575.8,1090.652 580.311,1087.473 584.679,1084.963 C589.23,1082.301 593.323,1079.508 595,1075.779 C596.29,1072.945 595.883,1068.975 596.513,1064.707 C596.971,1061.863 598.24,1059.172 598.809,1056.307 C600.628,1047.104 601.856,1036.914 602.252,1026.889 C603.258,999.795 611.293,977.387 617.907,955.455 C621.289,944.312 624.561,933.137 627.455,921.465 C637.492,881.391 648.016,840.037 660.693,802.279 C662.705,796.336 664.929,790.455 665.274,785.092 C665.437,782.805 664.776,780.57 664.898,778.975 C665.153,776.08 666.666,772.973 667.194,769.812 C667.763,766.217 667.57,762.783 668.708,759.502 C675.047,782.227 687.938,797.281 700.047,813.361 C707.695,823.541 711.9,834.918 713.019,851.941 C711.657,852.998 712.033,854.076 711.881,855.762 C710.957,865.34 711.494,875.754 711.494,885.557 C711.494,915.604 708.976,944.373 702.332,967.676 C697.679,973.445 692.844,979.084 690.102,986.773 C683.143,989.131 671.715,994.422 668.332,1002.07 C664.675,1010.402 668.84,1019.086 676.347,1019.635 C678.42,1025.832 683.763,1029.986 690.102,1031.084 C695.292,1032.02 700.798,1030.393 705.766,1031.084 C707.259,1031.277 708.092,1032.525 709.595,1033.004 C716.686,1035.27 723.156,1033.004 730.593,1031.48 C735.62,1030.465 740.75,1029.561 745.505,1028.422 C750.522,1027.213 754.891,1025.658 759.249,1024.217 C764.145,1022.621 768.991,1021.951 773.004,1020.012 C775.034,1019.025 777.858,1016.293 779.494,1015.055 C780.448,1014.344 781.211,1015.297 782.155,1014.668 C782.734,1014.281 782.328,1013.865 782.918,1013.145 C784.979,1010.727 786.392,1006.855 784.451,1003.971 C786.686,1004.834 789.51,1006.611 792.477,1005.504 C794.132,1002.955 794.569,999.613 794,996.322 C793.614,994.025 792.395,992.98 792.101,991.365 C791.055,984.996 792.313,976.951 793.249,969.973 C795.117,956.125 795.788,942.402 797.82,929.48 C799.852,916.631 802.665,903.871 804.697,890.91 C805.723,884.57 807.186,878.68 808.902,872.564 C810.589,866.621 811.097,860.027 812.712,853.861 C816.125,841.021 818.979,823.805 815.403,808.779 C813.199,799.576 808.455,792.16 805.845,783.953 C799.607,764.084 805.52,740.943 813.107,727.027 C817.304,719.367 821.347,711.818 824.191,703.357 C827.421,704.586 827.553,712.326 832.206,710.996 C834.715,710.285 834.268,704.537 834.491,701.062 C834.775,696.633 834.867,692.59 835.264,689.217 C847.361,708.314 856.332,728.855 870.015,745.758 C877.004,754.342 884.246,761.898 891.794,769.428 C898.6,776.213 905.722,782.551 913.563,787.771 C917.677,790.475 919.679,793.604 922.726,797.707 C928.455,805.346 934.438,813.584 937.628,822.91 C942.139,836.127 943.805,853.061 945.653,868.754 C947.593,885.068 948.863,901.059 951.759,916.113 C955.862,937.312 962.546,955.404 960.932,981.055 C956.381,989.557 950.772,1005.504 945.267,1015.055 C942.372,1020.082 938.237,1023.395 938.39,1029.561 C938.522,1034.496 940.686,1036.162 942.981,1039.494 C945.623,1043.314 946.639,1047.387 952.521,1045.986 C955.456,1051.746 961.124,1051.838 968.946,1052.863 C972.959,1053.371 977.356,1054.133 980.79,1054.012 C986.651,1053.787 989.669,1051.045 994.555,1050.566 C997.023,1050.344 999.857,1051.187 1002.569,1051.34 C1013.134,1051.969 1021.007,1050.922 1026.635,1047.135 C1030.86,1048.951 1032.354,1046.992 1036.174,1045.225 C1041.558,1042.766 1047.855,1038.672 1050.689,1035.299 C1055.759,1029.234 1054.012,1020.904 1053.757,1011.225 C1045.315,1000.689 1047.256,979.814 1047.256,961.184 C1047.256,946.639 1047.51,932 1048.018,918.783 C1048.557,905.518 1050.67,892.209 1051.075,878.68 C1051.532,864.73 1051.299,850.449 1050.313,836.654 C1049.328,822.342 1047.317,811.451 1041.141,802.664 C1037.881,797.971 1034.994,793.848 1033.126,789.297 C1024.531,768.412 1028.595,735.793 1027.772,708.701 C1027.58,701.854 1028.129,694.723 1027.396,688.059 C1027.143,685.805 1025.954,683.549 1025.487,681.191 C1024.979,678.652 1024.888,676.012 1024.35,673.553 C1021.18,658.926 1019.188,642.977 1017.849,626.57 C1016.061,604.639 1014.445,582.992 1010.209,563.164 C1001.93,524.328 981.786,496.474 967.809,463.459 C972.867,459.417 978.729,453.657 984.996,449.705 C989.08,447.166 993.528,445.185 997.602,442.453 C1001.544,439.812 1005.546,437.018 1009.437,434.052 C1025.07,422.105 1039.282,410.82 1050.313,393.947 C1052.478,390.666 1055.21,386.399 1058.339,381.727 C1060.624,378.293 1065.693,371.497 1065.603,368.733 C1065.531,365.961 1063.529,366.417 1063.682,364.528 C1065.429,362.121 1067.023,357.946 1069.035,353.456 C1070.752,349.576 1074.104,344.161 1073.23,340.849 C1072.561,338.198 1071.23,339.315 1069.808,337.802" fill="#FFFBDD"/>
      <path d="M1080.25,345.238 C1080.667,344.375 1080.992,343.308 1081.397,342.394 C1081.134,343.308 1080.728,344.262 1080.25,345.238 M1071.737,340.931 C1073.17,342.444 1074.49,341.327 1075.171,343.978 C1076.034,347.29 1072.682,352.704 1070.976,356.584 C1068.965,361.075 1067.359,365.25 1065.612,367.657 C1065.46,369.546 1067.461,369.089 1067.532,371.862 C1067.623,374.625 1062.564,381.422 1060.269,384.855 C1057.15,389.528 1054.407,393.794 1052.244,397.075 C1041.212,413.948 1027.001,425.234 1011.366,437.18 C1007.486,440.146 1003.475,442.94 999.533,445.581 C995.459,448.324 991.01,450.294 986.926,452.834 C980.658,456.796 974.797,462.545 969.738,466.588 C983.716,499.603 1003.859,527.457 1012.14,566.291 C1016.375,586.121 1018,607.768 1019.778,629.699 C1021.129,646.105 1023.12,662.055 1026.279,676.682 C1026.817,679.141 1026.908,681.781 1027.417,684.32 C1027.884,686.687 1029.072,688.932 1029.327,691.187 C1030.059,697.852 1029.52,704.982 1029.713,711.83 C1030.536,738.922 1026.473,771.539 1035.057,792.426 C1036.936,796.977 1039.811,801.111 1043.071,805.793 C1049.247,814.58 1051.259,825.471 1052.244,839.783 C1053.229,853.578 1053.463,867.871 1053.016,881.809 C1052.6,895.34 1050.486,908.646 1049.948,921.924 C1049.44,935.129 1049.186,949.766 1049.186,964.324 C1049.186,982.943 1047.246,1003.818 1055.688,1014.354 C1055.941,1024.033 1057.688,1032.363 1052.619,1038.428 C1049.785,1041.801 1043.487,1045.904 1038.113,1048.354 C1034.284,1050.121 1032.801,1052.08 1028.574,1050.262 C1022.938,1054.051 1015.064,1055.098 1004.5,1054.469 C1001.788,1054.314 998.954,1053.473 996.484,1053.695 C991.599,1054.174 988.582,1056.916 982.721,1057.139 C979.287,1057.262 974.889,1056.51 970.876,1055.992 C963.054,1054.965 957.386,1054.873 954.46,1049.115 C948.568,1050.518 947.553,1046.443 944.912,1042.623 C942.616,1039.291 940.452,1037.625 940.32,1032.689 C940.167,1026.523 944.303,1023.211 947.197,1018.182 C952.703,1008.635 958.311,992.686 962.871,984.182 C964.477,958.533 957.792,940.441 953.688,919.24 C950.793,904.186 949.523,888.197 947.583,871.883 C945.734,856.189 944.068,839.254 939.568,826.039 C936.379,816.713 930.385,808.475 924.666,800.836 C921.608,796.732 919.607,793.604 915.493,790.902 C907.651,785.68 900.529,779.342 893.725,772.555 C886.176,765.029 878.934,757.471 871.945,748.887 C858.262,731.982 849.291,711.443 837.193,692.346 C836.808,695.719 836.716,699.762 836.421,704.189 C836.198,707.664 836.645,713.414 834.136,714.125 C829.493,715.457 829.361,707.715 826.131,706.486 C823.276,714.949 819.233,722.496 815.038,730.164 C807.449,744.072 801.537,767.223 807.774,787.082 C810.396,795.291 815.13,802.705 817.334,811.908 C820.92,826.934 818.055,844.152 814.642,856.99 C813.026,863.158 812.528,869.75 810.832,875.691 C809.115,881.809 807.653,887.699 806.627,894.037 C804.596,907 801.792,919.76 799.75,932.609 C797.719,945.531 797.047,959.254 795.179,973.1 C794.243,980.078 792.984,988.125 794.03,994.494 C794.325,996.119 795.545,997.166 795.93,999.451 C796.509,1002.742 796.063,1006.084 794.417,1008.635 C791.44,1009.742 788.616,1007.963 786.382,1007.1 C788.321,1009.984 786.91,1013.855 784.857,1016.273 C784.258,1016.994 784.665,1017.41 784.086,1017.797 C783.141,1018.426 782.379,1017.471 781.424,1018.182 C779.788,1019.422 776.965,1022.154 774.934,1023.141 C770.921,1025.08 766.074,1025.762 761.179,1027.346 C756.82,1028.787 752.453,1030.342 747.435,1031.551 C742.681,1032.689 737.551,1033.592 732.522,1034.609 C725.086,1036.133 718.616,1038.398 711.525,1036.133 C710.021,1035.654 709.188,1034.406 707.695,1034.223 C702.728,1033.521 697.223,1035.146 692.032,1034.223 C685.693,1033.115 680.35,1028.971 678.277,1022.764 C670.771,1022.215 666.605,1013.529 670.263,1005.201 C673.646,997.551 685.072,992.258 692.032,989.902 C694.773,982.213 699.609,976.574 704.262,970.805 C710.905,947.5 713.425,918.742 713.425,888.686 C713.425,878.883 712.896,868.471 713.812,858.891 C713.974,857.205 713.587,856.127 714.959,855.072 C713.842,838.047 709.636,826.668 701.977,816.49 C689.868,800.408 676.977,785.355 670.638,762.631 C669.5,765.912 669.693,769.355 669.125,772.941 C668.597,776.102 667.083,779.209 666.829,782.105 C666.707,783.699 667.367,785.934 667.204,788.219 C666.859,793.584 664.635,799.465 662.623,805.408 C649.945,843.166 639.422,884.52 629.386,924.596 C626.49,936.266 623.22,947.439 619.837,958.584 C613.233,980.516 605.188,1002.926 604.183,1030.027 C603.797,1040.043 602.558,1050.232 600.739,1059.436 C600.171,1062.299 598.9,1064.992 598.454,1067.836 C597.813,1072.102 598.22,1076.074 596.93,1078.908 C595.264,1082.637 591.16,1085.43 586.608,1088.092 C582.241,1090.6 577.73,1093.781 574.013,1094.959 C572.002,1095.598 569.716,1095.111 567.521,1095.73 C565.663,1096.229 563.905,1097.631 562.158,1098.393 C555.9,1101.195 543.233,1104.162 536.193,1099.164 C530.302,1103.867 519.584,1104.883 507.171,1104.883 C495.438,1104.883 485.707,1105.107 484.63,1095.73 C483.248,1098.006 481.816,1098.199 479.276,1098.393 C468.743,1099.227 458.707,1088.945 460.555,1078.146 C461.449,1072.986 464.466,1070.092 467.422,1066.687 C470.236,1063.508 472.755,1059.537 476.98,1058.287 C480.587,1051.309 485.189,1045.367 489.963,1039.557 C488.947,1038.803 488.927,1038.174 489.212,1035.359 C489.74,1030.27 492.066,1024.449 493.783,1018.945 C498.598,1003.625 504.287,987.748 507.923,971.201 C510.351,960.271 513.083,949.076 515.948,937.963 C518.843,926.666 520.956,915.33 522.825,903.588 C524.734,891.773 527.619,879.838 528.168,867.678 C528.768,854.594 527.844,841.205 528.168,827.187 C528.799,801.201 531.287,774.912 531.227,748.5 C512.697,749.232 493.844,748.023 476.595,744.682 C467.716,742.953 459.539,741.816 452.154,739.328 C444.424,736.717 437.537,733.346 431.137,728.643 C430.7,733.975 435.057,739.715 433.818,745.828 C432.142,748.176 428.638,745.697 427.713,745.443 C428.343,751.457 429.552,757.633 431.137,763.006 C432.315,766.969 433.757,771.205 430.375,774.852 C426.433,775.105 427.713,770.148 425.418,768.736 C426.758,805.387 428.089,844.09 428.089,882.568 C428.089,902.217 428.892,920.42 430.771,937.963 C432.386,952.824 437.445,966.131 436.876,982.648 C436.805,984.752 436.013,986.926 436.114,989.15 C436.368,993.803 438.806,999.359 440.31,1004.805 C444.291,1019.33 450.204,1039.129 441.843,1053.695 C440.411,1056.215 432.478,1060.582 428.852,1061.73 C427.226,1062.229 425.285,1062.391 423.507,1062.482 C420.765,1064.301 418.602,1067.014 415.482,1068.598 C410.871,1070.955 405.365,1072.234 399.818,1073.555 C393.907,1074.998 388.208,1074.836 381.493,1075.475 C377.796,1075.82 374.067,1076.959 370.411,1077.385 C358.535,1078.695 341.124,1079.193 331.83,1074.328 C330.712,1073.758 329.503,1072.701 328.386,1072.418 C326.191,1071.879 323.388,1072.51 321.123,1072.041 C315.271,1070.832 309.552,1066.363 305.083,1062.879 C298.602,1057.779 291.46,1052.02 292.101,1040.715 C292.862,1027.943 298.875,1014.709 303.173,1004.043 C307.866,992.463 312.478,980.912 317.313,970.428 C316.196,941.467 311.645,914.527 307.378,887.924 C305.316,874.941 302.319,862.619 298.978,850.113 C295.636,837.498 293.126,824.799 290.963,811.908 C289.876,805.357 289.053,798.703 287.52,792.039 C286.076,785.863 284.339,779.686 283.313,773.328 C282.236,766.389 281.78,759.33 281.027,752.32 C280.316,745.637 279.118,739.105 277.98,732.451 C274.059,709.34 270.717,685.551 268.036,661.404 C267.66,658.031 267.66,654.141 266.888,651.094 C266.319,648.787 264.815,646.258 263.83,643.83 C257.278,627.689 251,610.348 248.176,589.98 C244.956,566.77 244.031,540.531 248.562,516.242 C250.532,505.678 253.672,494.869 256.201,483.786 C260.975,462.769 266.512,439.313 266.512,414.639 C266.512,402.652 265.811,390.554 263.464,377.978 C256.486,377.592 251.68,380.903 246.652,382.935 C241.481,385.007 236.616,387.719 230.612,387.913 C231.181,389.782 229.109,390.604 227.931,391.346 C221.754,395.257 212.998,397.583 205.775,400.133 C198.187,402.774 190.559,406.076 182.473,407.772 C160.673,412.323 133.733,414.802 112.177,410.058 C107.931,409.113 103.472,408.402 99.581,407.386 C91.759,405.284 85.014,401.078 78.563,397.451 C66.82,390.808 55.941,384.307 49.155,373.01 C48.241,371.487 48.048,369.404 46.859,367.657 C45.711,365.94 43.324,364.701 41.912,363.076 C40.338,361.257 39.078,359.642 37.707,358.118 C30.626,350.246 23.19,340.849 18.599,330.61 C17.675,328.507 17.4,326.059 16.303,323.733 C15.49,321.945 13.733,320.553 13.256,318.379 C12.809,316.317 12.839,314.021 13.256,312.274 C13.733,310.324 16.303,307.855 17.827,305.397 C21.951,298.814 26.715,291.135 31.206,285.538 C38.296,276.659 45.976,269.812 53.36,262.986 C69.279,248.287 84.211,234.35 98.433,219.062 C96.208,207.644 98.717,194.784 99.967,183.924 C102.13,165.05 103.807,147.771 111.425,134.657 C116.271,126.337 122.345,118.739 128.227,110.968 C131.072,107.229 134.18,103.583 137.776,100.261 C139.594,98.625 141.443,97.122 143.129,95.304 C144.724,93.587 146.024,91.555 147.721,89.97 C150.86,86.994 154.964,84.983 158.031,81.925 C159.657,80.351 160.673,77.923 162.227,75.82 C166.199,70.477 171.268,64.9 175.595,59.404 C186.83,45.071 199.152,28.625 216.076,20.437 C222.872,17.146 230.765,14.687 240.913,15.48 C243.371,15.652 245.88,16.973 248.938,17.369 C251.447,17.694 252.504,16.811 255.053,17.369 C259.604,18.396 263.738,22.601 268.036,25.781 C272.231,28.899 276.721,31.743 279.879,34.954 C282.623,37.727 284.238,41.353 286.757,43.73 C288.992,45.833 292.283,46.757 294.396,49.083 C308.364,50.496 321.325,56.367 334.877,60.928 C341.602,63.183 348.692,64.727 354.757,67.419 C360.791,70.121 365.473,74.896 371.162,76.978 C376.454,78.888 379.248,78.146 384.53,76.592 C399.768,72.082 423.05,70.7 438.014,76.978 C454.033,83.693 463.775,98.595 473.537,111.729 C483.38,124.976 494.707,137.268 504.479,151.083 C511.804,161.363 517.98,171.826 527.03,181.253 C529.642,183.955 534.568,187.429 535.421,190.029 C538.602,199.71 532.912,214.227 530.454,220.22 C525.913,231.384 519.514,239.886 511.743,246.185 C506.937,250.105 500.284,253.407 493.417,255.743 C502.641,270.107 513.459,282.774 525.872,294.324 C531.51,299.546 538.672,304.788 544.971,310.74 C550.983,316.409 556.692,323.479 563.316,327.542 C566.018,329.208 569.451,330.518 572.479,332.134 C575.395,333.698 578.3,335.476 581.266,336.725 C587.848,339.488 595.487,340.219 603.035,342.079 C610.136,343.785 617.073,346.274 624.428,347.797 C631.874,349.321 639.604,350.439 647.335,351.617 C679.558,356.514 715.01,355.69 749.73,357.347 C767.437,358.18 785.173,358.87 802.422,358.87 C819.559,358.87 836.584,360.282 851.699,363.461 C881.219,369.679 902.958,383.89 921.994,400.885 C958.687,365.524 994.271,329.37 1030.485,293.176 C1036.62,287.031 1042.918,281.779 1050.334,277.126 C1053.879,274.932 1057.688,272.474 1061.031,269.874 C1062.717,268.563 1064.099,267.446 1066.384,266.054 C1068.151,264.977 1070,262.956 1072.479,263.382 C1075.638,267.842 1076.99,274.394 1078.229,280.956 C1082.108,301.384 1078.96,326.628 1071.737,340.931 M88.895,219.011 C88.935,219.285 88.945,219.539 88.955,219.813 C88.945,219.57 88.884,219.315 88.884,219.062 C88.884,219.051 88.895,219.042 88.895,219.011 M1083.063,338.269 C1087.106,327.237 1089.423,313.412 1089.423,299.698 C1089.423,292.618 1088.834,285.619 1087.615,279.158 C1086.05,270.981 1084.436,263.728 1080.29,257.856 C1078.818,255.784 1076.573,254.382 1074.063,253.956 C1068.232,252.99 1064.058,255.998 1062.067,257.44 L1055.688,261.93 L1055.17,262.316 C1052.172,264.672 1048.657,266.928 1045.295,269.03 C1037.646,273.805 1030.81,279.331 1023.72,286.421 L998.588,311.624 C973.486,336.816 947.553,362.74 921.537,387.974 C899.707,369.933 878.477,359.337 853.68,354.116 C838.585,350.926 821.336,349.321 802.422,349.321 C785.051,349.321 767.04,348.6 750.157,347.808 L718.534,346.751 C693.941,346.122 670.709,345.522 648.777,342.18 L646.137,341.774 L626.338,338.452 C626.338,338.442 614.808,335.404 614.808,335.404 L605.28,332.793 L597.266,331.087 C592.725,330.204 588.417,329.38 584.953,327.908 C584.942,327.908 579.722,325.226 579.722,325.226 L576.958,323.702 L572.489,321.518 L568.293,319.405 C564.718,317.211 561.102,313.483 557.262,309.521 L551.532,303.792 C551.522,303.792 540.592,294.345 540.592,294.345 L532.374,287.305 C523.069,278.661 514.993,269.62 507.872,259.918 C511.245,258.171 514.668,256.129 517.776,253.59 C527.092,246.032 534.334,236.016 539.302,223.806 C542.359,216.35 545.925,206.272 545.925,196.663 C545.925,193.372 545.509,190.121 544.493,187.053 C543.101,182.807 539.667,179.79 536.336,176.864 L533.887,174.63 C527.793,168.271 523.038,161.251 517.98,153.825 L512.271,145.536 C506.684,137.653 500.64,130.268 494.768,123.117 L481.207,106.041 L478.403,102.232 C469.139,89.584 458.614,75.261 441.711,68.161 C423.955,60.714 398.213,62.574 381.818,67.439 C377.125,68.831 376.79,68.852 374.413,67.978 C372.534,67.307 370.319,65.804 367.973,64.199 C365.301,62.38 362.253,60.319 358.647,58.703 C354.188,56.712 349.474,55.341 344.934,54.021 L337.924,51.877 C337.914,51.877 328.366,48.495 328.366,48.495 C318.877,45.03 309.034,41.577 298.49,40.073 C297.251,39.179 296.042,38.428 295.046,37.859 L293.299,36.782 C293.299,36.762 291.247,34.029 291.247,34.029 L286.666,28.239 C283.791,25.313 280.337,22.844 276.984,20.467 L273.725,18.121 C273.714,18.111 270.88,15.876 270.88,15.876 C267.06,12.808 262.732,9.313 257.146,8.064 L250.553,7.841 C250.553,7.841 250.045,7.892 250.035,7.902 C250.035,7.871 247.566,7.231 247.566,7.231 L241.645,5.952 C228.133,4.895 218.209,8.806 211.921,11.833 C193.839,20.58 181.05,36.934 169.754,51.359 L168.078,53.502 L162.399,60.43 L154.557,70.121 C154.557,70.142 152.363,73.484 152.363,73.484 L151.286,75.18 L147.203,78.319 L141.169,82.992 C141.159,83.002 137.552,87.075 137.552,87.075 L136.12,88.823 L133.063,91.697 L131.336,93.221 C127.719,96.563 124.215,100.464 120.628,105.187 C120.628,105.198 117.987,108.651 117.987,108.651 C112.878,115.335 107.585,122.253 103.177,129.852 C94.898,144.114 92.887,161.708 90.773,180.329 L90.479,182.837 L89.737,188.75 C88.895,195.099 87.99,201.976 87.99,208.934 C87.99,211.139 88.366,213.333 88.59,215.537 C75.607,229.23 61.985,242.029 46.88,255.977 L45.051,257.664 C38.001,264.144 30.708,270.849 23.749,279.575 C18.944,285.548 14.12,293.319 9.853,300.166 C9.73,300.348 8.298,302.278 8.298,302.278 C6.633,304.412 4.773,306.799 3.991,309.989 C3.585,311.665 3.392,313.483 3.392,315.301 C3.392,317.028 3.565,318.765 3.92,320.401 C4.652,323.712 6.317,325.998 7.323,327.369 C7.323,327.369 7.74,327.958 7.76,327.989 C7.76,328.121 8.37,330.021 8.37,330.021 L9.853,334.439 C15.43,346.883 24.358,357.549 30.606,364.508 C30.586,364.478 32.699,366.956 32.699,366.956 L34.669,369.303 C34.73,369.394 38.245,372.574 38.245,372.574 C38.245,372.574 38.651,372.909 38.956,373.153 C39.037,373.376 39.129,373.681 39.129,373.681 L40.978,377.927 C49.348,391.884 62.939,399.564 73.87,405.761 C73.88,405.781 76.288,407.142 76.288,407.142 C82.281,410.565 89.077,414.446 97.112,416.6 C97.153,416.61 105.137,418.367 105.137,418.367 L110.105,419.383 C136.983,425.295 168.21,420.5 184.422,417.118 C191.066,415.726 197.151,413.471 203.053,411.276 L208.924,409.144 C208.945,409.133 213.912,407.457 213.912,407.457 C220.18,405.395 227.281,403.059 233.041,399.412 C234.534,398.538 235.722,397.624 236.687,396.679 C240.679,395.816 244.163,394.384 247.302,393.022 L250.197,391.803 C250.228,391.793 254.108,390.077 254.108,390.077 C254.657,389.812 255.033,389.68 255.541,389.457 C256.486,397.167 256.962,405.354 256.962,414.639 C256.962,437.394 251.874,459.762 247.383,479.479 L246.876,481.664 L243.849,494.117 L239.176,514.505 C237.012,526.106 235.936,538.834 235.936,552.295 C235.936,564.768 236.85,577.873 238.708,591.303 C241.695,612.766 248.298,630.971 254.992,647.436 C254.992,647.445 256.394,650.576 256.394,650.576 L257.624,653.41 L258.213,658.549 L258.547,662.48 C261.209,686.504 264.582,710.58 268.554,734.057 C268.554,734.076 269.061,736.951 269.061,736.951 L271.53,753.314 C271.53,753.357 272.2,760.182 272.2,760.182 L273.876,774.791 C273.887,774.832 276.954,788.951 276.954,788.951 L278.213,794.203 C278.213,794.184 280.663,807.896 280.663,807.896 L281.546,813.463 C284.065,828.568 286.686,840.971 289.753,852.553 C292.608,863.248 295.808,875.977 297.941,889.426 C297.952,889.426 298.693,894.141 298.693,894.141 C302.553,918.062 306.475,942.809 307.633,968.732 C303.396,978.088 299.292,988.176 295.31,998.039 L294.314,1000.467 L292.801,1004.205 C288.575,1014.475 283.344,1027.264 282.572,1040.145 C282.542,1040.795 282.511,1041.455 282.511,1042.074 C282.511,1057.303 292.893,1065.449 299.191,1070.375 C304.209,1074.316 311.066,1079.723 319.203,1081.387 C319.152,1081.377 324.922,1081.764 324.922,1081.764 L325.673,1081.764 C326.151,1082.027 327.471,1082.83 327.471,1082.83 C339.031,1088.895 357.784,1088.377 371.457,1086.873 C371.478,1086.873 382.387,1084.984 382.387,1084.984 L388.198,1084.566 C392.627,1084.293 397.219,1084.029 402.063,1082.85 L402.734,1082.687 C408.463,1081.307 414.396,1079.873 419.82,1077.1 C422.695,1075.627 424.839,1073.768 426.556,1072.275 C426.556,1072.275 426.931,1071.951 427.195,1071.738 C428.688,1071.564 430.192,1071.311 431.716,1070.832 C433.869,1070.162 446.404,1064.992 450.143,1058.43 C454.206,1051.34 455.648,1043.619 455.648,1035.889 C455.648,1024.543 452.52,1013.186 449.959,1003.869 L449.513,1002.285 C449.513,1002.275 447.725,996.516 447.725,996.516 C446.76,993.549 445.744,990.49 445.643,988.633 C445.653,988.764 445.896,987.189 445.896,987.189 L446.425,982.943 C446.455,981.957 446.475,980.973 446.475,979.998 C446.475,969.818 444.667,960.941 442.91,952.336 C441.833,947.045 440.817,942.057 440.258,936.926 C438.501,920.48 437.638,902.703 437.638,882.568 C437.638,849.605 436.612,816.43 435.423,782.775 C436.114,782.348 436.835,781.941 437.404,781.322 C440.95,777.473 441.985,773.287 441.985,769.518 C441.985,765.941 441.041,762.773 440.421,760.68 L440.299,760.285 C439.72,758.354 439.243,756.242 438.796,754.107 C440.167,753.113 441.112,752.035 441.59,751.385 C442.361,750.289 442.91,749.049 443.174,747.719 C443.296,747.119 443.286,746.561 443.347,745.982 C445.277,746.764 447.044,747.687 449.086,748.369 C455.445,750.502 461.946,751.691 468.844,752.951 L474.776,754.057 C489.263,756.852 505.22,758.273 521.475,758.242 C521.25,770.229 520.701,782.258 520.072,794.01 L518.62,826.953 C518.62,827.086 518.701,845.959 518.701,845.959 C518.762,849.9 518.833,853.709 518.833,857.459 C518.833,860.76 518.782,864.01 518.62,867.23 C518.264,875.266 516.802,883.221 515.237,891.641 L513.398,902.053 C511.225,915.645 509.152,925.986 506.684,935.596 L498.608,969.129 C495.916,981.328 492.015,993.375 488.216,1005.039 L484.681,1016.08 C484.681,1016.1 483.401,1020.002 483.401,1020.002 C481.837,1024.664 480.221,1029.479 479.713,1034.355 C479.622,1035.197 479.521,1036.234 479.521,1037.361 C479.521,1037.393 479.531,1037.422 479.531,1037.443 C476.401,1041.375 473.324,1045.781 470.418,1050.77 C466.447,1052.984 463.744,1056.195 461.652,1058.725 L460.271,1060.391 C460.229,1060.432 459.306,1061.467 459.306,1061.467 C456.401,1064.77 452.398,1069.258 451.138,1076.521 C450.905,1077.924 450.783,1079.355 450.783,1080.768 C450.783,1087.289 453.312,1093.689 458.015,1098.859 C463.765,1105.158 472.003,1108.541 480.019,1107.91 C480.089,1107.91 480.191,1107.9 480.262,1107.891 C486.804,1114.32 498.059,1114.443 506.368,1114.443 L507.171,1114.443 C517.715,1114.443 528.28,1113.66 536.528,1109.811 C546.85,1113.295 559.364,1110.104 566.059,1107.117 C565.987,1107.158 569.076,1105.514 569.076,1105.514 C569.076,1105.514 569.848,1105.098 570.102,1104.955 C570.387,1104.934 571.087,1104.904 571.087,1104.904 L576.897,1104.061 C580.687,1102.852 584.404,1100.586 587.98,1098.383 L591.383,1096.35 C597.152,1092.998 602.852,1089.057 605.646,1082.811 C607.169,1079.477 607.383,1076.004 607.576,1072.936 L607.9,1069.238 C607.9,1069.268 608.734,1066.281 608.734,1066.281 L610.095,1061.293 C612.085,1051.299 613.325,1040.611 613.721,1030.383 C614.564,1008.035 620.558,988.672 626.348,969.93 L628.989,961.348 C632.22,950.682 635.622,939.121 638.67,926.891 C649.063,885.322 659.424,844.984 671.674,808.455 C671.674,808.475 672.415,806.301 672.415,806.301 C673.553,802.959 674.6,799.547 675.443,796.092 C680.105,803.498 685.226,810.264 690.284,816.887 L694.348,822.24 C700.717,830.691 703.927,840.109 705.104,852.988 C704.404,854.928 704.344,856.666 704.323,857.59 L704.303,857.986 C703.846,862.75 703.714,867.637 703.714,872.482 C703.714,875.287 703.754,878.07 703.805,880.822 L703.876,888.686 C703.876,920.156 701.021,946.252 695.466,966.498 C691.818,970.998 687.907,976.066 684.931,982.365 C676.773,985.635 665.823,991.619 661.526,1001.33 C660.084,1004.611 659.383,1008.076 659.383,1011.437 C659.383,1015.531 660.419,1019.494 662.48,1022.928 C664.695,1026.613 667.957,1029.234 671.715,1030.789 C675.687,1037.412 682.351,1042.217 690.386,1043.629 C694.287,1044.32 697.903,1044.035 701.093,1043.801 C702.738,1043.67 704.272,1043.578 705.501,1043.629 C706.832,1044.311 708.63,1045.234 708.63,1045.234 C716.98,1047.895 724.375,1046.219 730.917,1044.736 L734.441,1043.965 C734.422,1043.965 739.023,1043.061 739.023,1043.061 L749.67,1040.836 L761.788,1037.209 L764.155,1036.416 C764.165,1036.416 769.031,1035.066 769.031,1035.066 C772.322,1034.242 775.726,1033.369 779.088,1031.734 C781.606,1030.516 783.964,1028.514 785.863,1026.898 C785.863,1026.898 786.22,1026.604 786.574,1026.299 C788.088,1025.994 789.408,1025.74 789.408,1025.74 C789.408,1025.73 793.858,1018.863 793.858,1018.863 L792.223,1022.357 C793.33,1021.037 794.011,1019.564 794.721,1018.121 C795.737,1017.969 796.702,1017.969 797.77,1017.553 C799.679,1016.852 801.305,1015.531 802.411,1013.834 C804.596,1010.473 805.723,1006.439 805.723,1002.164 C805.723,1000.74 805.601,999.289 805.348,997.826 C805.337,997.836 803.701,993.244 803.406,992.391 C803.265,991.385 803.163,990.318 803.163,989.119 C803.163,985.219 803.813,980.516 804.392,976.229 L804.646,974.35 C804.637,974.381 806.729,955.354 806.729,955.354 C807.439,947.918 808.12,940.898 809.187,934.102 L812.528,915.35 L816.063,895.512 C816.897,890.34 818.075,885.17 820.025,878.293 L822.24,867.646 L823.896,859.418 C826.994,847.717 828.548,836.949 828.548,827.207 C828.548,820.92 827.898,815.068 826.608,809.674 C825.155,803.549 822.758,798.186 820.635,793.461 L816.877,784.197 C815.363,779.361 814.692,774.201 814.692,769 C814.692,756.516 818.502,743.768 823.418,734.727 C825.562,730.814 827.553,727.057 829.412,723.258 C832.043,724.111 834.604,723.918 836.777,723.299 C839.164,722.627 840.881,721.398 842.171,719.904 C848.824,731.82 855.732,744.021 864.529,754.891 C872.026,764.123 879.735,772.088 886.959,779.311 C895.431,787.732 902.805,793.939 910.2,798.855 C912.354,800.258 913.512,801.781 915.939,805.082 L917.007,806.525 C922.635,814.031 927.886,821.365 930.518,829.117 C934.296,840.148 935.972,854.604 937.577,868.592 L938.105,872.99 C938.105,873.012 939.558,886.014 939.558,886.014 C940.889,898.184 942.118,909.672 944.313,921.039 C944.313,921.059 947.746,936.693 947.746,936.693 C950.723,949.523 953.566,961.754 953.566,976.371 C953.566,978.148 953.485,980.008 953.383,981.867 C951.474,985.697 949.523,990.176 947.451,995.041 C944.617,1001.707 941.681,1008.613 938.928,1013.408 L936.826,1016.547 C934.266,1020.154 930.771,1025.02 930.771,1032.332 C930.771,1032.525 930.771,1032.74 930.781,1032.943 C930.964,1039.932 933.828,1043.74 935.922,1046.504 L937.028,1048.027 C937.049,1048.047 938.045,1049.623 938.045,1049.623 C939.507,1052.029 943.001,1057.199 949.595,1058.461 C954.704,1063.57 961.632,1064.484 967.463,1065.186 L969.647,1065.459 C969.678,1065.469 972.146,1065.795 972.146,1065.795 C975.771,1066.303 979.531,1066.82 983.065,1066.678 C987.819,1066.506 991.335,1065.195 993.885,1064.24 C995.51,1063.641 996.484,1063.305 997.409,1063.205 C997.318,1063.215 999.837,1063.508 999.837,1063.508 L1003.931,1063.996 C1015.136,1064.676 1023.354,1063.498 1029.946,1060.35 C1034.771,1060.857 1038.316,1059.049 1040.439,1057.881 L1042.105,1057.037 C1047.602,1054.529 1055.586,1049.744 1059.943,1044.562 C1066.485,1036.752 1065.937,1027.428 1065.471,1019.197 L1065.236,1014.109 C1065.135,1012.088 1064.403,1009.965 1063.144,1008.389 C1058.177,1002.203 1058.42,986.875 1058.644,973.363 L1058.735,964.324 C1058.735,949.664 1058.999,935.129 1059.486,922.279 L1060.95,903.801 C1061.62,896.76 1062.331,889.486 1062.564,882.104 C1063.031,867.424 1062.768,852.947 1061.772,839.113 C1060.705,823.58 1058.44,811.035 1050.902,800.297 C1048.068,796.285 1045.407,792.477 1043.884,788.777 C1038.428,775.553 1038.824,755.205 1039.181,735.52 C1039.181,735.52 1039.262,711.535 1039.262,711.516 C1039.262,711.148 1039.241,704.332 1039.241,704.332 C1039.262,702.951 1039.282,701.568 1039.282,700.158 C1039.282,696.865 1039.19,693.523 1038.824,690.162 C1038.824,690.121 1037.362,684.32 1037.362,684.32 L1036.783,682.422 C1036.783,682.41 1036.356,679.516 1036.356,679.516 L1035.605,674.631 C1032.821,661.699 1030.749,646.734 1029.297,628.928 L1029.042,625.779 C1027.366,605.127 1025.639,583.795 1021.475,564.291 C1015.715,537.238 1004.51,515.388 993.672,494.28 C989.334,485.788 985.26,477.6 981.44,469.209 C984.914,466.213 988.491,463.155 992.016,460.94 C991.995,460.94 997.074,458.055 997.074,458.055 L1004.865,453.515 L1017.156,444.789 C1033.868,432.02 1048.638,420.013 1060.238,402.307 L1062.93,398.193 L1068.212,390.147 L1069.432,388.36 C1074.033,381.675 1077.081,376.881 1077.081,371.944 L1077.081,371.538 C1077.04,370.095 1076.786,368.866 1076.421,367.789 C1077.081,366.407 1077.711,364.985 1078.392,363.441 L1079.681,360.485 C1079.701,360.444 1080.829,358.098 1080.829,358.098 C1082.657,354.35 1084.852,349.88 1084.852,345.156 C1084.852,343.978 1084.72,342.769 1084.414,341.561 C1084.09,340.352 1083.633,339.254 1083.063,338.269" fill="#5B5958"/>
      <path d="M262.621,482.202 L262.621,482.202 C262.661,482.456 262.661,482.71 262.712,482.974 C262.661,482.72 262.621,482.456 262.621,482.202 M311.086,552.07 C304.981,544.187 299.201,536.752 293.766,527.67 C289.053,519.727 280.499,504.144 276.142,489.069 C276.152,489.069 275.39,485.432 275.39,485.432 C274.872,482.567 274.283,479.317 273.308,477.184 C271.093,472.064 267.639,472.714 266.633,473.039 C264.074,473.862 262.448,476.889 262.448,480.435 C262.448,480.597 262.489,480.749 262.489,480.911 C261.819,481.593 261.159,482.587 261.118,484.132 C261.128,483.909 261.138,483.776 261.189,483.563 L257.917,497.287 C255.541,506.744 253.113,516.516 252.077,527.61 C251.782,528.168 251.559,528.879 251.559,529.875 C251.559,529.926 251.569,530.973 251.569,531.744 C251.346,532.262 251.183,532.871 251.183,533.674 L251.183,534.242 C250.919,534.842 250.756,535.432 250.756,535.928 C250.756,536.305 250.807,536.619 250.837,536.844 C250.848,536.945 250.898,536.752 250.939,536.549 C250.868,536.854 250.807,537.187 250.807,537.32 L250.807,540.449 C250.563,540.988 250.4,541.637 250.4,542.502 C250.4,542.756 250.421,543.029 250.441,543.314 L250.482,543.711 L250.573,543.223 C250.532,543.416 250.421,543.994 250.421,544.187 L250.421,562.148 C250.421,562.209 250.451,562.381 250.482,562.533 L250.472,562.502 C250.431,562.797 251.233,566.322 251.233,566.322 C251.183,566.1 250.807,564.676 250.807,564.443 L250.807,568.252 C250.807,568.293 250.837,568.436 250.858,568.537 C250.817,568.83 250.767,569.197 250.767,569.613 C250.767,570.152 250.919,570.73 251.183,571.32 C251.183,571.381 251.213,571.654 251.213,571.666 L251.213,571.859 C251.213,572.66 251.356,573.301 251.569,573.818 L251.569,575.139 C251.569,575.15 251.599,575.506 251.599,575.516 L251.599,575.687 C251.599,576.592 251.802,577.273 252.066,577.822 C253.57,598.941 259.269,616.24 265.506,633.52 C270.615,647.578 272.739,663.658 274.994,680.693 C274.994,680.693 276.091,688.76 276.294,690.346 C274.811,691.543 273.328,693.27 273.328,695.932 C273.328,696.094 273.328,696.268 273.338,696.439 C273.652,700.066 276.548,701.406 278.112,702.127 C278.112,702.127 279.047,702.625 279.25,702.738 C279.585,703.307 280.377,704.576 280.377,704.576 C284.339,708.082 287.133,710.092 288.85,710.691 C294.498,712.5 300.735,710.711 301.924,710.326 C302.645,710.102 303.264,709.625 303.671,708.984 C304.809,707.166 304.89,704.922 304.961,702.92 C304.981,702.25 305.042,701.367 305.164,700.707 C305.174,700.695 305.214,700.676 305.214,700.676 C306.403,700.197 308.394,699.365 309.339,696.439 C309.522,695.881 309.613,695.293 309.613,694.652 C309.613,692.924 309.014,690.873 308.252,688.283 C307.479,685.652 306.606,682.635 306.434,679.973 C306.403,679.414 306.382,678.887 306.382,678.379 C306.382,672.965 308.151,670.141 310.324,666.625 L313.849,659.971 C315.658,655.461 316.237,649.682 316.846,643.555 L317.12,640.783 C318.573,627.262 321.56,615.305 324.282,605.391 L324.841,603.432 C326.242,598.383 327.848,592.674 328.212,586.781 C328.243,586.1 328.264,585.439 328.264,584.801 C328.264,574.389 323.072,567.643 318.847,562.178 z M777.26,359.388 C777.808,359.784 778.235,360.353 778.458,361.013 C778.225,360.302 777.758,359.825 777.26,359.388 M768.858,358.86 C769.478,359.215 770.017,359.683 770.291,360.353 C769.976,359.571 769.396,359.236 768.858,358.86 M747.709,357.966 C748.268,358.22 748.755,358.585 749.08,359.124 C748.715,358.515 748.206,358.261 747.709,357.966 M703.043,356.473 C703.592,356.737 704.09,357.113 704.425,357.651 C704.049,357.052 703.531,356.778 703.043,356.473 M693.981,356.158 C694.592,356.483 695.119,356.94 695.414,357.58 C695.059,356.849 694.53,356.514 693.981,356.158 M496.403,142.905 C497.033,143.189 497.48,143.708 497.806,144.287 C497.318,143.84 497.013,143.189 496.403,142.905 M495.073,141.148 C495.073,141.127 495.063,141.117 495.063,141.107 C495.55,141.351 495.946,141.575 496.231,142.001 C495.865,141.696 495.5,141.381 495.073,141.148 M493.366,139.086 C494.006,139.391 494.443,139.919 494.758,140.518 C494.27,140.051 493.986,139.38 493.366,139.086 M491.558,136.861 C492.086,137.146 492.502,137.562 492.777,138.049 C492.36,137.684 492.066,137.135 491.558,136.861 M487.83,132.3 C488.317,132.594 488.724,133.021 488.998,133.509 C488.572,133.123 488.338,132.594 487.83,132.3 M483.614,127.333 C484.112,127.637 484.528,128.054 484.813,128.542 C484.386,128.176 484.112,127.627 483.614,127.333 M482.08,125.484 L482.08,125.474 C482.588,125.769 482.975,126.174 483.248,126.662 C482.863,126.286 482.598,125.769 482.08,125.484 M480.537,123.594 C480.537,123.584 480.537,123.584 480.526,123.574 C481.064,123.869 481.471,124.285 481.755,124.813 C481.339,124.407 481.064,123.869 480.537,123.594 M479.033,121.766 C479.033,121.746 479.023,121.736 479.023,121.736 C479.521,122.01 479.916,122.386 480.181,122.874 C479.784,122.518 479.521,122.01 479.033,121.766 M478.748,121.502 C478.789,121.512 478.81,121.553 478.851,121.573 L478.851,121.593 C478.81,121.573 478.789,121.512 478.748,121.502 M477.336,119.602 C477.936,119.907 478.383,120.405 478.687,120.984 C478.209,120.547 477.956,119.907 477.336,119.602 M534.202,189.928 C533.583,188.546 532.526,187.469 531.165,186.83 C531.104,186.809 531.032,186.809 530.972,186.779 C528.706,184.31 526.31,181.913 523.82,179.638 C523.771,179.526 523.79,179.394 523.729,179.292 C523.201,178.429 522.388,177.88 521.657,177.23 C521.626,177.128 521.637,177.017 521.596,176.925 C521.148,175.95 520.418,175.188 519.584,174.579 L514.231,166.787 L499.075,145.354 C499.187,145.505 499.339,145.75 499.42,145.912 C499.126,145.303 498.476,144.998 498.019,144.521 C497.968,144.337 497.978,144.155 497.887,143.982 C497.49,143.179 496.901,142.56 496.241,142.011 C495.905,141.483 495.367,141.148 494.941,140.711 C494.859,140.437 494.859,140.143 494.707,139.919 C494.27,139.177 493.559,138.771 492.959,138.222 C492.909,138.07 492.929,137.917 492.848,137.775 C492.137,136.445 491.081,135.368 489.73,134.596 C490.257,134.88 490.664,134.972 490.949,135.51 C490.522,134.708 489.74,134.21 489.099,133.61 C489.018,133.387 489.018,133.123 488.896,132.93 C488.338,132.066 487.556,131.538 486.845,130.929 C486.783,130.776 486.804,130.593 486.722,130.451 C486.317,129.73 485.595,129.303 485.006,128.745 C484.955,128.603 484.975,128.45 484.915,128.318 C484.59,127.688 483.949,127.373 483.482,126.896 C483.421,126.733 483.442,126.561 483.37,126.408 C483.066,125.789 482.436,125.504 481.979,125.037 C481.918,124.864 481.938,124.661 481.857,124.499 C481.542,123.889 480.902,123.604 480.435,123.117 C480.394,122.995 480.414,122.842 480.343,122.701 C480.049,122.041 479.389,121.736 478.901,121.217 C478.86,121.044 478.86,120.872 478.789,120.709 C478.332,119.734 477.59,118.982 476.717,118.373 L465.969,103.44 L462.8,99.194 C462.902,99.327 462.983,99.458 463.054,99.601 C462.353,98.26 461.286,97.173 459.936,96.4 C460.402,96.665 460.798,96.695 461.083,97.163 C460.525,96.228 459.61,95.506 458.727,94.765 C458.614,94.511 458.635,94.207 458.432,93.983 C455.913,91.149 453.444,88.691 450.874,86.456 C450.651,86.263 450.326,86.283 450.072,86.161 C450.539,86.446 450.956,86.852 451.22,87.36 C450.956,86.852 450.396,86.567 450.031,86.141 C449.98,86.131 449.939,86.101 449.878,86.08 C449.919,86.101 449.98,86.09 450.01,86.131 C449.411,85.44 448.934,84.648 448.091,84.17 C440.776,78.695 433.158,75.708 424.27,74.764 C423.163,74.124 421.984,74.164 421.436,74.225 C421.405,74.225 421.395,74.235 421.395,74.235 C421.395,74.266 421.558,74.296 421.72,74.337 C421.416,74.276 421.06,74.205 420.917,74.205 L407.915,74.205 C407.854,74.205 407.702,74.225 407.56,74.255 C407.265,74.215 403.75,75.007 403.75,75.007 C403.973,74.957 405.396,74.57 405.629,74.57 L402.572,74.57 C402.562,74.57 402.206,74.601 402.186,74.601 L402.023,74.601 C401.119,74.601 400.448,74.794 399.91,75.058 C396.081,75.18 392.312,76.175 388.969,77.11 C385.343,78.116 381.92,79.071 379.654,78.522 C379.411,78.471 378.883,78.451 378.628,78.451 L378.456,78.441 C377.867,78.42 377.41,78.542 376.962,78.665 C376.464,78.522 375.988,78.38 375.266,78.42 C370.888,78.146 368.491,76.643 365.189,74.581 L364.143,73.94 C364.163,73.94 362.467,72.884 362.467,72.884 L355.427,68.8 C351.303,66.799 346.559,65.398 341.977,64.047 L338.188,62.909 L331.626,60.44 C328.081,58.978 324.749,57.779 321.691,57.332 C321.346,57.078 321.062,56.763 320.625,56.55 C317.557,55.392 310.283,55.046 307.033,55.087 L307.003,55.087 C299.231,55.29 290.973,57.83 283.882,60.268 C260.254,68.425 243.696,80.158 230.612,90.549 L225.401,94.653 C216.97,101.276 208.274,108.123 200.859,116.077 C200.849,116.077 190.904,128.105 190.904,128.105 L188.222,131.508 C184.047,136.81 179.74,142.296 176.986,148.269 C175.097,152.383 174.031,157.137 172.873,162.175 L170.719,170.861 C169.683,174.366 168.332,177.148 167.012,179.871 C165.081,183.833 163.263,187.582 162.948,192.569 C162.471,200.299 163.7,208.294 164.767,215.333 L164.898,216.177 L165.691,221.002 C166.707,226.904 167.671,232.491 167.164,238.332 C166.92,241.228 166.097,244.102 165.224,247.16 C164.269,250.522 163.273,254.006 162.948,257.815 C162.41,264.479 161.8,278.752 163.425,285.182 C164.147,288.036 166.036,290.667 167.845,293.228 L168.87,294.66 C173.868,301.709 181.497,311.208 189.593,316.51 C201.499,324.251 215.486,329.218 229.018,334.013 L247.435,340.87 L257.46,344.1 C261.229,345.167 264.774,346.152 267.903,347.645 C269.864,348.569 271.611,349.931 273.46,351.394 C275.553,353.009 277.707,354.706 280.458,356.056 C284.41,357.986 290.271,359.256 299.495,360.191 C299.525,360.191 304.291,360.678 304.291,360.678 C309.969,361.288 315.83,361.908 320.574,361.725 C329.026,361.359 335.304,358.454 341.388,355.66 L344.659,354.167 C360.343,347.3 375.124,338.848 386.247,332.255 C386.267,332.245 394.678,327.583 394.678,327.583 C401.302,324.068 407.539,320.746 412.801,315.758 L421.669,306.911 L434.103,294.853 C434.113,294.833 438.715,291.308 438.715,291.308 C438.715,291.308 442.27,288.534 443.367,287.681 C450.864,286.127 455.679,282.51 460.271,278.965 L461.825,277.767 C461.825,277.777 462.902,276.974 462.902,276.974 C465.035,275.43 467.544,273.5 469.006,270.686 C472.816,269.64 476.097,267.344 476.097,263.829 C476.097,263.555 476.087,263.281 476.046,262.986 C475.883,261.838 475.112,260.863 474.024,260.457 C472.765,259.979 471.18,259.705 469.535,259.603 C471.12,258.974 472.654,258.222 474.279,257.653 L483.472,254.728 C493.519,251.64 503.017,248.694 510.066,242.792 C510.991,242.233 511.671,241.379 512.382,240.546 C512.636,240.425 512.951,240.476 513.174,240.252 L519.626,233.802 C519.859,233.547 519.809,233.233 519.94,232.969 C520.631,232.349 521.394,231.811 521.859,230.998 C527.285,222.577 534.66,211.098 534.66,195.25 C534.66,193.87 534.599,192.437 534.477,190.974 C534.446,190.619 534.354,190.253 534.202,189.928 M115.479,207.481 C116.129,207.187 116.423,206.547 116.921,206.069 C116.596,206.679 116.139,207.177 115.479,207.481 M113.863,209.655 C114.361,209.371 114.615,208.833 115.042,208.466 C114.757,208.934 114.361,209.371 113.863,209.655 M111.954,211.951 C112.441,211.657 112.706,211.139 113.122,210.783 C112.847,211.25 112.441,211.667 111.954,211.951 M110.135,213.973 C110.785,213.678 111.08,213.038 111.578,212.571 C111.243,213.16 110.795,213.678 110.135,213.973 M168.403,73.087 C168.555,72.833 168.789,72.427 169.033,72.051 C168.749,72.498 168.403,73.087 168.403,73.087 M208.935,27.67 C208.498,28.127 207.888,28.401 207.583,28.991 C207.888,28.401 208.386,27.975 208.935,27.67 M225.828,61.71 C225.97,61.659 226.102,61.629 226.234,61.578 C226.153,61.608 225.797,61.761 225.797,61.741 z M282.815,50.821 C282.999,50.831 283.212,50.76 283.415,50.719 C283.212,50.76 283.029,50.851 282.805,50.841 C282.805,50.831 282.815,50.831 282.815,50.821 M283.425,49.328 C283.435,49.266 283.486,49.205 283.507,49.134 C283.497,49.155 283.415,49.632 283.415,49.602 C283.415,49.602 283.415,49.398 283.425,49.328 M285.558,49.591 C285.173,49.835 284.715,50.028 284.157,50.028 C284.685,50.028 285.111,49.805 285.558,49.591 M183.711,112.41 C192.752,105.563 200.96,100.403 211.139,95.141 L218.158,91.921 L226.874,87.848 C231.384,85.338 235.478,82.291 239.826,79.061 C244.265,75.749 248.867,72.315 253.997,69.501 L259.371,66.627 L270.961,60.319 C276.629,57.261 281.027,54.508 282.693,51.125 C283.191,51.075 283.689,50.881 284.177,50.566 C284.675,50.404 285.121,50.028 285.589,49.581 C286.29,49.215 286.9,48.687 287.173,47.885 C287.356,47.357 287.427,46.849 287.427,46.381 C287.427,44.37 286.046,42.816 285.142,41.81 L284.359,40.865 C283.771,39.789 283.019,39.017 282.186,38.356 C282.094,38.234 282.125,38.051 282.023,37.93 C280.226,35.786 278.224,33.775 275.897,31.814 C275.685,31.631 275.369,31.642 275.116,31.53 C274.405,30.687 273.765,29.783 272.81,29.224 C272.769,29.204 272.739,29.214 272.698,29.183 C272.109,28.503 271.429,27.903 270.575,27.538 C270.788,27.629 271.002,27.741 271.174,27.883 L269.234,26.41 C265.455,23.515 261.523,20.528 257.034,18.091 C256.313,17.684 255.48,17.593 254.697,17.796 C252.636,18.345 249.73,17.593 247.729,16.628 C247.068,16.12 246.205,15.714 244.752,15.785 L244.336,15.785 C243.757,15.521 243.046,15.348 242.081,15.388 C242.122,15.419 237.479,15.582 237.479,15.582 L235.265,15.785 C235.387,15.774 234.716,15.785 234.838,15.795 C233.701,15.765 232.938,16.049 232.319,16.415 C222.709,18 215.812,22.296 210.133,26.298 C210.286,26.197 210.438,26.095 210.6,26.024 C209.96,26.329 209.615,27 209.127,27.487 C208.924,27.548 208.701,27.538 208.498,27.649 C207.675,28.107 207.116,28.899 206.486,29.62 C206.202,29.752 205.847,29.722 205.603,29.965 L194.723,40.875 C194.53,41.079 194.571,41.363 194.449,41.577 C193.26,42.552 192.092,43.608 191.087,44.929 C190.955,45.112 190.964,45.366 190.873,45.579 C189.959,46.341 189.014,47.092 188.323,48.118 C188.212,48.301 188.222,48.525 188.141,48.728 C187.369,49.388 186.536,49.978 185.977,50.872 C185.845,51.075 185.855,51.339 185.784,51.562 C185.053,52.263 184.311,52.984 184.311,52.984 C183.986,53.309 183.895,53.461 183.895,53.675 C183.895,53.706 183.905,53.767 183.915,53.807 C183.356,54.366 182.767,54.975 182.767,54.975 C182.452,55.29 182.381,55.443 182.381,55.646 L182.381,55.717 C181.862,56.235 181.263,56.804 181.263,56.804 C181.142,56.916 181.73,56.113 181.64,56.245 L178.856,59.963 C177.505,61.883 176.215,63.691 174.67,65.093 C173.502,65.926 172.243,67.186 171.207,68.618 C171.207,68.628 170.922,69.075 170.922,69.085 L170.343,69.806 C170.343,69.806 169.774,70.792 169.236,71.706 C167.905,72.661 167.153,73.849 167.153,75.353 C167.153,75.475 167.153,75.586 167.164,75.698 C167.214,76.643 168.484,77.679 169.47,78.309 C169.439,78.319 169.409,78.339 169.388,78.36 C168.962,78.126 168.484,77.872 168.484,77.872 C168.505,77.892 168.85,78.126 169.267,78.411 C168.119,78.898 166.91,79.426 165.782,79.904 L162.562,81.346 C162.41,81.407 162.257,81.489 162.115,81.57 C159.382,83.327 157.32,85.582 155.339,87.766 C155.339,87.766 154.76,88.375 154.242,88.955 C154.171,89.005 154.161,88.965 154.07,89.046 C154.07,89.046 153.237,89.869 152.424,90.651 C152.089,90.783 151.692,90.783 151.418,91.037 C148.919,93.231 146.604,95.598 144.439,98.046 C144.257,98.138 144.023,98.117 143.871,98.25 C141.9,99.844 139.97,101.774 138.111,103.958 C137.949,104.151 137.959,104.436 137.857,104.659 C136.902,105.441 135.958,106.234 135.246,107.26 C135.114,107.453 135.135,107.717 135.043,107.951 C134.383,108.53 133.642,109.047 133.194,109.82 C133.367,109.535 130.909,112.827 130.909,112.827 L125.565,120.456 C125.667,120.313 126.713,119.378 126.835,119.247 L123.93,122.203 C123.869,122.263 124.407,121.512 124.356,121.573 C116.454,130.949 107.352,144.5 106.133,166.28 C105.838,166.849 105.645,167.549 105.645,168.504 L105.645,169.134 C105.421,169.672 105.259,170.343 105.259,171.176 L105.259,174.203 C105.046,174.731 104.873,175.331 104.873,176.143 C104.873,176.214 104.883,177.402 104.883,178.286 C104.66,178.825 104.497,179.485 104.497,180.329 C104.497,180.41 104.507,180.48 104.507,180.552 C104.487,184.077 104.041,186.83 103.583,189.765 C103.583,189.765 102.913,195.484 102.72,197.211 C102.425,197.77 102.211,198.461 102.211,199.436 L102.211,199.649 L102.211,200.025 L102.211,200.178 C101.988,200.685 101.826,201.305 101.826,202.107 L101.826,202.331 C101.826,202.301 101.836,202.971 101.836,202.951 L101.826,206.14 C101.704,209.869 101.612,213.383 103.705,215.364 L107.189,216.563 C108.063,216.878 107.717,216.614 108.51,216.156 C109.871,215.375 110.907,214.298 111.639,212.967 C111.73,212.773 111.73,212.561 111.781,212.357 C112.248,211.88 112.929,211.585 113.234,210.956 C113.284,210.844 113.264,210.702 113.315,210.58 C113.914,210 114.635,209.563 115.052,208.843 C115.143,208.68 115.123,208.487 115.184,208.304 C115.814,207.715 116.565,207.237 116.982,206.466 C117.073,206.283 117.073,206.059 117.134,205.866 C117.612,205.379 118.282,205.094 118.577,204.455 C118.475,204.637 118.435,204.728 118.313,204.911 L120.029,202.616 C121.34,200.899 122.599,199.03 123.687,196.907 C123.91,197.262 124.215,197.587 124.601,197.862 C125.504,198.471 126.652,198.379 127.658,197.963 C133.631,195.403 135.246,189.075 135.896,183.488 C138.72,180.653 139.482,177.809 140.031,175.249 L141.138,171.511 C141.585,170.587 142.55,169.51 143.586,168.352 L147.101,163.811 L149.438,158.366 L151.327,153.846 C151.347,153.825 154.08,150.3 154.08,150.3 L156.904,146.847 L162.044,138.131 C168.058,127.068 174.528,119.378 183.711,112.41" fill="#C5732E"/>
      <path d="M219.347,233.547 C219.103,233.314 218.899,233.06 218.727,232.745 L218.727,232.4 C216.99,231.048 215.416,229.545 213.983,227.869 L213.627,227.869 C212.866,227.473 212.266,226.894 211.81,226.163 C208.112,224.263 205.521,221.287 200.889,220.291 C200.341,220.189 199.559,220.403 199.437,219.935 L197.974,219.935 C197.913,220.423 197.1,220.25 196.521,220.291 C193.9,220.078 191.727,224.527 194.713,225.472 C195.221,225.817 196.877,226.823 196.155,227.199 C194.764,231.963 192.976,236.402 192.885,242.406 C192.712,242.934 193.311,244.234 192.519,244.173 L192.519,247.292 C192.316,248.907 192.996,251.416 192.153,252.483 L192.153,256.993 C192.996,257.907 192.316,260.304 192.519,261.838 L192.519,264.937 C193.057,265.028 192.844,265.77 192.885,266.338 C193.026,271.621 194.947,275.227 197.252,278.467 C196.562,278.701 196.277,279.381 196.155,280.194 L196.155,282.592 C198.492,283.658 202.312,284.044 204.892,282.968 C214.938,287.041 226.244,282.074 232.553,277.432 C233.071,277.482 233.497,277.462 233.904,277.411 C232.989,271.265 231.333,261.402 229.881,257.023 C227.179,248.846 222.841,241.329 219.347,233.547" fill="#5F5551"/>
      <path d="M245.656,261.493 C245.017,261.178 244.519,260.721 244.194,260.101 L243.828,260.101 C242.955,259.553 242.224,258.862 241.645,258.029 L240.923,258.029 C239.734,257.887 239.338,256.993 238.729,256.271 C238.586,255.063 237.53,254.687 237.266,253.488 C236.524,253.102 235.915,252.513 235.458,251.792 L235.458,251.446 C234.219,250.542 233.122,249.516 232.187,248.317 L232.187,247.962 C229.972,246.164 227.91,244.204 226,242.07 C224.06,239.449 221.846,237.052 220.18,234.137 C219.865,233.984 219.581,233.781 219.347,233.547 C222.841,241.329 227.179,248.846 229.881,257.023 C231.333,261.402 232.989,271.265 233.904,277.411 C235.661,277.187 236.474,276.09 238.018,275.694 C238.82,274.587 239.795,273.693 240.923,272.921 C243.707,271.946 244.295,267.964 243.462,264.611 C242.771,264.236 244.438,263.22 244.925,262.885 C246.053,263.22 245.575,262.103 245.656,261.493" fill="#FEFEFE"/>
      <path d="M791.125,362.487 C789.012,361.481 786.544,361.846 784.309,362.507 C783.669,361.867 782.714,361.349 781.059,361.42 L761.535,361.42 C759.27,360.881 756.648,360.942 754.109,361.034 L749.994,361.044 L745.495,361.044 C744.712,360.77 743.88,360.536 742.742,360.668 L742.264,360.708 C742.092,360.678 741.97,360.668 741.807,360.668 L737.865,360.668 C736.637,360.099 735.255,360.211 734.574,360.272 L733.935,360.302 C733.751,360.272 733.559,360.242 733.376,360.242 L727.312,360.242 C726.103,359.754 724.771,359.805 723.837,359.865 L722.892,359.917 C722.942,359.917 722.282,359.865 722.333,359.865 L716.747,359.865 C715.527,359.337 714.177,359.429 713.293,359.5 L712.49,359.55 C712.551,359.55 711.911,359.51 711.972,359.51 L705.938,359.51 C704.699,358.992 703.327,359.053 702.373,359.124 L701.407,359.175 C701.458,359.175 700.859,359.124 700.91,359.124 L693.992,359.124 C692.723,358.636 691.34,358.667 690.305,358.749 L689.167,358.789 C689.208,358.789 688.639,358.749 688.68,358.749 L682.655,358.749 C681.396,358.24 680.024,358.281 679.069,358.362 L678.145,358.413 C678.187,358.403 677.586,358.362 677.647,358.362 L672.07,358.362 C670.831,357.834 669.479,357.905 668.597,357.986 L667.804,358.027 C667.855,358.027 667.234,357.986 667.286,357.986 L663.009,357.986 C661.75,357.417 660.327,357.529 659.646,357.601 L659.017,357.641 C658.875,357.621 658.702,357.601 658.539,357.601 L654.923,357.601 C654.162,357.265 653.196,357.092 651.825,357.214 L651.327,357.255 C651.175,357.234 651.022,357.214 650.86,357.214 L648.514,357.214 C647.813,356.91 646.908,356.727 645.629,356.838 L645.242,356.869 L645.73,356.96 C645.527,356.919 644.958,356.808 644.765,356.808 L643.536,356.808 L612.573,350.733 C612.381,350.236 612.117,349.738 611.689,349.22 C611.344,348.793 610.715,348.407 610.196,348.204 C602.131,345.035 596.482,345.299 595.762,347.432 L590.378,346.375 C590.438,348.224 591.23,349.606 592.155,350.693 C591.83,351.485 591.149,353.151 591.149,353.151 C591.059,353.385 591.018,353.506 591.018,353.578 C591.018,353.72 591.16,353.7 591.322,354.167 C592.704,358.169 596.401,359.49 599.307,360.394 C599.367,360.577 600.303,363.583 600.303,363.583 C600.648,364.731 601.013,364.508 602.201,364.681 L605.178,365.178 C610.176,365.991 615.356,366.814 619.847,368.703 C619.857,368.703 625.698,371.761 625.698,371.761 L629.527,373.924 C629.568,373.945 637.888,378.902 637.888,378.902 L638.833,379.512 C638.843,379.522 650.474,386.724 650.474,386.724 C659.118,392.037 667.307,397.035 676.144,403.465 C676.154,403.485 677.932,404.796 677.932,404.796 C680.004,406.37 682.574,408.331 685.814,409.885 C690.162,411.958 696.136,414.273 699.965,413.572 C703.643,412.882 705.44,409.834 706.893,407.376 C707.676,406.035 708.568,404.521 709.382,404.196 C709.402,404.196 712.551,403.688 712.551,403.688 C715.741,403.485 719.509,403.922 723.502,404.389 L732.461,405.212 C738.008,405.446 746.195,405.639 753.794,405.212 C759.056,404.897 768.452,403.77 772.373,399.656 C775.451,396.375 777.188,392.23 778.864,388.238 C780.043,385.434 781.16,382.772 782.663,380.487 C782.684,380.466 785.152,377.754 785.152,377.754 C786.321,376.678 787.529,375.357 788.556,373.722 C792.548,372.391 793.929,369.607 794.213,367.291 C794.233,367.159 794.233,367.027 794.233,366.895 C794.233,366.55 794.192,366.215 794.071,365.879 C793.553,364.345 792.527,363.177 791.125,362.487" fill="#C5732E"/>
      <path d="M78.035,335.781 C77.771,331.92 76.268,329.229 74.642,326.607 C73.545,325.307 72.275,324.129 70.833,323.174 C60.796,319.07 47.093,312.132 34.375,311.34 C32.19,311.167 30.484,312.224 28.432,311.34 C26.563,312.03 24.765,312.823 22.937,313.636 C22.053,314.316 20.702,314.641 20.813,316.287 C21.098,318.623 19.259,319.862 19.543,322.026 C19.828,323.753 22.053,325.277 22.937,326.994 C24.948,330.731 26.035,335.008 28.016,338.076 C28.798,339.245 29.682,337.944 30.565,338.828 C31.337,340.677 29.682,341.226 30.982,343.033 C31.368,343.704 31.937,344.212 32.678,344.557 L32.678,344.943 C33.217,345.735 33.917,346.386 34.812,346.812 L34.812,347.198 C35.188,347.899 35.756,348.417 36.487,348.763 L36.487,349.148 C37.808,350.388 38.763,351.942 40.734,352.582 C44.553,352.836 46.809,354.492 50.902,354.492 L53.452,354.492 C54.082,354.39 55.026,354.624 55.138,354.116 L57.688,354.116 C58.308,354.014 59.273,354.238 59.374,353.7 C63.438,353.283 66.79,352.227 69.979,351.048 C70.752,350.713 71.321,350.195 71.676,349.535 L72.092,349.535 C73.688,348.417 75.1,347.137 76.329,345.705 L76.329,345.329 C77.243,344.841 77.964,344.212 78.451,343.409 L78.451,337.66 C78.249,337.111 78.949,335.689 78.035,335.781" fill="#5F5551"/>
      <path d="M234.432,269.487 C231.791,273.409 227.677,273.937 221.439,276.375 C218.026,277.705 214.023,279.006 211.119,279.036 C206.832,279.097 200.564,277.35 198.136,274.465 C196.125,272.037 195.018,266.023 194.713,261.087 C193.839,247.333 195.109,229.697 199.66,220.982 C200.107,220.911 200.351,221.083 200.422,221.357 C211.119,227.798 215.873,238.962 224.487,248.094 C225.756,249.425 227.392,250.807 228.692,252.31 C231.141,255.073 232.329,257.46 236.341,258.415 C236.971,260.955 237.764,263.341 238.241,266.054 C237.185,267.425 235.052,267.71 234.432,269.487 M239.389,253.833 C237.256,248.409 230.887,244.376 226.021,238.545 C223.949,236.067 222.262,233.141 220.281,230.53 C218.28,227.859 216.279,225.665 213.801,223.267 C209.087,218.716 203.104,212.957 197.364,212.185 C189.756,211.139 185.368,219.509 192.021,221.733 C186.424,235.681 184.453,265.84 192.783,278.274 C187.856,283.171 197.171,287.508 202.332,284.766 C212.845,289.266 224.751,283.791 231.364,278.67 C235.793,278.812 236.687,276.334 239.389,274.069 C241.807,272.078 243.717,271.336 244.356,269.487 C245.057,267.486 244.895,265.028 243.981,262.621 C251.427,261.351 241.461,254.595 239.389,253.833 M195.84,190.029 C196.643,188.485 198.542,187.267 198.136,185.072 C197.567,181.984 194.886,182.715 194.317,182.776 C194.317,182.776 192.844,182.878 192.407,183.162 C189.36,185.103 185.469,197.364 185.154,201.498 C184.931,204.81 185.276,207.258 187.064,207.614 C191.259,208.406 194.723,192.294 195.84,190.029 M1062.94,355.061 C1063.926,355.884 1064.565,353.974 1065.612,353.151 C1066.546,352.45 1068.223,350.855 1068.293,351.993 C1065.398,359.794 1059.436,366.58 1058.359,374.92 C1058.897,375.845 1060.269,375.113 1060.584,374.402 C1060.116,376.546 1058.318,378.8 1056.824,381.025 C1052.437,387.648 1048.038,395.104 1043.071,401.657 C1036.711,410.098 1028.534,417.453 1020.164,424.198 C1011.753,430.974 1002.905,437.637 993.793,443.671 C989.161,446.8 984.376,449.319 980.049,452.834 C975.844,456.278 971.679,459.62 967.076,462.393 C963.471,454.439 958.148,447.521 953.313,440.624 C948.478,433.675 944.18,426.098 937.648,420.764 C934.469,414.395 930.457,408.849 925.438,404.338 C937.09,394.089 948.081,383.189 959.041,372.239 C969.992,361.298 981.705,351.109 992.655,340.159 C1003.697,329.137 1014.211,317.841 1025.131,306.92 C1030.637,301.415 1035.858,295.726 1041.558,290.495 C1048.272,284.359 1057.394,280.753 1062.94,273.317 C1065.612,272.393 1067.278,270.473 1069.817,269.487 C1070.133,269.427 1070.193,269.65 1070.193,269.874 C1073.17,281.88 1075.141,294.955 1074.398,308.079 C1073.83,318.542 1070.396,329.868 1067.146,339.011 C1065.967,342.383 1065.236,346.02 1064.099,348.569 C1063.133,350.693 1060.3,352.277 1062.94,355.061 M983.879,511.285 C989.689,522.774 995.713,533.633 999.918,545.66 C1008.36,569.857 1011.366,601.084 1013.662,631.996 C1014.902,648.391 1015.735,667.488 1021.697,681.273 C1023.912,691.543 1024.044,705.146 1023.598,719.469 C1023.313,728.498 1023.222,737.691 1023.222,746.592 C1023.222,755.846 1022.744,765.17 1023.983,773.713 C1025.029,780.713 1026.686,789.846 1029.327,795.859 C1031.846,801.496 1035.441,805.437 1038.49,809.998 C1041.648,814.641 1043.548,820.238 1044.604,826.801 C1046.586,839.092 1046.859,855.762 1046.9,870.35 C1046.931,882.764 1045.306,895.115 1044.229,907.396 C1042.024,932.385 1042.695,958.107 1042.695,984.945 C1042.695,995.256 1043.213,1004.043 1046.515,1010.92 C1047.408,1012.707 1049.481,1014.871 1049.948,1017.035 C1050.842,1020.854 1050.588,1027.629 1049.572,1031.164 C1047.693,1037.717 1037.189,1041.922 1031.998,1044.543 C1030.637,1040.469 1031.846,1033.197 1027.417,1033.461 C1023.029,1033.715 1025.487,1040.592 1025.894,1044.908 C1018.66,1049.979 1005.141,1048.068 994.188,1047.592 C994.057,1043.232 996.313,1036.264 991.883,1036.133 C987.059,1035.979 988.836,1046.666 988.461,1050.262 C978.657,1052.111 966.976,1050.07 959.041,1047.592 C958.727,1040.937 959.479,1037.523 962.871,1034.223 C964.365,1032.75 966.874,1032.404 966.295,1030.027 C965.472,1026.4 960.819,1028.869 959.428,1030.027 C955.537,1033.197 954.146,1036.771 953.688,1043 C952.896,1044.187 951.891,1042.055 951.393,1041.486 C949.523,1039.059 946.313,1034.955 946.435,1031.164 C946.567,1028.006 949.057,1024.857 951.017,1021.992 C956.177,1014.557 961.367,1003.158 964.009,994.117 C967.574,992.482 968.885,988.703 969.352,983.035 C971.1,963.246 965.959,946.426 962.485,929.176 C959.164,912.598 956.634,895.471 954.46,876.84 C952.348,858.891 951.25,840.373 946.05,824.9 C941.904,812.508 933.961,801.557 925.804,792.039 C923.59,789.437 922.177,787.244 918.175,787.082 C898.854,768.482 878.659,751.111 863.93,725.959 C851.902,705.43 840.627,682.096 825.725,662.937 C824.485,661.332 821.499,659.209 820.768,657.197 C820.32,656 822.017,657.096 820.381,655.676 C819.527,654.912 818.735,654.943 818.075,654.141 C815.922,653.703 814.245,655.553 812.366,656.051 C808.639,657.066 804.718,657.146 801.284,657.971 C791.034,660.449 781.322,663.639 772.241,667.895 C760.762,673.309 750.522,680.502 739.023,686.617 C727.564,692.691 715.649,697.658 704.262,703.805 C693.251,709.758 682.33,715.902 671.034,721.754 C670.679,701.326 669.968,678.43 666.829,659.494 C666.453,657.096 666.829,653.764 664.533,652.242 C661.892,652.748 662.521,657.146 662.623,660.256 C662.979,669.684 664.218,678.775 664.533,688.141 C665.041,702.271 663.009,718.422 664.919,730.937 C667.55,748.156 663.669,768.35 661.475,783.639 C661.09,786.34 661.547,789.336 661.09,792.039 C660.43,796.143 658.164,801.09 656.519,805.793 C645.912,836.045 636.364,870.543 628.248,903.191 C623.574,922.074 618.79,941.234 612.97,960.107 C608.765,973.77 603.918,987.047 601.125,1002.133 C600.171,1007.354 600.435,1012.992 598.839,1017.797 C598.169,1019.828 597.356,1020.123 596.168,1021.992 C595.681,1027.346 595.518,1033.775 594.634,1040.338 C593.862,1046.178 592.368,1052.355 592.338,1057.902 C592.338,1059.557 593.13,1061.182 593.1,1062.879 C593.1,1063.732 592.43,1064.982 592.338,1065.928 C591.992,1070.314 592.521,1073.383 590.804,1076.623 C587.727,1082.475 581.195,1083.205 575.913,1087.311 C576.298,1084.861 577.466,1078.187 573.627,1078.146 C571.158,1078.117 570.568,1080.574 570.945,1084.639 C564.362,1090.945 553.411,1098.687 538.865,1094.187 C535.27,1089.107 545.234,1076.145 539.627,1074.703 C535.34,1073.627 530.556,1088.844 533.136,1094.582 C529.642,1094.928 525.812,1097.732 521.291,1098.393 C516.618,1099.094 510.919,1098.393 505.627,1098.393 C500.64,1098.393 495.377,1098.85 491.121,1097.631 C490.064,1093.395 487.769,1090.469 487.678,1086.182 C487.556,1079.68 492.462,1072.539 496.079,1068.213 C497.257,1066.82 499.776,1065.795 498.375,1063.641 C494.229,1060.096 491.081,1065.988 488.835,1069.361 C484.63,1075.689 481.278,1085.268 484.244,1095.346 C481.542,1092.887 477.144,1093.172 473.923,1091.516 C470.967,1089.99 467.269,1086.143 466.67,1083.113 C465.177,1075.598 471.374,1072.133 474.685,1067.461 C475.62,1066.76 477.275,1067.959 478.515,1067.074 C483.38,1060.258 487.241,1053.066 492.259,1046.443 C494.768,1043.131 496.82,1039.687 499.126,1036.133 C501.331,1032.801 504.012,1029.418 505.262,1025.436 C503.657,1023.09 501.239,1027.854 499.898,1026.959 C500.833,1014.221 504.611,1002.965 508.685,991.832 C512.759,980.709 514.455,968.834 517.472,956.674 C520.326,945.256 523.78,933.574 525.872,921.15 C527.945,909.031 529.864,896.426 531.988,883.727 C536.031,859.785 534.121,827.725 535.421,799.293 C536.438,777.34 539.535,750.248 535.817,726.73 C535.168,722.678 535.015,719.631 532.374,719.469 C527.376,719.143 529.561,726.244 530.078,730.164 C530.718,734.93 531.196,740.312 531.227,744.295 C509.548,743.564 491.081,742.609 472.775,738.941 C467.046,737.803 461.195,736.748 455.587,735.133 C439.995,730.582 428.313,720.424 415.482,711.83 C413.806,710.682 411.48,709.432 408.992,707.623 C406.919,706.1 403.912,703.43 402.5,703.805 C400.021,704.475 400.977,707.309 400.205,710.307 C393.196,706.324 388.706,699.721 385.313,691.971 C384.287,689.645 384.033,686.109 381.106,685.094 C377.318,686.963 380.122,691.838 381.493,695.027 C384.418,701.691 387.669,706.426 393.328,711.068 C397.219,714.246 404.532,720.199 405.172,711.068 C411.765,715.303 417.839,720.037 424.645,724.051 C424.147,726.691 425.001,732.959 426.179,736.27 C426.504,737.855 423.823,736.473 423.507,737.428 C419.952,743.473 423.507,753.742 424.27,760.346 C425.448,762.154 422.655,759.949 422.359,761.098 C418.855,761.453 419.719,769.721 419.688,776 C419.628,790.262 420.175,806.148 421.222,817.637 C422.086,826.994 421.222,836.35 421.222,845.533 C421.222,864.977 420.673,883.941 421.222,903.191 C421.72,921.404 422.989,939.01 426.179,955.537 C427.805,963.937 429.583,972.439 429.623,980.75 C429.623,982.852 429.166,984.752 429.227,986.479 C429.491,993.6 431.97,1001.461 433.818,1008.635 C437.13,1021.332 440.98,1034.162 437.638,1049.5 C432.478,1051.187 429.297,1054.914 423.507,1055.992 C423.507,1054.123 423.03,1051.502 422.359,1048.738 C421.821,1046.443 420.521,1044.371 420.064,1042.623 C419.424,1040.043 420.928,1035.248 416.255,1035.746 C411.308,1036.295 415.361,1041.223 413.949,1044.148 C415.361,1048.738 416.214,1053.889 417.017,1059.049 C406.422,1066.912 390.208,1069.178 371.559,1068.984 C371.427,1064.047 370.542,1059.811 370.411,1054.844 C370.187,1053.635 372.056,1052.518 372.707,1050.639 C373.854,1047.307 374.87,1038.043 370.411,1038.043 C366.815,1038.043 367.2,1043 366.215,1046.443 C365.443,1047.754 363.98,1048.068 363.523,1049.887 C362.955,1052.213 363.98,1056.662 364.305,1060.197 C364.651,1063.926 365.189,1067.359 365.443,1070.133 C352.359,1070.955 336.857,1070.994 329.534,1064.779 C324.962,1059.404 325.46,1048.291 328.386,1041.486 C328.71,1040.775 328.457,1040.43 328.771,1039.951 C329.503,1038.926 331.545,1038.672 331.067,1036.508 C330.712,1034.955 326.151,1033.238 323.805,1034.609 C321.671,1035.848 319.477,1048.83 319.223,1053.32 C318.999,1057.18 319.314,1061.121 321.123,1063.641 C318.146,1063.447 315.017,1061.02 311.97,1058.664 C307.317,1055.068 299.75,1050.141 298.978,1043 C298.439,1037.879 300.948,1028.33 302.421,1023.141 C304.169,1017.035 306.779,1011.711 308.913,1006.725 C312.884,997.48 317.12,987.811 321.123,978.453 C321.742,977.072 322.088,975.172 322.667,974.248 C323.683,972.602 325.785,971.516 326.872,969.291 C328.05,966.934 328.426,964.832 328.386,962.027 C326.872,960.504 324.058,964.324 324.19,963.166 C325.054,950.539 322.28,938.379 320.756,926.504 C317.76,902.826 314.854,879.705 308.913,858.129 C305.977,847.463 302.929,837.121 300.887,826.426 C298.814,815.373 296.682,804.27 294.01,793.197 C291.267,781.861 289.49,770.717 288.667,758.801 C287.833,746.846 285.609,735.477 283.699,723.674 C281.851,712.176 280.52,700.494 278.732,688.893 C276.822,676.367 275.897,664.775 273.765,653.764 C271.733,643.201 267.72,633.621 264.226,623.209 C253.997,592.773 249.903,554.012 256.577,517.776 C258.618,506.764 261.382,496.038 263.83,485.32 C266.38,474.238 268.421,463.155 270.332,451.696 C274.12,429.104 277.208,400.062 270.332,377.592 C273.998,376.759 278.163,376.505 279.879,373.772 C279.524,371.862 276.751,372.33 275.298,371.487 C274.15,370.207 273.105,369.15 271.093,368.429 C269.153,367.728 266.521,367.271 264.226,367.271 C257.095,367.312 250.817,368.896 245.504,371.091 C235.153,375.367 227.047,382.112 216.472,387.14 C214.044,388.288 211.383,389.304 208.833,390.574 C206.385,391.824 203.998,393.703 201.57,394.394 C199.213,395.104 196.775,395.166 194.317,395.927 C179.861,400.417 161.688,403.912 142.753,404.725 C131.153,405.182 120.628,403.567 111.039,401.657 C106.265,400.692 101.623,399.777 97.285,398.223 C93.1,396.689 88.508,395.166 85.461,392.87 C82.81,390.878 82.362,388.126 78.188,386.379 C72.235,378.069 67.948,368.104 62.909,358.87 C68.639,357.407 73.068,355.335 77.05,351.241 C79.152,349.067 81.56,346.132 82.007,343.978 C84.15,333.972 78.777,322.291 73.982,318.379 C69.542,314.732 62.32,312.041 55.656,309.592 C45.691,305.905 35.99,303.041 26.238,306.169 C43.203,277.319 75.709,254.433 98.819,229.382 C101.247,226.782 104.071,223.907 106.468,220.982 C107.311,219.935 107.484,218.716 108.368,217.924 C110.856,215.73 114.32,214.643 116.769,212.185 C117.825,211.179 118.617,209.482 119.836,208.365 C121.33,207.004 122.823,206.719 123.646,205.318 C125.119,202.798 127.536,186.444 122.122,186.22 C117.784,186.027 119.613,190.649 118.679,194.621 C117.957,197.862 114.676,201.742 112.197,204.932 C109.811,207.989 106.569,211.301 104.558,213.342 C104.741,198.654 107.23,184.788 108.368,171.318 C109.556,157.696 112.116,145.404 118.302,135.785 C121.269,131.213 124.956,127.109 128.227,122.812 C131.569,118.454 134.698,113.893 138.172,109.82 C145.131,101.683 153.765,95.243 161.079,87.279 C170.323,84.678 179.455,79.071 190.497,75.058 C195.719,73.189 201.245,71.757 206.527,70.477 C213.801,68.77 224.304,67.043 227.931,62.066 C228.601,61.152 228.794,59.618 229.454,58.267 C230.765,55.575 234.036,51.237 233.66,47.184 C230.409,43.933 228.357,44.888 225.259,49.083 C223.217,51.856 219.743,55.26 223.349,58.632 C205.491,64.565 185.124,67.988 170.262,76.978 C171.146,72.895 174.823,71.147 177.505,68.181 C179.892,65.55 181.71,62.299 184.006,59.404 C194.418,46.259 206.497,30.625 223.725,24.267 C229.18,22.255 236.087,20.376 243.219,21.971 C245.119,22.367 245.718,23.373 248.562,23.871 C250.086,24.135 252.117,24.267 253.519,24.267 C264.256,30.209 275.014,38.173 280.642,47.936 C273.043,45.69 266.949,53.157 276.061,54.437 C277.747,54.65 282.125,54.335 284.076,54.437 C297.332,55.178 312.66,60.095 322.667,63.976 C330.712,67.104 339.082,69.786 346.346,72.387 C355.031,75.505 360.709,80.604 367.363,83.469 C370.125,84.648 377.338,85.023 379.959,85.379 C397.472,79.162 422.39,78.116 436.876,85.379 C451.291,92.571 460.341,107.402 469.332,119.378 C478.667,131.721 489.72,143.494 498.76,156.426 C503.362,163.019 507.832,169.642 512.504,175.909 C517.371,182.391 522.571,187.967 528.168,193.483 C528.737,202.9 525.872,211.433 522.825,218.686 C517.025,232.471 506.176,242.934 491.883,248.094 C484.813,250.644 477.072,252.432 468.976,255.357 C447.603,263.088 430.151,277.096 410.891,288.209 C404.44,291.958 397.116,296.254 389.508,296.996 C384.479,297.483 380.691,295.502 377.278,295.462 C375.246,295.442 374.555,296.234 372.707,296.234 C361.847,290.942 355.326,284.583 351.313,272.921 C344.527,253.163 352.684,230.083 356.28,207.228 C358.15,195.353 360.77,179.475 359.318,164.065 C358.535,155.278 357.672,147.466 348.255,146.867 C344.029,149.986 349.566,153.693 350.53,156.426 C351.953,160.266 351.953,165.975 352.075,170.942 C352.644,190.923 349.403,206.557 345.584,223.267 C342.689,236.006 339.794,248.378 340.616,261.087 C341.663,276.812 348.438,287.569 357.814,295.838 C361.877,299.444 366.022,303.111 370.797,304.249 C373.915,304.98 377.227,304.198 380.731,304.249 C383.047,304.31 385.252,305.021 387.608,305.021 C397.432,305.052 407.498,299.607 414.721,295.462 C422.928,290.759 430.03,285.436 436.876,280.956 C452.347,270.798 466.995,263.382 486.916,257.643 C496.119,272.667 507.852,285.923 520.529,298.134 C526.503,303.904 533.887,309.186 540.389,315.332 C546.85,321.447 552.843,328.599 559.873,332.896 C562.452,334.49 565.47,335.638 568.273,337.101 C570.985,338.533 573.524,340.352 576.298,341.682 C582.22,344.517 589.18,345.512 596.168,347.026 C609.211,349.89 622.56,354.096 636.648,356.584 C666.169,361.735 698.848,361.958 730.236,363.461 C746.784,364.224 763.282,364.63 778.743,365.372 C795.443,366.164 811.635,364.945 827.635,366.52 C858.394,369.476 881.098,378.14 901.363,392.87 C911.389,400.153 920.775,407.254 927.734,416.935 C929.542,419.424 930.913,422.187 932.681,424.574 C934.469,426.941 936.917,428.678 938.796,431.065 C949.523,444.789 959.743,460.809 967.839,477.285 C973.273,488.337 978.14,499.959 983.879,511.285 M830.702,702.656 C830.103,703.988 829.208,701.355 828.416,700.746 C827.38,699.984 825.897,698.928 824.576,699.232 C822.606,699.629 822.169,703.652 820.768,706.873 C817.426,714.592 813.453,722.334 809.694,729.393 C804.169,739.865 800.136,751.742 799.373,763.779 C798.551,777.463 800.908,786.533 804.718,796.244 C805.896,799.201 807.48,802.137 808.536,805.031 C810.935,811.463 812.366,819.131 812.366,828.334 C812.366,833.23 812.174,837.721 811.595,842.078 C810.548,850.266 807.146,857.803 806.251,866.145 C806.068,868.154 806.505,869.719 806.251,871.486 C805.672,875.57 803.479,879.482 802.422,883.727 C801.375,887.994 800.826,892.596 800.136,897.096 C798.795,906.004 797.108,915.066 795.179,923.832 C793.238,932.701 792.304,942.127 791.338,951.707 C789.825,967.055 786.352,984 788.291,1000.609 C788.941,1001.41 790.363,1001.34 790.2,1002.904 C787.672,1002.58 784.543,1000.232 782.562,1001.371 C780.337,1002.68 782.278,1005.576 781.424,1008.635 C781.039,1010.096 775.126,1016.363 772.638,1017.41 C763.789,1021.199 748.085,1025.303 735.966,1027.73 C728.388,1029.225 722.983,1030.881 713.812,1030.393 C712.317,1029.479 710.53,1028.869 708.833,1028.107 C707.857,1020.184 713.039,1015.125 718.392,1010.92 C720.373,1009.355 722.912,1008.604 721.825,1006.338 C719.662,1001.717 712.47,1008.979 710.763,1010.543 C705.288,1015.48 702.413,1018.945 702.728,1028.107 C693.434,1028.646 684.819,1026.959 684.027,1020.479 C682.93,1011.428 695.059,1006.338 693.951,997.937 C695.353,994.85 696.562,991.863 698.146,989.15 C699.65,986.631 701.296,983.674 703.114,981.502 C704.444,979.947 706.518,979.094 707.695,977.305 C710.621,972.867 711.84,965.115 713.425,958.969 C715.102,952.539 716.127,945.268 716.868,938.725 C718.585,923.283 719.377,907.377 719.54,894.414 C719.632,887.283 718.107,875.672 719.154,867.291 C719.438,865.027 720.454,863.848 720.688,861.949 C721.511,855.387 720.525,848.387 719.54,842.475 C718.555,836.582 716.96,831.068 714.959,826.426 C710.967,817.15 704.242,809.521 698.533,801.984 C690.325,791.084 681.588,777.908 676.377,762.631 C675.524,760.07 674.915,757.307 674.081,754.605 C673.351,752.137 671.786,749.445 671.41,747.354 C670.334,741.045 671.654,733.232 670.638,729.393 C672.802,727.32 676.113,726.051 679.049,724.436 C698.685,713.516 719.54,702.91 740.171,692.732 C752.016,686.871 762.388,679.17 774.172,673.625 C786.442,667.834 800.228,664.34 814.275,659.494 C821.691,666.848 827.299,676.012 832.987,685.094 C831.688,690.395 831.585,696.937 830.702,702.656 M678.277,1017.035 C676.854,1015.918 675.585,1014.646 674.468,1013.205 C674.081,1003.281 682.361,1002 687.461,997.551 C688.354,996.941 687.206,1001.461 687.074,1001.756 C685.124,1006.145 678.501,1010.219 678.277,1017.035 M50.313,359.642 C49.643,359.287 48.271,359.642 48.403,358.484 C51.43,358.393 53.198,359.541 56.429,359.256 C59.801,366.956 63.772,374.097 67.491,381.422 C59.963,375.967 54.986,367.952 50.313,359.642 M46.107,351.241 C44.513,350.764 42.481,350.978 41.516,350.469 C40.033,349.616 37.869,345.959 36.569,344.375 C34.771,342.129 33.379,340.159 31.581,338.239 C31.754,337.67 32.292,338.208 32.699,338.767 C30.697,335.607 29.204,329.98 27.01,325.642 C26.299,324.22 24.552,323.001 24.328,321.447 C24.054,319.151 26.055,317.496 25.486,314.946 C33.44,309.216 45.122,313.889 54.905,317.617 C60.756,319.852 67.43,322.392 70.173,325.256 C73.23,328.446 75.678,337.04 74.368,342.079 C73.87,344.069 70.711,347.229 67.877,348.945 C63.681,351.485 55.717,353.07 48.779,352.379 C47.926,352.277 47.347,351.617 46.107,351.241 M1071.737,340.931 C1078.96,326.628 1082.108,301.384 1078.229,280.956 C1076.99,274.394 1075.638,267.842 1072.479,263.382 C1070,262.956 1068.151,264.977 1066.384,266.054 C1064.099,267.446 1062.717,268.563 1061.031,269.874 C1057.688,272.474 1053.879,274.932 1050.334,277.126 C1042.918,281.779 1036.62,287.031 1030.485,293.176 C994.271,329.37 958.687,365.524 921.994,400.885 C902.958,383.89 881.219,369.679 851.699,363.461 C836.584,360.282 819.559,358.87 802.422,358.87 C785.173,358.87 767.437,358.18 749.73,357.347 C715.01,355.69 679.558,356.514 647.335,351.617 C639.604,350.439 631.874,349.321 624.428,347.797 C617.073,346.274 610.136,343.785 603.035,342.079 C595.487,340.219 587.848,339.488 581.266,336.725 C578.3,335.476 575.395,333.698 572.479,332.134 C569.451,330.518 566.018,329.208 563.316,327.542 C556.692,323.479 550.994,316.409 544.971,310.74 C538.672,304.788 531.51,299.546 525.872,294.324 C513.459,282.774 502.641,270.107 493.417,255.743 C500.284,253.407 506.947,250.105 511.753,246.185 C519.514,239.886 525.913,231.384 530.454,220.22 C532.912,214.227 538.602,199.71 535.421,190.029 C534.568,187.429 529.642,183.955 527.03,181.253 C517.98,171.826 511.804,161.363 504.489,151.083 C494.707,137.268 483.38,124.976 473.537,111.729 C463.775,98.595 454.033,83.693 438.014,76.978 C423.06,70.7 399.768,72.082 384.53,76.592 C379.248,78.146 376.464,78.888 371.172,76.978 C365.473,74.896 360.801,70.121 354.757,67.419 C348.692,64.727 341.612,63.183 334.877,60.928 C321.325,56.367 308.364,50.496 294.396,49.083 C292.304,46.757 288.992,45.833 286.767,43.73 C284.238,41.353 282.623,37.727 279.879,34.954 C276.731,31.743 272.241,28.899 268.036,25.781 C263.738,22.601 259.604,18.396 255.053,17.369 C252.504,16.811 251.447,17.694 248.938,17.369 C245.88,16.973 243.371,15.652 240.923,15.48 C230.765,14.687 222.872,17.146 216.076,20.437 C199.152,28.625 186.84,45.071 175.605,59.404 C171.268,64.9 166.199,70.477 162.227,75.82 C160.673,77.923 159.657,80.351 158.031,81.925 C154.964,84.983 150.87,86.994 147.721,89.97 C146.024,91.555 144.724,93.587 143.129,95.304 C141.443,97.122 139.594,98.625 137.776,100.261 C134.19,103.583 131.072,107.229 128.227,110.968 C122.345,118.739 116.271,126.337 111.425,134.657 C103.807,147.771 102.13,165.05 99.977,183.924 C98.728,194.784 96.208,207.644 98.433,219.062 C84.211,234.35 69.289,248.287 53.36,262.986 C45.976,269.812 38.296,276.659 31.215,285.538 C26.715,291.135 21.951,298.814 17.848,305.397 C16.303,307.855 13.733,310.324 13.256,312.274 C12.839,314.021 12.809,316.317 13.256,318.379 C13.733,320.553 15.49,321.945 16.303,323.733 C17.4,326.059 17.685,328.507 18.599,330.61 C23.19,340.849 30.626,350.246 37.707,358.118 C39.078,359.642 40.348,361.257 41.912,363.076 C43.334,364.701 45.722,365.94 46.87,367.657 C48.048,369.404 48.241,371.487 49.155,373.01 C55.941,384.307 66.831,390.808 78.563,397.451 C85.014,401.078 91.759,405.284 99.581,407.386 C103.472,408.402 107.931,409.113 112.197,410.058 C133.743,414.802 160.673,412.323 182.473,407.772 C190.559,406.076 198.197,402.774 205.775,400.133 C212.998,397.583 221.764,395.257 227.931,391.346 C229.109,390.604 231.181,389.782 230.612,387.913 C236.626,387.719 241.481,385.007 246.652,382.935 C251.68,380.903 256.486,377.592 263.464,377.978 C265.811,390.554 266.521,402.652 266.521,414.639 C266.521,439.313 260.975,462.769 256.201,483.786 C253.682,494.869 250.532,505.678 248.562,516.242 C244.031,540.531 244.956,566.77 248.176,589.98 C251,610.348 257.278,627.689 263.83,643.83 C264.815,646.258 266.319,648.787 266.888,651.094 C267.66,654.141 267.66,658.031 268.036,661.404 C270.717,685.551 274.059,709.34 277.98,732.451 C279.118,739.105 280.327,745.637 281.027,752.32 C281.78,759.33 282.236,766.389 283.323,773.328 C284.339,779.686 286.076,785.863 287.52,792.039 C289.053,798.703 289.876,805.357 290.973,811.908 C293.126,824.799 295.636,837.498 298.978,850.113 C302.319,862.619 305.316,874.941 307.378,887.924 C311.645,914.527 316.207,941.467 317.313,970.428 C312.478,980.912 307.866,992.463 303.183,1004.043 C298.875,1014.709 292.862,1027.943 292.111,1040.715 C291.46,1052.02 298.602,1057.779 305.083,1062.879 C309.552,1066.363 315.271,1070.832 321.123,1072.041 C323.398,1072.51 326.191,1071.879 328.386,1072.418 C329.503,1072.701 330.712,1073.758 331.83,1074.328 C341.124,1079.193 358.535,1078.695 370.411,1077.385 C374.077,1076.959 377.796,1075.82 381.493,1075.475 C388.208,1074.836 393.907,1074.998 399.818,1073.555 C405.365,1072.234 410.871,1070.955 415.482,1068.598 C418.602,1067.014 420.765,1064.301 423.507,1062.482 C425.285,1062.391 427.226,1062.229 428.852,1061.73 C432.478,1060.582 440.411,1056.215 441.843,1053.695 C450.214,1039.129 444.291,1019.33 440.31,1004.805 C438.806,999.359 436.368,993.803 436.114,989.15 C436.013,986.926 436.805,984.752 436.876,982.648 C437.445,966.131 432.386,952.824 430.771,937.963 C428.892,920.42 428.089,902.217 428.089,882.568 C428.089,844.09 426.758,805.387 425.418,768.736 C427.713,770.148 426.433,775.105 430.375,774.852 C433.757,771.205 432.315,766.969 431.137,763.006 C429.552,757.633 428.343,751.457 427.713,745.443 C428.638,745.697 432.142,748.176 433.818,745.828 C435.057,739.715 430.7,733.975 431.137,728.643 C437.537,733.346 444.424,736.717 452.154,739.328 C459.539,741.816 467.727,742.953 476.595,744.682 C493.844,748.023 512.697,749.232 531.227,748.5 C531.297,774.912 528.799,801.201 528.168,827.187 C527.854,841.205 528.768,854.594 528.168,867.678 C527.619,879.838 524.734,891.773 522.825,903.588 C520.956,915.33 518.843,926.666 515.948,937.963 C513.083,949.076 510.351,960.271 507.923,971.201 C504.287,987.748 498.598,1003.625 493.783,1018.945 C492.076,1024.449 489.74,1030.27 489.212,1035.359 C488.927,1038.174 488.947,1038.803 489.973,1039.557 C485.199,1045.367 480.587,1051.309 476.98,1058.287 C472.755,1059.537 470.236,1063.508 467.422,1066.687 C464.477,1070.092 461.449,1072.986 460.555,1078.146 C458.707,1088.945 468.743,1099.227 479.276,1098.393 C481.816,1098.199 483.248,1098.006 484.63,1095.73 C485.707,1105.107 495.438,1104.883 507.171,1104.883 C519.584,1104.883 530.302,1103.867 536.193,1099.164 C543.233,1104.162 555.9,1101.195 562.158,1098.393 C563.905,1097.631 565.663,1096.229 567.521,1095.73 C569.716,1095.111 572.002,1095.598 574.013,1094.959 C577.73,1093.781 582.241,1090.6 586.608,1088.092 C591.16,1085.43 595.264,1082.637 596.93,1078.908 C598.22,1076.074 597.813,1072.102 598.454,1067.836 C598.9,1064.992 600.171,1062.299 600.739,1059.436 C602.558,1050.232 603.797,1040.043 604.183,1030.027 C605.188,1002.926 613.233,980.516 619.837,958.584 C623.22,947.439 626.49,936.266 629.386,924.596 C639.422,884.52 649.945,843.166 662.623,805.408 C664.635,799.465 666.859,793.584 667.204,788.219 C667.367,785.934 666.707,783.699 666.829,782.105 C667.083,779.209 668.597,776.102 669.125,772.941 C669.693,769.355 669.5,765.912 670.638,762.631 C676.977,785.355 689.868,800.408 701.977,816.49 C709.636,826.668 713.842,838.047 714.959,855.072 C713.587,856.127 713.974,857.205 713.812,858.891 C712.896,868.471 713.425,878.883 713.425,888.686 C713.425,918.742 710.905,947.5 704.262,970.805 C699.609,976.574 694.773,982.213 692.032,989.902 C685.072,992.258 673.646,997.551 670.263,1005.201 C666.605,1013.529 670.771,1022.215 678.277,1022.764 C680.35,1028.971 685.693,1033.115 692.032,1034.223 C697.223,1035.146 702.728,1033.521 707.695,1034.223 C709.188,1034.406 710.021,1035.654 711.525,1036.133 C718.616,1038.398 725.086,1036.133 732.522,1034.609 C737.551,1033.592 742.681,1032.689 747.435,1031.551 C752.453,1030.342 756.82,1028.787 761.179,1027.346 C766.074,1025.762 770.921,1025.08 774.934,1023.141 C776.965,1022.154 779.788,1019.422 781.424,1018.182 C782.379,1017.471 783.141,1018.426 784.086,1017.797 C784.665,1017.41 784.258,1016.994 784.857,1016.273 C786.91,1013.855 788.321,1009.984 786.382,1007.1 C788.616,1007.963 791.44,1009.742 794.417,1008.635 C796.063,1006.084 796.509,1002.742 795.93,999.451 C795.545,997.166 794.325,996.119 794.03,994.494 C792.984,988.125 794.243,980.078 795.179,973.1 C797.047,959.254 797.719,945.531 799.75,932.609 C801.792,919.76 804.596,907 806.627,894.037 C807.653,887.699 809.115,881.809 810.832,875.691 C812.528,869.75 813.026,863.158 814.642,856.99 C818.055,844.152 820.92,826.934 817.334,811.908 C815.13,802.705 810.396,795.291 807.774,787.082 C801.537,767.223 807.449,744.072 815.038,730.164 C819.233,722.496 823.276,714.949 826.131,706.486 C829.361,707.715 829.493,715.457 834.136,714.125 C836.645,713.414 836.198,707.664 836.421,704.189 C836.716,699.762 836.808,695.719 837.193,692.346 C849.291,711.443 858.262,731.982 871.945,748.887 C878.934,757.471 886.176,765.029 893.725,772.555 C900.529,779.342 907.651,785.68 915.493,790.902 C919.607,793.604 921.608,796.732 924.666,800.836 C930.385,808.475 936.379,816.713 939.568,826.039 C944.068,839.254 945.734,856.189 947.583,871.883 C949.523,888.197 950.793,904.186 953.688,919.24 C957.792,940.441 964.477,958.533 962.871,984.182 C958.311,992.686 952.703,1008.635 947.197,1018.182 C944.303,1023.211 940.167,1026.523 940.32,1032.689 C940.452,1037.625 942.616,1039.291 944.912,1042.623 C947.553,1046.443 948.568,1050.518 954.46,1049.115 C957.386,1054.873 963.054,1054.965 970.876,1055.992 C974.889,1056.51 979.287,1057.262 982.721,1057.139 C988.582,1056.916 991.599,1054.174 996.484,1053.695 C998.954,1053.473 1001.788,1054.314 1004.5,1054.469 C1015.064,1055.098 1022.938,1054.051 1028.574,1050.262 C1032.801,1052.08 1034.284,1050.121 1038.113,1048.354 C1043.487,1045.904 1049.785,1041.801 1052.619,1038.428 C1057.688,1032.363 1055.941,1024.033 1055.688,1014.354 C1047.246,1003.818 1049.186,982.943 1049.186,964.324 C1049.186,949.766 1049.44,935.129 1049.948,921.924 C1050.486,908.646 1052.6,895.34 1053.016,881.809 C1053.463,867.871 1053.229,853.578 1052.244,839.783 C1051.259,825.471 1049.247,814.58 1043.071,805.793 C1039.811,801.111 1036.936,796.977 1035.057,792.426 C1026.473,771.539 1030.536,738.922 1029.713,711.83 C1029.52,704.982 1030.059,697.852 1029.327,691.187 C1029.072,688.932 1027.884,686.687 1027.417,684.32 C1026.908,681.781 1026.817,679.141 1026.279,676.682 C1023.12,662.055 1021.129,646.105 1019.778,629.699 C1018,607.768 1016.375,586.121 1012.14,566.291 C1003.859,527.457 983.716,499.603 969.738,466.588 C974.797,462.545 980.658,456.796 986.926,452.834 C991.01,450.294 995.459,448.324 999.533,445.581 C1003.475,442.94 1007.486,440.146 1011.366,437.18 C1027.001,425.234 1041.212,413.948 1052.244,397.075 C1054.407,393.794 1057.15,389.528 1060.269,384.855 C1062.564,381.422 1067.623,374.625 1067.532,371.862 C1067.461,369.089 1065.46,369.546 1065.612,367.657 C1067.359,365.25 1068.965,361.075 1070.976,356.584 C1072.682,352.704 1076.034,347.29 1075.171,343.978 C1074.49,341.327 1073.17,342.444 1071.737,340.931 M123.646,166.361 C122.823,164.928 120.172,161.231 119.064,161.007 C115.946,160.337 114.513,162.724 114.473,164.441 C114.473,166.157 116.992,168.453 117.917,170.17 C119.196,172.496 120.212,175.046 120.974,176.661 C123.3,181.558 124.377,186.22 128.613,188.13 C132.118,184.442 128.999,178.073 126.713,173.228 C125.718,171.166 124.895,168.494 123.646,166.361" fill="#332D2B"/>
      <path d="M209.879,265.312 C209.036,258.963 212.978,253.184 218.677,252.411 C224.385,251.64 229.729,256.17 230.592,262.529 C231.435,268.878 227.514,274.648 221.795,275.44 C216.076,276.192 210.743,271.682 209.879,265.312" fill="#929293"/>
      <path d="M223.37,268.106 C222.963,265.18 224.792,262.519 227.413,262.163 C230.023,261.808 232.492,263.88 232.898,266.806 C233.284,269.742 231.476,272.393 228.834,272.748 C226.214,273.093 223.755,271.021 223.37,268.106" fill="#FEFEFE"/>
      <path d="M27.863,325.337 C14.962,322.118 27.335,316.022 34.243,316.327 C36.904,316.429 53.086,325.053 54.458,328 C52.873,330.895 52.03,328.832 49.856,329.767 z" fill="#B99529"/>
    </g>
  </g>
</svg>
