<?xml version="1.0" ?>
<!DOCTYPE svg  PUBLIC '-//W3C//DTD SVG 1.1//EN'  'http://www.w3.org/Graphics/SVG/1.1/DTD/svg11.dtd'>
<!-- Uploaded to: SVG Repo, www.svgrepo.com, Generator: SVG Repo Mixer Tools -->
<svg width="800px" height="800px" viewBox="0 0 2000 2000" enable-background="new 0 0 2000 2000" id="Layer_1" version="1.1" xml:space="preserve" xmlns="http://www.w3.org/2000/svg" xmlns:xlink="http://www.w3.org/1999/xlink">
<g>
<path d="M972.3,512.6C861.5,625.9,849.8,749,849.1,789l199.7-199.9L972.3,512.6z" fill="#808080"/>
<path d="M440.7,1306.1c-21.9,33.2-12.3,46.1,1.4,55.1c6.4,4.2,11.9,6.2,17.3,6.2c11,0,22-8.7,33.9-26.7   c18.1-27.4,13.3-64.1,11.5-74.5C494.4,1268.5,458.8,1278.6,440.7,1306.1z" fill="#00C3FF"/>
<path d="M296,1449.5c5.4,1.8,10.1,2.6,14.3,2.6c10.1,0,25-4.3,37.3-41.3c12.2-36.8-5-77.2-9.9-87.6   c-10.2,5.4-48,27.7-60.1,64.5C263,1431.9,277.9,1443.5,296,1449.5z" fill="#00C3FF"/>
<path d="M372.5,1284.9c6.7,5.1,12.5,7.5,18.3,7.5c10.5,0,21.7-7.9,34.2-24.2c20-26.1,17.9-63,16.9-73.5   c-10.4,1.7-46.7,9.1-66.7,35.2c-10.9,14.2-15.9,25.7-15.3,35.2C360.4,1272.3,364.4,1278.6,372.5,1284.9z" fill="#00C3FF"/>
<path d="M1356.1,392.9c8.7-3.6,17.8-5.4,27.2-5.4c17.2,0,35.3,5.9,55.4,18c92.9,56.2,106.6,222.2,106.3,318.3   l71.3,56.4c6.3-111.1,2.1-351.6-139.7-437.4c-31.4-19-62.8-28.6-93.4-28.6c-19,0-37.6,3.7-55.2,11   c-58.1,24.1-97.4,83.8-120.7,131.3l59.3,46.9C1285.5,460.9,1315.7,409.7,1356.1,392.9z" fill="#808080"/>
<polygon fill="#808080" points="609,1113.7 437.3,1110 650.1,1373.2 687.9,1230.8 674.5,1210.9  "/>
<path d="M510.6,1390.7c-25.1,30.8-16.8,44.6-4.2,54.9c6.7,5.5,12.6,8,18.7,8c10.3,0,21.5-7.6,34.2-23.3   c20.7-25.5,19.7-62.5,18.9-73C567.8,1358.8,531.3,1365.3,510.6,1390.7z" fill="#00C3FF"/>
<path d="M459.8,1577.6c0,46.5,17.7,52.9,36.9,52.9s36.9-6.4,36.9-52.9c0-38.7-28.9-71.7-36.9-80.1   C488.7,1505.8,459.8,1538.8,459.8,1577.6z" fill="#00C3FF"/>
<path d="M364.3,1638.7c0,46.5,17.7,52.9,36.9,52.9s36.9-6.4,36.9-52.9c0-38.7-28.9-71.7-36.9-80.1   C393.2,1567,364.3,1600,364.3,1638.7z" fill="#00C3FF"/>
<path d="M374,1466.8c-2.2,20.8-0.1,35.3,6.3,44.3c5,7,12.9,10.9,24.8,12.1c2.3,0.2,4.4,0.4,6.4,0.4   c14.3,0,31.3-5.6,35.9-49c4.1-38.6-21.2-74.4-28.2-83.5C410.3,1398.6,378.1,1428.3,374,1466.8z" fill="#00C3FF"/>
<rect fill="#808080" height="664" transform="matrix(-0.7071 -0.7071 0.7071 -0.7071 1748.3651 2887.8489)" width="82.9" x="1430.8" y="749.8"/>
<path d="M1653.9,825l-460.3-364.2l-132,132.1c-0.1,0.2-0.2,0.4-0.3,0.5l-210,210l276.9,350l44.3,56v0l42.9,54.2   L1653.9,825z" fill="#B2B2B2"/>
<polygon fill="#B2B2B2" points="1000.4,1010.5 621.6,1111.5 629.9,1123.9 697.3,1223.7 1156.2,1207.5 1137.8,1184.1  "/>
<path d="M255.3,1568.7c0,46.5,17.7,52.9,36.9,52.9c19.2,0,36.9-6.4,36.9-52.9c0-38.7-28.9-71.7-36.9-80.1   C284.3,1497,255.3,1530,255.3,1568.7z" fill="#00C3FF"/>
<path d="M354.4,1250.9c0,0,10.2,16.6,36,12.5c25.7-4.2,48.4-51.2,54.8-74.7c0,0,1.2,55.1-7.8,74.2   c-9.1,19.1-9.6,33.5-32.3,36c-22.7,2.5-28.2,15.2-42.6-5C348,1273.6,354.4,1250.9,354.4,1250.9z" fill="#0080FF"/>
<path d="M421.1,1341.5c0,0,16.6,10.8,35.2,6.1s36.8-30.4,42.4-50.7c5.5-20.2,8-40.1,8-40.1s11.4,17.7,8.9,42.9   c-2.5,25.2-11.3,60.5-29.1,67.6c-17.7,7.1-30.4,13.2-45.4,5.9C426.1,1365.8,421.1,1341.5,421.1,1341.5z" fill="#0080FF"/>
<path d="M488.3,1442.8c0,0,30.3,6.9,48.1-9.4c17.8-16.3,37.4-55.4,44.9-82.2c0,0,6.9,42.6-2.8,61.7   c-9.7,19.1-9.9,29.9-32.9,39.3c-23,9.4-27.2,12.8-39,8.9C494.7,1457.2,488.3,1442.8,488.3,1442.8z" fill="#0080FF"/>
<path d="M335.8,1312.1c0,0,10.2,41.4,0,79c-10.2,37.6-32.9,56.3-50.7,62.6c-17.7,6.3,21.6,17.4,41,5.7   s37.1-36.3,36.8-64.2C362.7,1367.2,343.3,1319.3,335.8,1312.1z" fill="#0080FF"/>
<path d="M414.7,1381.1c0,0,11.4,30.7,13.1,59.8c1.6,29.1-5.4,58.3-10.8,70.6c-5.5,12.2-15.8,18-15.8,18   s30.9,3.9,41.3-12.2c10.4-16.1,21.2-28.1,14.9-61.8C451,1421.7,426.1,1387.4,414.7,1381.1z" fill="#0080FF"/>
<path d="M490,1488.6c0,0,21.2,27.5,22.8,64.5c1.7,37-2.5,76.8-22.8,88c-20.3,11.2,47.3-5.8,51.9-29.1   s5.8-58.5-10.8-86.4C514.5,1497.9,490,1488.6,490,1488.6z" fill="#0080FF"/>
<path d="M390.8,1701.7c0,0,19.5-6.6,26.6-37.8c7.1-31.1-15.4-104.6-19.9-116.3c-4.6-11.6,30.6,22.8,40.6,47.8   s15,56.5,6.7,76c-8.3,19.5-7.1,28.7-18.7,32.8S390.8,1701.7,390.8,1701.7z" fill="#0080FF"/>
<path d="M288.6,1479.8c0,0,17.9,42.4,19.9,68.7c2.1,26.4-0.9,65.6-16.3,78.3c-15.4,12.7,23.4,6.9,34.2-10.6   c10.8-17.4,20.8-52.5,9.6-75.6C324.8,1517.6,288.6,1479.8,288.6,1479.8z" fill="#0080FF"/>
<path d="M578.6,1302.4c0,0,26.3-2.8,46.8-30.4c20.5-27.7,33.8-91.3,33.8-91.3l36.5,54.3L653,1391.1L578.6,1302.4z" fill="#4D4D4D"/>
<path d="M949,527.4c0,0,24.1,52,21.8,85.8C968.6,646.9,838,777,838,777v28.2l222.6-223.1c0,0-87.5-87.5-89.1-85.8   C969.7,498,949,527.4,949,527.4z" fill="#4D4D4D"/>
<path d="M1242,496.3c0.8-2.9,38.2-101.3,83-120.4c44.8-19.1,109.6-9.1,154.9,36.1s62.3,122.9,62.3,122.9l-10.8-7.1   c0,0,17,76.4,19.5,115.4c2.5,39,0,90.5,0,90.5s-18.3-14.1-18.3-15.4c0-1.2-4.6-179-51.9-245.4c-47.3-66.4-82.6-73.1-122.5-59   s-81,104.6-81,104.6L1242,496.3z" fill="#4D4D4D"/>
<path d="M1203.4,1268.7c0,0,49.8,27.7,86.4,13.8s440.1-428.2,440.1-428.2l26.6,23.3l-490.8,485.8l-77.2-75.6   L1203.4,1268.7z" fill="#4D4D4D"/>
<path d="M663,1180.6c0,0,215.9,7.8,292.9-6.6c77-14.4,131.8-61.5,131.8-61.5l81.9,103.5l-473.9,18.8L663,1180.6z" fill="#989898"/>
<path d="M969.2,973c0,0,168.6,60.8,313.1,37.5c144.5-23.4,343-221.5,343-221.5l35.7,32.1l-449.3,454.2l-58.1-78.9   L1000,1000L969.2,973z" fill="#989898"/>
<path d="M1695.2,792c-4.7-4.7-10.9-7.2-17.5-7.2c-6.3,0-12.3,2.4-16.9,6.7l-14-11.1c6.3-115.4,1.1-369.6-154.5-463.6   c-36.2-21.9-72.9-33-109.2-33c-23.1,0-45.6,4.5-66.9,13.4c-49.5,20.6-93.9,66-128.9,131.8c-4.4,1.1-8.4,3.3-11.6,6.5l-118.6,118.7   l-67.4-67.4c-4.7-4.7-10.9-7.2-17.5-7.2c-6.6,0-12.8,2.6-17.4,7.2c-77.4,77.2-110.2,159-124.1,213.9   c-15.3,60.5-11.9,102.5-11.7,104.6l0.5,3.9l0.7,1.3c0.5,1.6,1.1,3.1,1.8,4.3l0.4,0.7l0.2,0.4l137.3,173.7l-350.7,93.5l-184.2-4   c-9.5,0-18.1,5.3-22.3,13.8c-4.2,8.6-3,18.9,3,26.3l40.4,50l-4,0.4c-5.8,0.6-57.3,7-86.5,45.1c-14.8,19.2-21.4,36.2-20.3,51.9   c0.7,9.5,4.2,17.9,10.2,25.6l-15.8,7.3c-5.9,2.8-58.6,29.2-75.5,80.3c-17.3,52.5,0.8,77,23.3,88.4l-0.2,0.2   c-4.8,4.5-46.5,45.9-46.5,100c0,64.1,33.5,77.6,61.6,77.6c17.2,0,36.4-5.1,48.7-23.7c-0.8,5.3-1.3,10.6-1.3,16.2   c0,64.1,33.5,77.5,61.6,77.5c27,0,58.8-12.6,61.3-70.3c10.6,6.9,22.8,9.2,34.2,9.2c28.1,0,61.6-13.5,61.6-77.5   c0-54.4-41.8-95.5-46.6-100l-2.1-2c5.1,1.8,10.3,2.8,15.6,2.8c18.2,0,35.7-10.6,53.4-32.4c22.5-27.7,25.2-63.3,24.8-82.1l30.3,37.5   c4.7,5.8,11.7,9.2,19.2,9.2l3.2-0.1l1.9-0.4c9.2-1.9,16.3-8.8,18.7-17.8l36.8-138.4l442.9-15.7l25.6,32.4   c-4.3,4.6-6.7,10.6-6.7,16.9c0,6.6,2.6,12.8,7.2,17.5l66.9,66.9c4.7,4.7,10.9,7.3,17.5,7.3c6.5,0,12.9-2.6,17.5-7.2l477.8-477.8   c4.7-4.7,7.3-10.9,7.3-17.5s-2.6-12.8-7.2-17.4L1695.2,792z M1328,325.3c17.6-7.3,36.1-11,55.2-11c30.6,0,62,9.6,93.4,28.6   c141.8,85.7,146,326.2,139.7,437.4l-71.3-56.4c0.3-96.1-13.3-262.1-106.3-318.3c-20.1-12.1-38.2-18-55.4-18   c-9.4,0-18.5,1.8-27.2,5.4c-40.4,16.8-70.5,68-89.5,110.6l-59.3-46.9C1230.6,409.1,1269.9,349.4,1328,325.3z M1513.2,674.7   l-213.9-169.3c21.3-44.5,45.9-75,68.5-84.3c4.9-2.1,10.1-3.1,15.4-3.1c11.5,0,24.4,4.5,39.6,13.6   C1490.1,472.3,1508.9,588.6,1513.2,674.7z M972.3,512.6l76.6,76.6L849.1,789C849.8,749,861.5,625.9,972.3,512.6z M466.7,1194.8   L504,1241l-0.9,0.2c-3.5,0.6-23.4,4.6-44.5,16.5C468.3,1232.4,467.8,1207,466.7,1194.8z M504.6,1266.1c1.8,10.4,6.6,47.1-11.5,74.5   c-11.8,18-22.9,26.7-33.9,26.7c-5.4,0-10.8-2-17.3-6.2c-13.6-9-23.2-21.9-1.4-55.1C458.8,1278.6,494.4,1268.5,504.6,1266.1z    M375.1,1229.9c20-26,56.3-33.5,66.7-35.2c1.1,10.5,3.2,47.4-16.9,73.5c-12.5,16.3-23.7,24.2-34.2,24.2c-5.8,0-11.6-2.4-18.3-7.5   c-8.1-6.2-12.1-12.5-12.6-19.8C359.2,1255.6,364.2,1244.1,375.1,1229.9z M357.4,1304.4c11,8.5,21.9,12.6,33.3,12.6   c6.2,0,12.2-1.3,18.2-3.8c-9.5,23.1-6.1,40.1,2.6,52.4l-5.2,4c-2.8,2.2-17.5,13.9-31.3,32.7c7.7-45.8-14-88.2-16.8-93.3l-4.1-7.6   C355.3,1302.4,356.2,1303.5,357.4,1304.4z M277.6,1387.8c12.1-36.8,49.9-59,60.1-64.5c5,10.4,22.1,50.8,9.9,87.6   c-12.2,37-27.1,41.3-37.3,41.3c-4.2,0-8.9-0.9-14.3-2.6C277.9,1443.5,263,1431.9,277.6,1387.8z M292.2,1621.5   c-19.2,0-36.9-6.4-36.9-52.9c0-38.7,28.9-71.7,36.9-80.1c8,8.4,36.9,41.4,36.9,80.1C329.1,1615.1,311.4,1621.5,292.2,1621.5z    M352.9,1584.7c0.5-5,0.9-10.2,0.9-16c0-42.4-25.7-77-39.1-92.1c15.6-1.2,27.2-8.8,35.7-18.4c-0.3,2-0.7,4-0.9,6   c-2.9,27.1,0.6,47.1,10.7,61.2c5.6,7.8,13,13.3,22.1,17.1C375.6,1549.6,362.8,1564.5,352.9,1584.7z M401.2,1691.6   c-19.2,0-36.9-6.4-36.9-52.9c0-38.7,28.9-71.7,36.9-80.1c8,8.4,36.9,41.4,36.9,80.1C438,1685.2,420.3,1691.6,401.2,1691.6z    M436.2,1562.8c-4.4-6.4-8.7-11.7-12.2-15.7c5.9-1.2,11.9-3.4,17.6-7.1C439.2,1547.1,437.3,1554.8,436.2,1562.8z M447.3,1474.6   c-4.6,43.5-21.6,49-35.9,49c-2,0-4.1-0.1-6.4-0.4c-11.9-1.3-19.8-5.1-24.8-12.1c-6.4-9-8.5-23.5-6.3-44.3   c4.1-38.5,36.3-68.3,45.1-75.7C426.2,1400.2,451.4,1436.1,447.3,1474.6z M459.3,1392c8.8,0,17.2-2.6,25.3-7.5   c-9.2,13.3-14.3,25.6-14.9,37.3c-0.9,16.4,6.2,30.9,21.1,43c0.8,0.7,1.6,1.1,2.4,1.7l-11.6,11c-1.4,1.3-6,5.9-11.8,13   c0.8-4.2,1.5-8.5,2-13.2c3.8-35.7-11.2-67.6-23-86.6C452.3,1391.4,455.8,1392,459.3,1392z M533.6,1577.6   c0,46.5-17.7,52.9-36.9,52.9s-36.9-6.4-36.9-52.9c0-38.7,28.9-71.7,36.9-80.1C504.6,1505.8,533.6,1538.8,533.6,1577.6z    M559.4,1430.4c-12.7,15.7-23.9,23.3-34.2,23.3c-6,0-12-2.5-18.7-8c-12.7-10.3-20.9-24.1,4.2-54.9c20.7-25.5,57.2-32,67.6-33.3   C579,1367.9,580.1,1404.9,559.4,1430.4z M530.6,1274l47.4,58.6c-6.7,0.7-38.3,4.7-65.5,23.4c0.4-0.6,0.9-1.2,1.3-1.8   C532.1,1326.4,532.5,1293.5,530.6,1274z M650.1,1373.2L437.3,1110l171.6,3.8l65.6,97.2l13.4,19.9L650.1,1373.2z M697.3,1223.7   l-67.3-99.8l-8.4-12.4l378.8-101l137.4,173.6l18.5,23.3L697.3,1223.7z M1172.5,1209.3L1172.5,1209.3l-44.3-56l-276.9-350l210-210   c0.2-0.2,0.2-0.4,0.3-0.5l132-132.1L1653.9,825l-438.5,438.5L1172.5,1209.3z M1266.8,1345.9l-58.6-58.6l469.5-469.5l58.6,58.6   L1266.8,1345.9z"/>
</g>
</svg>