<?xml version="1.0" encoding="iso-8859-1"?>
<!-- Uploaded to: SVG Repo, www.svgrepo.com, Generator: SVG Repo Mixer Tools -->
<svg height="800px" width="800px" version="1.1" id="Layer_1" xmlns="http://www.w3.org/2000/svg" xmlns:xlink="http://www.w3.org/1999/xlink" 
	 viewBox="0 0 511.999 511.999" xml:space="preserve">
<path style="fill:#E6AF78;" d="M324.409,392.818l-9.589-9.589c-4.811-4.811-7.513-11.336-7.513-18.14v-23.578H204.693v23.579
	c0,6.803-2.703,13.329-7.513,18.14l-9.589,9.588v59.858h136.818V392.818z"/>
<path style="fill:#D29B6E;" d="M204.693,365.09c0,6.803-2.702,13.329-7.513,18.14l-9.589,9.588v10.118
	c27.591,0.694,82.594-5.745,119.716-61.425H204.693V365.09z"/>
<path style="fill:#F0C087;" d="M153.386,196.141l13.696,101.02c2.128,17.022,12.623,31.855,27.965,39.527l45.656,22.827
	c9.63,4.815,20.963,4.815,30.593,0l45.656-22.827c15.343-7.671,25.837-22.504,27.965-39.527l13.697-101.02H153.386z"/>
<path style="fill:#E6AF78;" d="M307.306,196.141H153.386l13.696,101.02c2.128,17.022,12.623,31.855,27.965,39.527l45.656,22.827
	c3.098,1.55,6.392,2.416,9.731,2.968c-10.554-14.022-23.134-35.617-28.639-46.626c-3.955-7.911-6.699-40.837-7.887-57.96
	c-0.446-6.42,2.748-12.496,8.267-15.808l29.763-17.858c2.658-1.595,5.699-2.437,8.799-2.437h46.57V196.141z"/>
<path style="fill:#A7A5AC;" d="M262.91,441.075c32.12-15.509,53.372-44.55,59.599-53.858c1.159-1.733,3.324-2.433,5.284-1.72
	l68.163,24.787c13.517,4.916,22.515,17.762,22.515,32.145v44.452c0,9.446-7.656,17.102-17.102,17.102h-145.37H110.63
	c-9.446,0-17.102-7.656-17.102-17.102v-44.451c0-14.383,8.998-27.23,22.515-32.145l68.163-24.787
	c1.959-0.712,4.125-0.013,5.284,1.72c6.227,9.308,27.479,38.35,59.599,53.858C253.421,443.167,258.578,443.167,262.91,441.075z"/>
<g>
	<path style="fill:#8D8A94;" d="M153.386,485.799c0-10.151-4.51-19.778-12.307-26.277L98.53,424.807
		c-3.15,5.216-5.002,11.244-5.002,17.623v44.451c0,9.445,7.658,17.102,17.102,17.102h42.756V485.799z"/>
	<path style="fill:#8D8A94;" d="M358.613,485.799c0-10.151,4.51-19.778,12.307-26.277l42.549-34.717
		c3.15,5.216,5.002,11.244,5.002,17.623v44.452c0,9.445-7.658,17.102-17.102,17.102h-42.756v-18.184H358.613z"/>
</g>
<g>
	<path style="fill:#504B5A;" d="M136.283,196.141c0,0,0,34.205,25.653,59.858l8.551-25.653c0,0,42.756-8.551,76.96-34.205H136.283z"
		/>
	<path style="fill:#504B5A;" d="M264.551,196.141c34.205,25.653,76.96,34.205,76.96,34.205l8.551,25.653
		c25.653-25.653,25.653-59.858,25.653-59.858H264.551z"/>
</g>
<polygon style="fill:#FFCF65;" points="256.005,8.016 33.67,196.141 478.329,196.141 "/>
<polygon style="fill:#FFDC78;" points="255.999,8.016 255.999,196.141 367.164,196.141 "/>
<polygon style="fill:#FFB450;" points="255.999,8.016 144.834,196.141 33.67,196.141 "/>
<path d="M483.508,190.022L261.182,1.897c-2.989-2.529-7.367-2.529-10.357,0L28.492,190.022c-2.567,2.173-3.506,5.719-2.349,8.877
	s4.163,5.259,7.527,5.259h61.169c2.728,29.692,12.771,58.033,29.295,82.384c17.545,25.854,41.472,45.989,69.207,58.255l3.336,1.669
	v18.623c0,4.712-1.834,9.14-5.166,12.471l-0.71,0.71c-2.875-1.268-6.203-1.445-9.334-0.307l-68.163,24.787
	c-16.623,6.047-27.792,21.991-27.792,39.681v44.451c0,13.851,11.268,25.119,25.119,25.119h290.739
	c13.851,0,25.119-11.268,25.119-25.119v-44.451c0-17.688-11.169-33.634-27.792-39.679l-68.163-24.787
	c-3.131-1.137-6.458-0.959-9.334,0.308l-0.71-0.711c-3.331-3.331-5.166-7.759-5.166-12.471v-18.623l3.336-1.669
	c27.736-12.266,51.664-32.401,69.209-58.258c16.523-24.35,26.565-52.69,29.293-82.382h61.168c3.364,0,6.371-2.1,7.527-5.259
	C487.014,195.741,486.076,192.195,483.508,190.022z M244.288,352.345l-45.655-22.827c-12.975-6.488-21.797-18.955-23.596-33.351
	l-4.92-39.357l6.55-19.653c11.984-2.941,44.898-12.38,73.404-33h11.855c28.506,20.621,61.42,30.059,73.404,33l6.55,19.653
	l-4.919,39.357c-1.8,14.396-10.621,26.862-23.596,33.351l-45.655,22.827C260.379,356.013,251.622,356.013,244.288,352.345z
	 M247.983,188.125h-89.099l89.099-150.779V188.125z M219.295,204.158c-25.836,13.252-50.069,18.264-50.379,18.327
	c-2.821,0.564-5.123,2.597-6.034,5.325l-3.999,11.998c-9.061-13.232-12.491-27.17-13.791-35.651H219.295z M353.116,239.809
	l-3.999-11.998c-0.909-2.725-3.211-4.757-6.027-5.324c-0.315-0.063-24.549-5.075-50.384-18.327h74.203
	C365.606,212.639,362.176,226.577,353.116,239.809z M264.016,188.125V37.337l89.1,150.788H264.016z M224.965,44.781L140.26,188.125
	H55.555L224.965,44.781z M137.4,277.54c-14.727-21.703-23.78-46.92-26.451-73.381h17.925c1.515,12.104,6.832,35.664,25.438,55.473
	l4.815,38.525c0.248,1.987,0.62,3.938,1.059,5.865C151.704,296.194,144.043,287.33,137.4,277.54z M101.544,486.88v-44.451
	c0-1.7,0.185-3.367,0.505-4.996l33.898,28.248c5.988,4.99,9.422,12.323,9.422,20.119v10.166H110.63
	C105.62,495.966,101.544,491.89,101.544,486.88z M410.455,486.88c0,5.01-4.076,9.086-9.086,9.086H366.63v-10.167
	c0-7.795,3.434-15.128,9.422-20.119l33.898-28.248c0.32,1.629,0.505,3.297,0.505,4.996V486.88z M327.608,393.961l65.608,23.858
	c3.32,1.208,6.283,3.058,8.783,5.37l-36.21,30.175c-9.655,8.046-15.192,19.868-15.192,32.436v10.167H161.402v-10.167
	c0-12.568-5.537-24.39-15.192-32.436L110,423.188c2.5-2.312,5.463-4.162,8.783-5.37l65.608-23.858
	c7.829,11.206,29.535,39.038,61.212,54.335c6.511,3.143,14.281,3.143,20.792,0C298.073,433,319.779,405.166,327.608,393.961z
	 M309.151,388.898l1.329,1.329c-9.123,11.949-26.931,31.981-51.056,43.63c-2.144,1.036-4.704,1.036-6.848,0
	c-24.125-11.648-41.933-31.681-51.056-43.63l1.329-1.329c6.36-6.359,9.862-14.815,9.862-23.809v-10.607l24.408,12.204
	c3.463,1.732,7.124,2.941,10.865,3.658v22.473c0,4.427,3.589,8.017,8.017,8.017c4.427,0,8.017-3.589,8.017-8.017v-22.473
	c3.741-0.717,7.403-1.926,10.865-3.658l24.407-12.205v10.607C299.29,374.083,302.791,382.539,309.151,388.898z M374.601,277.538
	c-6.644,9.791-14.305,18.656-22.788,26.484c0.439-1.927,0.811-3.878,1.059-5.865l4.815-38.525
	c18.605-19.81,23.923-43.369,25.438-55.473h17.925C398.378,230.618,389.327,255.835,374.601,277.538z M371.739,188.125
	l-84.706-143.35l169.411,143.35H371.739z"/>
</svg>