<?xml version="1.0" ?>
<!DOCTYPE svg  PUBLIC '-//W3C//DTD SVG 1.1//EN'  'http://www.w3.org/Graphics/SVG/1.1/DTD/svg11.dtd'>
<!-- Uploaded to: SVG Repo, www.svgrepo.com, Generator: SVG Repo Mixer Tools -->
<svg fill="#000000" width="800px" height="800px" viewBox="0 0 250 250" style="fill-rule:evenodd;clip-rule:evenodd;stroke-linecap:round;stroke-linejoin:round;stroke-miterlimit:1.5;" version="1.1" xml:space="preserve" xmlns="http://www.w3.org/2000/svg" xmlns:serif="http://www.serif.com/" xmlns:xlink="http://www.w3.org/1999/xlink">
<g transform="matrix(0.743366,0,0,0.895803,74.1114,-7.28939)">
<path d="M225.087,205.202C225.087,192.063 213.753,181.395 199.793,181.395L58.654,168.895L58.654,211.815L218.061,211.815C221.939,211.815 225.087,208.852 225.087,205.202Z" style="fill:rgb(242,13,13);"/>
</g>
<path d="M224.628,155.324C234.068,156.457 241.434,165.526 241.434,176.531C241.434,179.801 239.093,182.455 236.211,182.455L117.713,182.455L117.713,172.455L222.211,172.455C225.093,172.455 227.434,169.801 227.434,166.531C227.434,162.421 226.406,158.581 224.628,155.324Z" style="fill:rgb(185,14,14);"/>
<g transform="matrix(0.743366,0,0,0.895803,74.1114,-7.28939)">
<path d="M225.087,205.202C225.087,192.063 213.753,181.395 199.793,181.395L58.654,168.895L58.654,211.815L218.061,211.815C221.939,211.815 225.087,208.852 225.087,205.202Z" style="fill:none;stroke:black;stroke-width:9.11px;"/>
</g>
<g transform="matrix(0.895803,0,0,0.895803,56.4003,-7.28939)">
<path d="M68.444,168.895L0,145.145L0,178.48C0,196.878 14.937,211.815 33.335,211.815L68.962,211.815L68.444,168.895Z" style="fill:rgb(51,51,51);stroke:black;stroke-width:8.37px;"/>
</g>
<g transform="matrix(0.895803,0,0,0.895803,56.4003,-18.7613)">
<path d="M0,145.145L80.754,173.167L0,145.145Z" style="fill:white;stroke:black;stroke-width:8.37px;"/>
</g>
<g transform="matrix(0.895803,0,0,0.895803,22.886,-8.45647)">
<path d="M-20.367,88.738L37.413,133.642L-20.367,88.738Z" style="fill:white;stroke:black;stroke-width:8.37px;"/>
</g>
<g transform="matrix(0.935004,0.0881322,-0.0536662,0.569351,38.9598,32.2777)">
<path d="M172.64,152.025C172.64,146.621 169.969,142.234 166.678,142.234L111.832,142.234C108.542,142.234 105.871,146.621 105.871,152.025L105.871,171.605C105.871,177.008 108.542,181.395 111.832,181.395L166.678,181.395C169.969,181.395 172.64,177.008 172.64,171.605L172.64,152.025Z" style="fill:rgb(191,191,191);"/>
</g>
<path d="M181.188,127.385L187.172,127.949C190.248,128.239 192.51,130.972 192.22,134.048L191.169,145.196C190.879,148.273 188.146,150.535 185.07,150.245L133.789,145.411C130.712,145.121 128.45,142.388 128.74,139.312L128.772,138.975L174.07,143.245C177.146,143.535 179.879,141.273 180.169,138.196L181.188,127.385Z" style="fill:rgb(140,140,140);"/>
<g transform="matrix(0.935004,0.0881322,-0.0536662,0.569351,38.9598,32.2777)">
<path d="M172.64,152.025C172.64,146.621 169.969,142.234 166.678,142.234L111.832,142.234C108.542,142.234 105.871,146.621 105.871,152.025L105.871,171.605C105.871,177.008 108.542,181.395 111.832,181.395L166.678,181.395C169.969,181.395 172.64,177.008 172.64,171.605L172.64,152.025Z" style="fill:none;stroke:black;stroke-width:9.65px;"/>
</g>
<g transform="matrix(1.06858,0.100723,-0.0321997,0.34161,18.5669,49.5392)">
<path d="M172.64,152.025C172.64,146.621 171.237,142.234 169.51,142.234L109,142.234C107.273,142.234 105.871,146.621 105.871,152.025L105.871,171.605C105.871,177.008 107.273,181.395 109,181.395L169.51,181.395C171.237,181.395 172.64,177.008 172.64,171.605L172.64,152.025Z" style="fill:rgb(242,13,13);"/>
</g>
<g transform="matrix(1,0,0,1,1,0)">
<path d="M185.071,114.066L195.121,115.201C196.967,115.375 198.325,117.015 198.151,118.861L197.52,125.55C197.346,127.396 195.706,128.753 193.86,128.579L181.86,126.579C183.706,126.753 185.346,125.396 185.52,123.55L186.151,116.861C186.253,115.771 185.822,114.752 185.071,114.066Z" style="fill:rgb(185,14,14);"/>
</g>
<g transform="matrix(1.06858,0.100723,-0.0321997,0.34161,18.5669,49.5392)">
<path d="M172.64,152.025C172.64,146.621 171.237,142.234 169.51,142.234L109,142.234C107.273,142.234 105.871,146.621 105.871,152.025L105.871,171.605C105.871,177.008 107.273,181.395 109,181.395L169.51,181.395C171.237,181.395 172.64,177.008 172.64,171.605L172.64,152.025Z" style="fill:none;stroke:black;stroke-width:9.41px;"/>
</g>
<g transform="matrix(0.919691,0,0,0.895803,101.658,2.10716)">
<ellipse cx="142.92" cy="201.325" rx="13.636" ry="13.986" style="fill:rgb(51,51,51);stroke:black;stroke-width:8.26px;"/>
</g>
<g transform="matrix(0.919691,0,0,0.895803,7.25644,2.10716)">
<ellipse cx="142.92" cy="201.325" rx="13.636" ry="13.986" style="fill:rgb(51,51,51);stroke:black;stroke-width:8.26px;"/>
</g>
<g transform="matrix(0.982542,0,0,0.982542,0.219582,-29.7197)">
<path d="M4.5,102.545L8.402,86.241" style="fill:none;stroke:black;stroke-width:7.63px;"/>
</g>
</svg>