<?xml version="1.0" encoding="utf-8"?>
<!-- Uploaded to: SVG Repo, www.svgrepo.com, Generator: SVG Repo Mixer Tools -->
<svg width="800px" height="800px" viewBox="-12.68 0 138.145 138.145" xmlns="http://www.w3.org/2000/svg">
  <g id="honey" transform="translate(-390.424 711.162)">
    <path id="path208" d="M461.564-644.248l-10.253-7.016H406.078l-8.9,9.173L393.4-623.92l2.517,7.732H455.63l10.252-.716L468-631.3l-6.435-12.951" fill="#f8fafc"/>
    <path id="path210" d="M453.7-615.581a23.812,23.812,0,0,1-23.809,23.812,23.814,23.814,0,0,1-23.811-23.812,23.814,23.814,0,0,1,23.811-23.811A23.812,23.812,0,0,1,453.7-615.581" fill="#ed395e"/>
    <path id="path212" d="M456.262-616.188l-4.048,6.88s-6.069,8.5-6.473,8.795-8.9,5.776-8.9,5.776l-8.364,1.213-9.173-2.159-8.365-7.42-3.777-13.085-13.76.712,6.611,19.255,15.649,19.7,24.823,1.889,7.285-4.183,11.06-14.705L468-616.188H456.262" fill="#fbcb3a"/>
    <path id="path214" d="M436.162-626.644l-8.5,2.5-4.857-2.023-4.653,5.329,4.249,6.069,3.035,3.305,1.687,6.137,7.757-1.483,2.024-6.205,4.181-4.048,1.281-5.193s-5.935-4.317-6.205-4.385" fill="#fbcb3a"/>
    <path id="path216" d="M450.15-650.542H411.115v-12.681H450.15v12.681" fill="#e9ecef"/>
    <path id="path218" d="M497.408-708.465l-77.03,15.515L422.4-685.8l76.491-14.705,1.888-4.587-3.372-3.373" fill="#fbcb3a"/>
    <path id="path220" d="M438.515-671.745a2.879,2.879,0,0,0,0-4.073,2.874,2.874,0,0,0-4.069,0,2.879,2.879,0,0,0,0,4.073,2.879,2.879,0,0,0,4.069,0" fill="#100f0d"/>
    <path id="path222" d="M464.748-619.07h-8.28A25.912,25.912,0,0,0,430.723-642.1a25.913,25.913,0,0,0-25.747,23.029H396.7a71.17,71.17,0,0,1-.519-8.636c0-5.484,2.26-10.572,6.72-15.129a33.734,33.734,0,0,1,6.311-5.021h43.017a33.517,33.517,0,0,1,6.311,5.021c4.46,4.557,6.72,9.645,6.72,15.129a71.993,71.993,0,0,1-.513,8.636ZM410.576-616.2a20.016,20.016,0,0,1,5.9-14.247,20.007,20.007,0,0,1,14.245-5.9,20.021,20.021,0,0,1,14.249,5.9,20.024,20.024,0,0,1,5.9,14.247,20.024,20.024,0,0,1-5.9,14.251,20.036,20.036,0,0,1-14.249,5.9,20.022,20.022,0,0,1-14.245-5.9A20.016,20.016,0,0,1,410.576-616.2Zm43.1,26.1A56.567,56.567,0,0,1,443.2-578.776H418.252a56.626,56.626,0,0,1-10.484-11.316,62.045,62.045,0,0,1-7.972-15.5,63.68,63.68,0,0,1-2.137-7.719h7.317a25.913,25.913,0,0,0,25.747,23.028,25.911,25.911,0,0,0,25.745-23.028h7.323a63.932,63.932,0,0,1-2.143,7.719,61.734,61.734,0,0,1-7.972,15.5Zm-40.221-63.524a2.853,2.853,0,0,0,2.032-.843,2.875,2.875,0,0,0,0-4.069,2.864,2.864,0,0,0-2.032-.843H448a2.867,2.867,0,0,0-2.036.843,2.872,2.872,0,0,0,0,4.069,2.855,2.855,0,0,0,2.036.843H413.455Zm40.293,0v-11.509H430.723v-8.659a2.875,2.875,0,0,0-.843-2.035,2.873,2.873,0,0,0-4.068,0,2.858,2.858,0,0,0-.843,2.035v8.659H407.7v11.509s-17.272,8.637-17.272,25.909c0,37.421,25.907,54.689,25.907,54.689h28.785s25.905-17.268,25.905-54.689c0-17.272-17.273-25.909-17.273-25.909" fill="#100f0d"/>
    <path id="path224" d="M422.09-622.124l2.88-1.665,2.875,1.665v3.327l-2.875,1.661-2.88-1.661Zm17.268,0v3.327l-2.876,1.661L433.6-618.8v-3.327l2.879-1.665Zm-8.635,14.967-2.879-1.667v-3.325l2.879-1.661,2.88,1.661v3.325ZM422.09-605.5l8.633,4.987,8.635-4.987v-6.649l5.759-3.327v-9.969l-8.635-4.993-5.759,3.328-5.753-3.328-8.639,4.993v9.969l5.759,3.327v6.649" fill="#100f0d"/>
    <path id="path226" d="M496.287-702.556l-55.1,10.7-.548-2.828,55.1-10.7a1.585,1.585,0,0,1,.283-.025,1.431,1.431,0,0,1,1.4,1.164,1.434,1.434,0,0,1-1.137,1.684Zm-72.052,13.991-.548-2.827,11.3-2.192.548,2.825Zm78.844-16.772a7.2,7.2,0,0,0-7.057-5.825,7.189,7.189,0,0,0-1.38.133l-55.1,10.692-.548-2.825h0A2.878,2.878,0,0,0,437.78-705a2.884,2.884,0,0,0-4,.776,2.872,2.872,0,0,0-.443,2.16h0l.548,2.828-2.824.549-.548-2.825a2.875,2.875,0,0,0-1.215-1.839,2.88,2.88,0,0,0-4,.776,2.857,2.857,0,0,0-.439,2.159h0l.549,2.825-2.829.552-.548-2.829h0a2.858,2.858,0,0,0-1.215-1.835,2.871,2.871,0,0,0-4,.776,2.878,2.878,0,0,0-.439,2.159h0l3.84,19.776h0a2.875,2.875,0,0,0,1.215,1.839,2.877,2.877,0,0,0,4-.776,2.882,2.882,0,0,0,.437-2.159h0l-.547-2.828,2.824-.547.548,2.823h0a2.86,2.86,0,0,0,1.217,1.839,2.869,2.869,0,0,0,3.993-.776,2.862,2.862,0,0,0,.443-2.157h0l-.548-2.824,2.825-.551.548,2.827h0a2.865,2.865,0,0,0,1.213,1.837,2.876,2.876,0,0,0,4-.776,2.856,2.856,0,0,0,.443-2.159l-.547-2.825L497.383-696.9a7.2,7.2,0,0,0,5.7-8.436" fill="#100f0d"/>
  </g>
</svg>