<?xml version="1.0" encoding="iso-8859-1"?>
<!-- Uploaded to: SVG Repo, www.svgrepo.com, Generator: SVG Repo Mixer Tools -->
<svg height="800px" width="800px" version="1.1" id="Layer_1" xmlns="http://www.w3.org/2000/svg" xmlns:xlink="http://www.w3.org/1999/xlink" 
	 viewBox="0 0 503.802 503.802" xml:space="preserve">
<g transform="translate(3 13)">
	<path style="fill:#AE938D;" d="M104.002,230.367c46.933,0,85.333,38.4,85.333,85.333s-38.4,85.333-85.333,85.333
		s-85.333-38.4-85.333-85.333S57.068,230.367,104.002,230.367z M411.202,298.634c28.16,0,51.2,23.04,51.2,51.2
		c0,28.16-23.04,51.2-51.2,51.2s-51.2-23.04-51.2-51.2C360.002,321.674,383.042,298.634,411.202,298.634z"/>
	<g>
		<path style="fill:#F2EDDA;" d="M104.002,281.567c18.773,0,34.133,15.36,34.133,34.133s-15.36,34.133-34.133,34.133
			s-34.133-15.36-34.133-34.133S85.228,281.567,104.002,281.567z M411.202,332.767c9.387,0,17.067,7.68,17.067,17.067
			s-7.68,17.067-17.067,17.067s-17.067-7.68-17.067-17.067S401.815,332.767,411.202,332.767z"/>
		<polygon style="fill:#F2EDDA;" points="266.135,196.234 189.335,196.234 155.202,42.634 274.668,42.634 325.868,196.234 		"/>
	</g>
	<g>
		<path style="fill:#FF7474;" d="M496.535,264.501v85.333h-34.133c0-28.16-23.04-51.2-51.2-51.2s-51.2,23.04-51.2,51.2h-34.133
			v-153.6h102.4h34.133c20.48,0,34.133,13.653,34.133,34.133V264.501z"/>
		<path style="fill:#FF7474;" d="M325.868,196.234v153.6h-102.4v-34.133c0-22.187-5.973-43.52-17.067-61.44
			c-20.48-34.987-58.88-58.027-102.4-58.027c-7.68,0-14.507,0.853-21.333,1.707l21.333-155.307h51.2l34.133,153.6h76.8H325.868z"/>
	</g>
</g>
<path style="fill:#51565F;" d="M499.535,452.434H363.002c-2.56,0-4.267-1.707-4.267-4.267c0-2.56,1.707-4.267,4.267-4.267h136.533
	c2.56,0,4.267,1.707,4.267,4.267C503.802,450.727,502.095,452.434,499.535,452.434z M328.868,452.434h-17.067
	c-2.56,0-4.267-1.707-4.267-4.267c0-2.56,1.707-4.267,4.267-4.267h17.067c2.56,0,4.267,1.707,4.267,4.267
	C333.135,450.727,331.428,452.434,328.868,452.434z M260.602,452.434h-85.333c-2.56,0-4.267-1.707-4.267-4.267
	c0-2.56,1.707-4.267,4.267-4.267h85.333c2.56,0,4.267,1.707,4.267,4.267C264.868,450.727,263.162,452.434,260.602,452.434z
	 M124.068,452.434H4.602c-2.56,0-4.267-1.707-4.267-4.267c0-2.56,1.707-4.267,4.267-4.267h119.467c2.56,0,4.267,1.707,4.267,4.267
	C128.335,450.727,126.628,452.434,124.068,452.434z M414.202,418.301c-30.72,0-55.467-24.747-55.467-55.467
	s24.747-55.467,55.467-55.467s55.467,24.747,55.467,55.467S444.922,418.301,414.202,418.301z M414.202,315.901
	c-25.6,0-46.933,21.333-46.933,46.933c0,25.6,21.333,46.933,46.933,46.933s46.933-21.333,46.933-46.933
	C461.135,337.234,439.802,315.901,414.202,315.901z M107.002,418.301c-49.493,0-89.6-40.107-89.6-89.6s40.107-89.6,89.6-89.6
	s89.6,40.107,89.6,89.6S156.495,418.301,107.002,418.301z M107.002,247.634c-44.373,0-81.067,36.693-81.067,81.067
	s36.693,81.067,81.067,81.067s81.067-36.693,81.067-81.067S151.375,247.634,107.002,247.634z M414.202,384.167
	c-11.947,0-21.333-9.387-21.333-21.333c0-11.947,9.387-21.333,21.333-21.333c11.947,0,21.333,9.387,21.333,21.333
	C435.535,374.781,426.148,384.167,414.202,384.167z M414.202,350.034c-6.827,0-12.8,5.973-12.8,12.8c0,6.827,5.973,12.8,12.8,12.8
	s12.8-5.973,12.8-12.8C427.002,356.008,421.028,350.034,414.202,350.034z M499.535,367.101c-2.56,0-4.267-1.707-4.267-4.267v-81.067
	h-81.067c-2.56,0-4.267-1.707-4.267-4.267c0-2.56,1.707-4.267,4.267-4.267h81.067v-25.6h-81.067c-2.56,0-4.267-1.707-4.267-4.267
	c0-2.56,1.707-4.267,4.267-4.267h81.067c-1.707-15.36-12.8-25.6-29.867-25.6H269.135l0,0h-76.8c-1.707,0-3.413-1.707-4.267-3.413
	l-33.28-150.187h-44.373L94.202,175.954c0,2.56-2.56,4.267-5.12,3.413c-2.56,0-4.267-2.56-3.413-5.12l17.067-119.467
	c0-1.707,1.707-3.413,4.267-3.413h51.2l0,0h119.467c1.707,0,3.413,0.853,4.267,2.56l50.347,151.04h94.72v-46.933
	c0-2.56,1.707-4.267,4.267-4.267s4.267,1.707,4.267,4.267v46.933h29.867c23.04,0,38.4,15.36,38.4,38.4v119.467
	C503.802,365.394,502.095,367.101,499.535,367.101z M275.962,204.967h46.933l-48.64-145.067H163.322l32.427,145.067h70.827
	l16.213-31.573c0.853-1.707,3.413-2.56,5.973-1.707c1.707,0.853,2.56,2.56,2.56,3.413c0,0.853,0,1.707-0.853,1.707L275.962,204.967z
	 M328.868,367.101h-102.4c-2.56,0-4.267-1.707-4.267-4.267v-34.133c0-21.333-5.973-41.813-16.213-59.733
	c-21.333-34.987-58.027-55.467-98.987-55.467s-77.653,20.48-98.987,55.467c-0.853,1.707-4.267,2.56-5.973,1.707
	c-1.707-0.853-2.56-4.267-1.707-5.973c23.04-37.547,62.293-59.733,105.813-59.733s83.627,22.187,105.813,59.733
	c11.947,18.773,17.92,40.96,17.92,64v29.867h93.867v-115.2c0-2.56,1.707-4.267,4.267-4.267s4.267,1.707,4.267,4.267v119.467
	C333.135,365.394,331.428,367.101,328.868,367.101z M107.002,367.101c-21.333,0-38.4-17.067-38.4-38.4
	c0-21.333,17.067-38.4,38.4-38.4s38.4,17.067,38.4,38.4C145.402,350.034,128.335,367.101,107.002,367.101z M107.002,298.834
	c-16.213,0-29.867,13.653-29.867,29.867c0,16.213,13.653,29.867,29.867,29.867s29.867-13.653,29.867-29.867
	C136.868,312.488,123.215,298.834,107.002,298.834z"/>
</svg>